/* XPM */
static char *evil_fat_bisson64_641653230469[] = {
/* columns rows colors chars-per-pixel */
"64 64 256 2 ",
"   c #000001",
".  c #080008",
"X  c #180107",
"o  c #090316",
"O  c #290509",
"+  c #37070A",
"@  c #2F110D",
"#  c #2A0613",
"$  c #370915",
"%  c #29131B",
"&  c #361217",
"*  c #3C121B",
"=  c #332519",
"-  c #160229",
";  c #291326",
":  c #3A1926",
">  c #320530",
",  c #351937",
"<  c #3A2435",
"1  c #44050C",
"2  c #460516",
"3  c #580417",
"4  c #461416",
"5  c #42121D",
"6  c #541215",
"7  c #67071B",
"8  c #750A19",
"9  c #500627",
"0  c #461726",
"q  c #561928",
"w  c #470437",
"e  c #55053B",
"r  c #461A38",
"t  c #541C38",
"y  c #7C0A27",
"u  c #671B2B",
"i  c #6E0C32",
"p  c #631C33",
"a  c #691D35",
"s  c #6B1E3A",
"d  c #4B2D2E",
"f  c #492238",
"g  c #57243A",
"h  c #692339",
"j  c #74243D",
"k  c #79253A",
"l  c #7E3237",
"z  c #380945",
"x  c #490648",
"c  c #5A0746",
"v  c #491D46",
"b  c #541D47",
"n  c #6C0C4D",
"m  c #780D48",
"M  c #770E54",
"N  c #4A2348",
"B  c #572449",
"V  c #532F4F",
"C  c #5A2753",
"Z  c #64284B",
"A  c #7A2847",
"S  c #6F354F",
"D  c #672954",
"F  c #782B56",
"G  c #763458",
"H  c #560A6D",
"J  c #6B1170",
"K  c #753363",
"L  c #564853",
"P  c #6E4758",
"I  c #6E4868",
"U  c #8E131B",
"Y  c #A81B1A",
"T  c #AC241A",
"R  c #8C1122",
"E  c #991727",
"W  c #890F31",
"Q  c #A71C29",
"!  c #A81D37",
"~  c #84263D",
"^  c #853439",
"/  c #AE272D",
"(  c #B92A28",
")  c #AC2239",
"_  c #B82939",
"`  c #C83A1A",
"'  c #C6372B",
"]  c #C53132",
"[  c #C83739",
"{  c #CE4C19",
"}  c #D14C1C",
"|  c #D6561C",
" . c #DD681D",
".. c #E3761C",
"X. c #D54B25",
"o. c #D44B32",
"O. c #DE6725",
"+. c #E26E29",
"@. c #E27621",
"#. c #850E49",
"$. c #89114A",
"%. c #951748",
"&. c #891458",
"*. c #971757",
"=. c #A61C48",
"-. c #A51C57",
";. c #872946",
":. c #852B4B",
">. c #932D4D",
",. c #862E54",
"<. c #89335A",
"1. c #983857",
"2. c #B82A49",
"3. c #AD2359",
"4. c #B12D52",
"5. c #B62859",
"6. c #881766",
"7. c #971A66",
"8. c #931C73",
"9. c #A21E68",
"0. c #873667",
"q. c #953A65",
"w. c #8F2F70",
"e. c #9A2676",
"r. c #973B74",
"t. c #A92568",
"y. c #B72A67",
"u. c #BB2D64",
"i. c #AB386B",
"p. c #AA2875",
"a. c #B72D75",
"s. c #BA3578",
"d. c #C7334D",
"f. c #C73948",
"g. c #C83A58",
"h. c #C02F6D",
"j. c #C63A67",
"k. c #C53977",
"l. c #B44859",
"z. c #8E4769",
"x. c #9B4469",
"c. c #9D4578",
"v. c #A84569",
"b. c #A74775",
"n. c #B35274",
"m. c #95606B",
"M. c #D34449",
"N. c #CB4759",
"B. c #D34757",
"V. c #D75057",
"C. c #CA4468",
"Z. c #D44A67",
"A. c #D85767",
"S. c #C94478",
"D. c #D24A77",
"F. c #C75874",
"G. c #D75678",
"H. c #E35B6B",
"J. c #DD6574",
"K. c #E36975",
"L. c #E36E76",
"P. c #E8891E",
"I. c #E98C23",
"U. c #681283",
"Y. c #92298E",
"T. c #8D2498",
"R. c #AA328F",
"E. c #BB3686",
"W. c #B83B95",
"Q. c #B03CA6",
"!. c #C33A87",
"~. c #C33D95",
"^. c #A74985",
"/. c #BB438B",
"(. c #A7508E",
"). c #B85787",
"_. c #BC4895",
"`. c #B95998",
"'. c #BC628F",
"]. c #BA47A5",
"[. c #AB57AB",
"{. c #B950B1",
"}. c #CA4688",
"|. c #D24985",
" X c #CB518E",
".X c #D75787",
"XX c #C84599",
"oX c #C7559A",
"OX c #D75696",
"+X c #E25C86",
"@X c #DA6689",
"#X c #D16E8D",
"$X c #C4679B",
"%X c #DA6596",
"&X c #DB789A",
"*X c #E26888",
"=X c #E57689",
"-X c #E36B98",
";X c #E67897",
":X c #CA4AA3",
">X c #CF4DA9",
",X c #C857A8",
"<X c #D556AD",
"1X c #D65AAC",
"2X c #C757B6",
"3X c #D65BB2",
"4X c #D459B4",
"5X c #DA5DB2",
"6X c #C96EA9",
"7X c #D366A9",
"8X c #DA79AA",
"9X c #CA65B6",
"0X c #DB61B4",
"qX c #D866B9",
"wX c #DB79B7",
"eX c #E169AC",
"rX c #E57AA7",
"tX c #E17ABA",
"yX c #D76BC4",
"uX c #D97BC7",
"iX c #D770CE",
"pX c #BC8DAF",
"aX c #DB8494",
"sX c #E98598",
"dX c #D98CB3",
"fX c #E887A9",
"gX c #EE93AC",
"hX c #E689B7",
"jX c #E997B9",
"kX c #F199B8",
"lX c #EFABBE",
"zX c #F3A5BA",
"xX c #DE9BD6",
"cX c #E487C6",
"vX c #E896C6",
"bX c #E48AD6",
"nX c #E99AD6",
"mX c #EBA3C8",
"MX c #F3ABC5",
"NX c #F5B6CA",
"BX c #EDA6D6",
"VX c #EEB3D8",
"CX c #F4B9D6",
"ZX c #EFB2EC",
"AX c #F4BAE6",
"SX c #F2C5D3",
"DX c #F6C7DA",
"FX c #F9D3DC",
"GX c #F6C7E5",
"HX c #F9D7E9",
"JX c #F3C8F3",
"KX c #FCE7EA",
"LX c #FDF3EC",
"PX c #FBE9F6",
"IX c #FDF8F6",
"UX c #FEFEFE",
/* pixels */
"2 O + 9 > > X   . o + 8 U ) u.XX5X>XXXR.7.7.p.Q.T.Q.qXqX:XQ.Y.Q.Q.Y.R.{.7X9X{.T.{.R.8.7.9.~.:X<X5Xk.d.E U 1 . .   . > > 9 + + 1 ",
"3 + 1 7 i $ .   X # 8 U / _ g.!.eX>X:XE.7.8.T.{.cXJXGXAXcX2X2X2XyXW.].2XBXHXGXnX9XQ.8.7.Y.:X:X5X:Xh._ Q U 8 $ X   . # i i 6 + 1 ",
"7 1 3 3 9 2 X . # 2 8 R ( ] d.!.0X>XXXR.J 2XBXKXDXhXvXbXuX2X{.iXiXQ.].4XcXcXmXmXCXGXiXT.p.~.>X5XXXj.f.' Y R 2 # o . # 3 9 3 1 7 ",
"U 3 2 O # + # # $ O 3 R / o.g.!.0X<XW.Q.qXmXCXBXmXVXhXnXbXbXR.qX:XQ.bXuXbXvXvXCXVXrXCXwXQ.~.>X5XXXg.[ ] U 8 $ 2 # $ 1 O O 1 1 U ",
"Y 7 O   X 2 i 7 2 X O 7 Q o.g.!.qXW.Y.nXkXhXmX8XCXIXVXBXAXnX4XqXtXiXnXJXGXDXBXHXhXvXvXMXhX2XR.wX}.g.M.] 8 + X + 3 i 9 O   O 2 R ",
"/ 7 X   X i ) E 2 X   2 Q o.M.!.Q.].jXMXwXcXrXGXvXPXKXHXPXGXVXqXXXnXAXPXGXGXPXGXUXmXhXhXmXvXqXY.XXg.[ / 7 X   $ R ! y #   . 1 Q ",
"E 3 .   X 9 _ ! $     # E [ g.~.].vXgXvXtXmXIXPXKXFXHXNXPXGXGXvXbXBXCXHXFXKXKXHXPXmXMXjXvXSXmX,XJ C.o.Q 2     + R f.y O     2 E ",
"E 3     X i E R 1     X y f.g.].hXCXhXhXVXkXHXFXCXNXlXNXhX7XyXuXqXnXvXkXzXlXlXDXKXHXmXhXhXvXjXmX0Xy.f.R +     O y R W #     + R ",
"W 3 O # 1 W Q R 2     X 7 =._.wXDXjXvXjXkXHXSXIXzXMXHXKXHXLXGXCXMXGXGXKXKXHXDXSXNXFXSXfXCXfXmXMXnX].3.y O     + R R R 3 # X 2 y ",
"! R 7 8 E / ' ( 8 3 X + 3 x {.VXfXvXhX-XNXHXNXNXKXFXsXF.F.#X;XrX%X&X@Xn.F.;XkXIXFXIXDXDXjXkXwXfXGXuXT.i 1 X 1 8 Q ' ( Q R y R E ",
"d.( o.o.+.@.@.@.X.Y 7 8 i T.ZXGXrXwXmXMXHXMXGXKX X>.k u u u A >.i.1.u u u a >.n.HXDXDXMXDXfXhX XGXBXQ.> R 7 R ' +.@.@.+.o.o.( _ ",
"g.o.I.I.P.+. .@.I.O.( Y H iXBXCXhXkXNXCXFXNXHXFX^ p q q q q q u q q 6 q q u q j dXKXIXkXSXzXhX7X.XHXxXT.E Y | P... .@.P.I.I.O.M.",
"g.o.@.P...| | | .... ._ T.JXDXOX8XnX7XkXzXPXFXx.g q * 5 5 5 5 5 5 5 5 * 5 * q q k NXHXkXMX8XBXeXrXHXAXT.*.+.@.@.| } |  .I.I.o.f.",
"j.f.X.....} } |  . .{ e T.JX,X8XwXHXMXhX8XCXSXj q 0 5 $ & @ * $ * $ & @ # $ 0 q p VXGXCXNXzXCXnXoX7XPXnX- ] O.O.| } }  .P.X.[ g.",
"!.d.[ `  .X.} } } | ! J 2XUX7X1XZXDXmXNXjXvXCXp q 0 * + @ 4 4 5 5 4 $ + @ 4 5 q p '.HXGXlXfX$XHX,X1XuXJXU.i ` | } { }  .} ' d.k.",
"~.a.d.] ' O.| | X.Y 9 J JX3X9XoXHXOXzXmXBXjXvXa q 4 4 @ + + & * * $ + + + + 0 0 p b.GXVX%XfXvXPXwX2X].UX{.x ] ` | | O.` ] d.u.~.",
"4X~.h.2.d.] ] ( Q ! z iXPX].,XwXGX7XkX@XCXfX6Xq 0 5 5 5 @ @ & & * * & @ $ * 0 q p q.hXhXOXvXMXHXvXqX].,XZXJ t.Q ] ` ] ] 2.h.!.4X",
"4X4X!.h.5.d.d.2.5.&.H ZXuXR.,XcXHXhX XhX6X@Xx.u q 0 : $ & * * & : * 5 @ @ : * q q <.mX8XmXCXMXVXvXcX_.R.JX{.c 5.=.2.d.h.y.h.4X<X",
"<X<X<X:X~.!.h.h.E.o 2XZXY.qXcXAXnXBXhXvX#XvX<.g t : & @ $ @ @ & * @ + & * $ * 0 t <.VX&X8XhXUXwXAXoX`.R.ZXbXz t.k.k.!.!.~.4X<X<X",
"4X<X<X4X4X4X4XqX8.z ZXPXW._./.AX7XGXhXvXfXDX:.Z d q 4 + O + 1 4 + + O O 4 & 4 d h A VX8XvX7X8XXXPX9XcX:XR.xXQ.c 5X4X<X5X4X<X<X<X",
"<X<X<X3X<X5X5X>X- R.JXc <XtXcXHX_.cXwXr.vXVXP n.z.^ ^ u u d 6 4 4 6 u h h l 1.z.).P $XmXb.GXJXnXIXAX<XW.e.PX4X- qX0X5X5X5X5X<X<X",
"<X<X<X3X<X<X5XqXo yXnXY.R.,XHXPXcXoXAXoXBXmXdXdXlXdXgXSXdXF.1.q 4 h <.lXlXjXgXlXdXlX(.HX7XBXwXnXJXBXoXR.R.bXZXz <X5X5X<X4X<X<X<X",
"4X<X3X1X3X3X5X6.M ZX7.Y.Y.7XVXwXvX_.JXqXHXdXm.A ;.>.x.n.n.aXn.S h x.n.n.n.z.;.j l x.aXPXhX_.GX7Xe.HXBXwX6.M 2XR.> <X5X4X5X3X<X<X",
"5X0X0X0X5X5XW.> R.uXm 7.vXBXGX&.XXvX^.wXJXq.G mXIXLXLXdXz.P 0.g g G P z.b.FXIXIXGXx.G xXGXw.7XXXoXUXBX_.8.6.uX9Xo 8.5X0X0X5X5X5X",
"0X0X0X0X0XqX- - 4Xe.&.e.~.hXnXoX/.cX`.ZXxXdXIX=XlXKXmXT &XS A N f A G n./ V.KXVXY KXSXdXJX].vXr._.E.nX,X/.7.6.2Xn > :X5X5X5X5X0X",
"5X5X5X5X5X!.M c bXM 7.XX7XcXm tXoX6X].xXb.<.b.'.aXl.l.l.m.A A N N j 4 v.n.l.1.#X#Xv.z.F xX9X{._./.*.BXhXXX7.&.2XY.c E.5X5X5X5X5X",
"5X5X5X0X<Xw c 8.w.M t.}.cXtXt./.,X(.uX6Xk q t Z <.<.P ^ l u g N N g h k ^ :.<.G A b q j c.xXQ.cXp. Xn 7XE.E.7.e.E.w 8.>X5X5X5X5X",
"0X5X0X0X1X6.> ~.7.*.E.!.oX&. Xe.cXR.xXK t q 5 4 4 6 u 6 q g N N N N g d q 6 6 4 5 0 5 q S 6X(.{.oX/.*.7X}.|.p.t.:XM e.8.0X5X0XqX",
"0X0X5X5Xe.E.#.R.p.*.!.:XOXa././.{./.$XN : & % & & = 0 d r N z V N N N < d d 5 & * % & % f (.6X_.7Xe.i.t.eX!.a.&.E.7.&.M ~.5X5X5X",
"5X5X<X<Xc w p.:XM s.h.%X$.E.t.,XR.`.^.f ; % ; < 5 g f f f , N V N N , < g d r 0 f % % % r D `.e.{././.m k.!.k.#.9.9.> e.E.:X5X5X",
"<X5X~.9.n w 9.y.#.k.y.!.%.s.XXuX/.`.C , ; ; ; % : = : & ; N N V V C N , % = : 0 : ; ; ; , B (.}.{.%Xa.s.-.}.k.t.y.p.&.n 7.<X5X0X",
"qX0X<X8.M 7.9.a.t.y.|.%.t.p. Xw./.`.D , - ; % X @ @ @ d S I K , z K I f g @ & O . % ; ; , Z K r.t.7XXXp.i OXk.a.#.a.t.> w 8.0X0X",
"5X5XW.7.w 9.9.&.y.h.}.%.E. X7Xs.Y.r.D v ; , % & & 0 g G r N N , , , V r q V & @ @ % ; , z N D {.s.wX Xp.*.k.y.k.#.a.&.n w E.~.0X",
"qX<XM M n &.t.y y.5.u.t.a. Xs.y.[.0.D N v , < < d g P f < I pXz.I pXI < f S g : < < , < V C K [.s.t. Xn.-.#.5.-.-.-.7.&.e e.~.>X",
"yXE.!.M &.*.*.-.-.y.%.y.S.s.n.s.[.D D N N N N f g S f f f f f G z.C f f f f P B g V f z N C F [.e.k.XX|.y.%.h.5.-.#.7.&.e M 7.qX",
"4XE.~.e #.*.$.-.5.3.-.3.|.b.s.%XQ.D D b C V D C C Z r : f f : = f 0 f f f f g Z V D V C C b F w.`.n.}.|.y.3.5.k.y.W *.#.m 7.7.XX",
"9.p.&.m m *.W 3.h.=.-.3.|. Xs.HXY.D Z b C C b b g t f r d q 4 6 h 4 q 0 f r g g b b B C b b D K 6X*.S.}.j.3.%.h.3.-.&.#.&.n &.9.",
"7.m c &.#.$.*.y.k.5.3.h.k.|.;.HXK G D v v N v t Z S C V L L P P d L S L V V G Z b v B B b b F 0.UX$Xi..XS.3.=.5.-.-.#.*.m c 7.9.",
"c c c &.&.#.-.%.h.W 5.j.n.2.S.UXr.F D v v N N t A B P S L P m.m.m.pXI I S I B A b r b N v C F 0.KXOXu.S.C.5.-.2.y.3.%.#.M &.c n ",
"> > *.&.*.9.-.h.2.=.5.D.D.j.i.GXVX0.K C b N B t r v N V L L d d = = L L V f v r b C N N N F K r.UXHX=.F.D.h.=.=.!.y.-.m m 6.> > ",
"- > &.e &.9.h.k.2.=.h.D..X! rXPXUXr.0.D N C v b b , r r Z P L P L L P S N r r v b b b b C K w.FXUXHX4.j..Xu.=.=.h.-.5.9.&.&.c - ",
"- c 6.m a.t.k.|.j.=.h..XC.2.S.UXUXvXc.0.D C D C b r r r r Z z.x.m.x.S g r r , r b D D b G r.$XUXUXLXj.u.G.j.5.! D.!.h.9.M M M > ",
"> M 6.m a.k.}.k.3.5.h.@XS.g.gXUXUXmX$Xb.w.D D D b x r r r 0 & 0 4 4 5 g t w v b C D F K z.dX6XUXUXDXN.E .XD.5.4.k.OXh.y.9.e 6.x ",
"> M n 7.h.!.OXk.4.5.j.@X-Xg.gXKXUXmX).dX^.w.K K b b r r 0 $ + 1 4 + & & 0 , v b J K K ^.6Xn.jXUXUXKXg.=.%XG.u.5.5.!.k.!.t.M 7.n ",
"n 7.n 9.!.|.OXk.5.j.D.-X.Xf.KXFXUXmX'.b._.6Xb.r.r.G B r 0 f * 5 5 q : r r b D r.r.c.$X6Xn.b.dXPXGXnX_ 2.@XD.k.4.h.|.|.h.E.&.#.n ",
"n 7.#.p.!.~.OX5.j.u..XeX.Xf.MXjXdXDX#Xb.r.b.`.$X(.^.K D Z g h h h h g B S K ^.(.`.oXb.b.b.b.mXDXSXHXQ G. X.Xk.3.h.|.XX!.!.&.&.c ",
"> 6.m h.!.|.!.k.-.h..X%XC.d.=XmXgXmX).v.b.q.c.b.`.`.`.`.c.z.x.x.x.z.z.b.^.`.'.`.b.x.q.q.x.b.DXrX8XNXQ 4.-X-Xk.3.k.k.}.}.!.7.e c ",
"w > *.!.OX!.h.k.%.k..Xk.;X2.C.jXVX@X8Xv.q.<.<.0.x.^.'.`.$XdXvXdXjXmXdX6X$X`.).b.q.q.<.<.b.n.8XlXfXkX_ .XrXrX-X5.k.k.E.!.a.-.w M ",
"m w 7.s.!.s.5.y.-.|.rX-X-X! C.hXfX;X@Xb.x.G <.,.<.r.^.oX$X6XdXdX8XdXdX$X`.).b.0.,.F :.w.x.&XC.jXhXgXg.j.|.rX.Xh.u.k.!.!.}.a.i &.",
"e #.t.a.}.s.u.-.|.S.fX*X.X_ C.fXfXkX2.1.q.,.F A F ,.q.q./.#X#X).n. X$X).b.r.<.A A F ,.q.q.G.=XfX&XG.=.4..XrX|.k.=.u.h.|.a.t.*.> ",
"e t.a.OXk.3.y.%.}..X-X.X+Xg.g.@X-X&XA..Xq.<.,.:.A ;.1.1.1.i.i.>.1.1.i.i.1.>.:.&.,.F <.<.v.N.kX;X=XD.g.N.G.*X|.|.s.*.5.!.OX!.*.m ",
"#.9.E.k.%.=.W k.k.-X@XD.A.g.g.A.A.L.gXM.:.<.<.F :.A :.;.>.>.;.~ ~ ;.>.;.;.;.:.;.A ,.q.<.l.A.C.H.Z.B.j.g.C.%X.Xk.|.W u.W a.}.p.#.",
"p.S.j.=.2.=.=.k..X-X*XG._ g.g.B.H.V.B.M.i.,.<.A :.:.:.;.;.;.~ k k W ;.;.;.;.:.A &.F <.>.M.=XH.M.g.g.C.B.C..XG.|.s.u.-.=.=.j.OXk.",
"k.k.d.) j.-.j.k.D.G.*XD._ j.Z.N.V.[ ( [ N.:.S :.:.,.;.>.;.~ k j k k ~ ;.~ ;.:.,.:.F :.1.[ K.o.V.M.g.C.B.g.Z.S.G.|.y.! W d.! j.s.",
"d.) / eX*.=.u.D.j.A.2.G.B.j.G.d.B.] M.[ M.:.G A :.:.A ;.~ ;.;.,.A A ;.k ~ ;.>.A l G ,.F.[ ' [ M.M.A.D.N.B.Z.A.Z.k.h.2.y.}.! _ 5.",
") -Xk.-.5.j.5.4.! ] d.+XM.D.Z.f.V.[ ' [ B.q.<.A $.;.~ k ;.;.:.C.F.>.$.:.;.k ;.;.:.<.A 2.B.] o.M._ N.D.d.f.u.Q / d.5.D.%.=.k.rX_ ",
"IXGXPX-Xj.OX=.Y Y ] D.H.D.G.j.B.H.V.] B.Z.v.A :.A :.:.;.:.A ;.b.n.>.A A :.>.:.A :.A 1.N.A.M.o.V.B.d.=XZ.( 7XY Y Y E .X|.k.a.UXHX",
"CX;Xk.j.+X.XU E Y _ -Xg.Z.;XZ.H.L.A.o.N.L.v.:.:.A ;.:.;.A s j ;.1.h s s A :.:.A A A 1.J.A.M.M.=XA.Z.G.G.g.G._ Y U E d.OX*Xj.-XkX",
"FXZ.j.+XvXj.=.) g.j.*Xj.;XB.K.H.L.V.V.F.&Xv.k A :.:.;.A j j A Z F p A A j ;.,.A A k 1.#X@XH.V.H.A.gXZ.sXZ..XG.f.g.2.! -X-X-Xj.NX",
"B.-XrXMX-Xg.j.Z.Z.+XH.B.Z.K.=X*XJ.A.A.J.NXv.k h j A k A s p s Z A p s p h k :.k A k 1.#X#XL.A.L.sX=XL.V.K.Z.kXN.Z.D.2.rXrX.XkXM.",
"lXG.;X+XG.G.G.*XG.gXG.L.*XsX;XK.A.A.=XL.aXn.j ^ l k j h s i p h A p a h h j k k A k 1.dXjX=XV.A.L.=XsX=XK.K..X-X-X|.|.G.+X-XG.;X",
"H.Z.Z.hXDXrXOXrXfX-X=XkXsXsX*X=XL.A.A.SXjXv.j k j ;.A j s p h A A s u h h A k k k k ;.aXFXF.L.L.sXG.=XsXgX=X;XfXrX+XrXgXkX.XD.H.",
"A.G.NXKXkXrXhXkXMXG.;XSX;X;XsX@XL.A.V.SXn.1.u u k k j h p p p a s p p p a h k k u u l F.aX#XV.J.=XkX=X;XzXMX*XkXMXkXrXNXSXNX;XZ.",
"IXLXIXKXKXkXCXMX=XA.LXgXfXgXgX;XJ.N.#X#Xv.k u u u q h p p q q p p q q a q h u u u q h 1.l.SXM.A.K.gXfXfXzXKXZ.*XfXfXfXSXKXIXIXLX"
};
