/* XPM */
static char *_5c3e4f40b2a4eace84ea529d40d2b16vbCz7wx5MzNoG744[] = {
/* columns rows colors chars-per-pixel */
"64 64 191 2 ",
"   c #020101",
".  c #0B0704",
"X  c #110D07",
"o  c #1A1511",
"O  c #251818",
"+  c #2D2900",
"@  c #312925",
"#  c #372C26",
"$  c #5C1D28",
"%  c #473A32",
"&  c #484300",
"*  c #635B12",
"=  c #55443A",
"-  c #7D2F4D",
";  c #584A44",
":  c #6C574A",
">  c #776357",
",  c #FF1F05",
"<  c #FF1E0C",
"1  c #FF1E11",
"2  c #FF2103",
"3  c #FF200C",
"4  c #F72E0F",
"5  c #F7320E",
"6  c #F9340C",
"7  c #F4390E",
"8  c #F72E10",
"9  c #F73311",
"0  c #F83311",
"q  c #FF1B26",
"w  c #FF1B2B",
"e  c #FF1C31",
"r  c #FE4302",
"t  c #FF6300",
"y  c #FC6F01",
"u  c #FF7200",
"i  c #FF7F00",
"p  c #FF1B45",
"a  c #FF1C49",
"s  c #FF1C55",
"d  c #FF1C5B",
"f  c #FF1E6F",
"g  c #FF1E74",
"h  c #FF1E79",
"j  c #F92074",
"k  c #9A5767",
"l  c #956B62",
"z  c #917867",
"x  c #04D402",
"c  c #0FD500",
"v  c #01D30C",
"b  c #13D500",
"n  c #39D700",
"m  c #35D800",
"M  c #39D900",
"N  c #00D423",
"B  c #00D528",
"V  c #00D535",
"C  c #00D539",
"Z  c #5DDC00",
"A  c #6EDE00",
"S  c #71DE00",
"D  c #7DDF00",
"F  c #7DE000",
"G  c #00D64A",
"H  c #00D84A",
"J  c #00D85D",
"K  c #00D860",
"L  c #00D97B",
"P  c #B49C34",
"I  c #FF8100",
"U  c #FF9700",
"Y  c #FE9B00",
"T  c #CCBE00",
"R  c #FFAC00",
"E  c #FFB600",
"W  c #FEBB00",
"Q  c #81DF01",
"!  c #81E000",
"~  c #8FE100",
"^  c #92E100",
"/  c #AFE400",
"(  c #B3E400",
")  c #FDC700",
"_  c #FDCA00",
"`  c #E2D200",
"'  c #F3DF00",
"]  c #F5DE00",
"[  c #EFDE1B",
"{  c #D4E600",
"}  c #D5E800",
"|  c #D8E800",
" . c #E5E600",
".. c #E8E700",
"X. c #E6E800",
"o. c #FBEB0F",
"O. c #FFF100",
"+. c #FFF200",
"@. c #9A8577",
"#. c #B18A74",
"$. c #FFE44E",
"%. c #0C16FF",
"&. c #0C18FE",
"*. c #1016FE",
"=. c #2613FF",
"-. c #2B13FF",
";. c #3C13FF",
":. c #0125FF",
">. c #012AFD",
",. c #0033FE",
"<. c #003FFE",
"1. c #4014FF",
"2. c #5515FF",
"3. c #5914FF",
"4. c #6F17FD",
"5. c #6E19FE",
"6. c #7117FF",
"7. c #7119FF",
"8. c #0042FE",
"9. c #0054FE",
"0. c #0058FF",
"q. c #006EFD",
"w. c #0071FD",
"e. c #007FFD",
"r. c #FF1F92",
"t. c #FF208F",
"y. c #FF2092",
"u. c #FF3796",
"i. c #FF21A6",
"p. c #FF21AA",
"a. c #FF23BF",
"s. c #EF6B9B",
"d. c #831BFF",
"f. c #951CFF",
"g. c #9A1DFF",
"h. c #AC1EFF",
"j. c #B21FFF",
"k. c #AC20F9",
"l. c #FF23C3",
"z. c #FF24D6",
"x. c #FF25D9",
"c. c #D01FFF",
"v. c #CF22FD",
"b. c #D221FF",
"n. c #FA26E7",
"m. c #FD25ED",
"M. c #EC24FE",
"N. c #F524FA",
"B. c #F925F9",
"V. c #00DC94",
"C. c #00DD9D",
"Z. c #00DEA6",
"A. c #00DDA9",
"S. c #0082FE",
"D. c #008FFD",
"F. c #0092FE",
"G. c #00ACFE",
"H. c #00DEC5",
"J. c #00DFC9",
"K. c #00DEDE",
"L. c #00E0C7",
"P. c #00E0DF",
"I. c #00DEE0",
"U. c #00DAED",
"Y. c #00C4FF",
"T. c #00CFF8",
"R. c #00D1F7",
"E. c #00D1F9",
"W. c #00E0E0",
"Q. c #AC9184",
"!. c #BBA291",
"~. c #C89A86",
"^. c #D4A88C",
"/. c #C4A998",
"(. c #E8B697",
"). c #F3BE9C",
"_. c #F794A5",
"`. c #D6B8A6",
"'. c #F4B3AF",
"]. c #EFCE9F",
"[. c #FAC6A4",
"{. c #FFCDAC",
"}. c #E9C9B5",
"|. c #F8CBB4",
" X c #FFD2B3",
".X c #FFD6BB",
"XX c #FEDABA",
"oX c #FFCDC2",
"OX c #F9D5C1",
"+X c #FFDDC6",
"@X c #FFDEC8",
/* pixels */
"9 9 7 7 5 9 9 5 5 4 6 5 4 4 4 8 8 8 8 4 4 5 0 6 0 6 7 0 9 9 9 0 7 0 0 0 0 0 0 9 5 8 8 4 5 8 8 4 4 4 5 8 4 5 5 6 5 6 0 0 9 6 9 9 ",
"7 7 6 6 5 5 5 6 6 6 6 6 5 6 4 5 5 0 5 6 6 6 6 7 6 6 6 6 9 r 7 0 0 0 0 r 7 0 6 0 6 4 5 6 6 5 5 6 6 6 6 5 6 4 6 6 6 6 6 5 6 6 6 6 ",
"r r 6 r r r r r r r r r r r r r r r r r r r r r r r r r + o.o.o.o.o.o.o.* r r r r r r r r r r r r r r r r r r r r r r r r r r r ",
"t t t t t t t t t t t t t t t t t t t t t t t t t t t X T +.+.+.+.+.+.+.` &   t t t t t t t t t t t t t t t t t t t t t t t t t ",
"y y y y y y y u u u u u u u u u u u u u u u u u u u . ` O.O.O.+.+.+.+.+.O.` + u u u u u u u u u i u u u u u u u u u y u u u u u ",
"I I I I I I i I I I I i I I i I i i i i I I I I I I X O.O.O.O.O.+.+.+.+.O.O.& I I I I i I I i I I I I I I I I i i I I i I I i I ",
"R Y Y Y Y Y Y U Y Y Y Y Y Y Y Y U U U Y Y Y Y Y R Y X O.o.XXXXXXXXXXXXXX$.+.& Y U Y Y Y Y Y Y U Y Y Y Y Y Y Y Y Y Y Y R Y U Y Y ",
"R R R R R R R R R R R R R R R R R R R R R E E R R R X o.XX@X+X+X+X+X@XXXXX$.& R R R R R R R R R R R R R E R R R R E R R R R R R ",
"W W W W W W W W E E W W E W E E W E W W W W W W W ) o [ @XoXoX@X+X@XOX+X+X$.& W E E W E W W W W W ) W W W ) W W ) W W W W W W W ",
"_ _ ) ) ) _ _ ) ) ) _ ) ) ) ) ) _ _ _ _ _ _ _ _ _ _ X +X@X`.$ k +X#.$ Q.+X+X% ] _ ) ) ) ) ) ) _ ) _ _ ) ) _ _ _ _ ) _ ) ) ) _ _ ",
"' ] ' ' ' ' ' ] ' ' ' ' ] ] ' ..' ' ] ' ] ] ] ] ] ] X @X@X'.- k @X~.- ~.@X+X= ..] ' ' ' ' ' ' ' ] ] ] ] ' ' ] ] ' ] ] ] ' ' ' ' ",
" . . . ...X. ...X.X.X.X.........X.X.X...X. ... . . .. @X@X@X@X@X@X@X@XoX@X@X% X.X.X.X.X.X.X............. ... .....X.X. .X.X.X.X.",
"{ { { { } } { } } } } } } | | | } { } } { { } { { { . /.@X@XOXoX'.oX+X+X+X`.@ } } } | } | } } } } } } { { { } { } } } } } } } } ",
"( ( ( ( ( ( ( ( ( ( / ( ( ( ( ( ( ( ( ( ( ( ( / / / / X !.@X@X'.i.s.@X@X/.% . / ( ( ( ( ( ( ( / ( ( ( / ( ( / / ( ( ( ( ( ( ( ( ",
"^ ^ ^ ^ ~ ~ ~ ~ ^ ~ ~ ~ ~ ^ ^ ^ ^ ^ ~ ^ ^ ^ ^ ~ ^ ^ ^ ^ o !.@X'.s._.@XXX* ~ ~ ~ ~ ~ ~ ^ ^ ~ ^ ~ ^ ^ ~ ~ ^ ^ ^ ^ ^ ^ ^ ^ ^ ~ ^ ^ ",
"Q ! F D D F F F F F F F F F F ! F F F F F F F F ! Q Q   F O !.XX@XoX{.o.* F F F D D F F D F F D D F D D ! ! Q ! ! ! F ! F F D D ",
"S S A A A A A A S S S A A A A F A A A A A A A A A A F A   F #  X{.{.$.o.T + A F A F S S S A A A A A A A A F A A A A A F A Z F A ",
"A Z Z Z Z Z Z Z Z Z A Z Z Z Z Z Z Z Z A Z Z Z Z Z Z Z Z X z #.{.{.{.].$.P + Z Z Z Z Z Z Z Z Z A Z Z Z Z Z Z Z Z Z Z Z Z Z Z Z Z ",
"m n n m m n m m m m M M m n n n m m M M n n n n m M   @.Q.XX{.{.{.{. X XQ.z @ m m M n n n n M M n n m M M n M M m m M m m m m m ",
"v b c c c c c c b b c b c b b b c b b b b b b c   Q.Q.@X+XOXXX{.{.{.|.@X@X@X!.Q.o b b b b b b b b b b b b b b b b c c c c c c c ",
"x x x x v x x x x x x x x x x x x x x x x x x   Q.@X@X+X@X+X+XXXXXXXXX@X@X+X+X@X/.o     x x x x x x x x x x x x x x x x x x x x ",
"v v v x v v v v v v v v v v v v v v v v     Q./.OX+X@X+X+X+X+X+X+X+X@X@X+X@X@X+X@X/.!.. v   v v v v v v v v v v v v v v v v v v ",
"N N N N N N N N N N N N N N B N N N B   @.`..X+X@X+X+X@X@X+X@X@X+X@X@X@X@X+X@X@X@X@X@X`./.. N N B B B B B N B N B N N N N N N N ",
"C V V V V C V V V V V V C C C C     z `.OX+X+X+X+X@X+X+X@X+X@X.X X+X@X@X@X@X@X@X@X@X@X@X+X}.!.    C C C C H C C V V V V V V V V ",
"G G G G G G G G G G G G G H     > }.+X@X+X+X+X+X+X{.{.{.+X+X@X.X X+X@X+X@X X{.XX+X+X+X+X+X+X+X}.Q.      H H H H H H G H G G H G ",
"K K K K J J J J J J J J K . : OX@X@X@X@X+X+X+X{.[.[.{.+X@X+X+XXX X@X+X+X+X+X X[.[.{.XX+X+X+X+X+X@XOX@..   J J J J J J J J K J J ",
"L L L L L L L L L L L   = @X+X+X+X+X+X+X+X{.).).X . OX+X+X+X+X.X X+X+X+X+X@X@X#   ^.[.{.{.OX+X+X@X@X+X@Xz   L L L L L L L L L L ",
"V.V.V.V.V.V.V.V.V.V.V.# +X+X+X+XXX+X X).(.(.O   V.. oX@X+X+X+X.X X+X+X+X@X@X+X# V.    ^.(.(.{.+X+X+X@X@X@X> V.V.C.V.V.V.V.V.V.V.",
"A.A.A.A.A.A.Z.Z.A.A.Z.# +XOXXX X(.^.^.%   A.A.A.Z.  s.|..XXX.X.X.X X+XXXXX+Xs.O Z.Z.C.  Z.o ^.^.(.{.XXXX+X> Z.Z.A.A.A.A.Z.Z.Z.Z.",
"J.J.J.A.J.J.H.H.H.H.H.@ /.~.~.~.; H.  H.H.J.J.L.H.J.X ~.[.{. X+X+X.X{.{.{.^.# H.H.H.H.H.H.J.A.H.@ ~.~.~.~.; J.H.L.L.H.L.H.H.L.L.",
"I.K.K.K.I.K.K.K.K.I.K.I.K.K.K.K.P.K.K.K.P.W.P.P.K.K.K.o  X X@X+X+X+X.X X{.=   K.W.W.I.I.I.I.K.K.  P.P.P.K.  I.P.W.W.W.W.K.I.W.P.",
"R.U.U.U.R.U.U.U.U.U.U.U.U.U.U.U.U.U.U.U.U.U.U.U.U.U.U.o @X+X+X@X+X+X+X@X+X; U.U.R.U.U.U.U.U.U.U.U.U.U.I.U.U.U.U.U.U.U.U.U.U.U.U.",
"R.E.R.R.T.T.T.R.E.E.R.E.E.E.E.E.E.E.E.T.T.T.T.E.T.E.E.o @X@X@X@X+X+X+X+X@X; T.E.E.E.E.E.E.E.E.E.E.E.T.T.E.R.T.T.T.E.E.E.E.E.E.E.",
"Y.Y.Y.Y.Y.Y.Y.Y.Y.Y.Y.Y.Y.Y.Y.Y.Y.Y.Y.Y.Y.Y.Y.Y.Y.Y.Y.o @X@X@X@X+X+X@X+X+X; Y.Y.Y.Y.Y.Y.Y.Y.Y.Y.Y.Y.Y.Y.Y.T.Y.Y.Y.Y.Y.Y.Y.Y.Y.Y.",
"G.G.G.G.G.G.G.G.G.G.G.G.G.G.G.G.G.G.G.G.G.G.G.G.G.G.  l @X@X@X@X+X+X@X@X@X#.O G.G.G.G.G.G.G.G.G.G.G.G.G.G.G.G.G.G.G.G.G.G.G.G.G.",
"F.F.F.F.D.D.F.F.F.F.F.F.F.F.F.D.D.D.D.D.D.D.F.F.F.F.X  X@X@X@X@X+X@X+X+X@X X%   D.F.F.D.F.D.D.D.D.D.D.D.F.F.F.F.F.F.F.F.F.F.D.D.",
"S.S.S.S.S.S.S.S.S.S.e.S.S.S.S.S.e.S.e.S.S.S.S.S.S.  Q.XX+X@X'.k k k /.+X@XXX!.O S.S.S.S.e.S.e.S.e.S.S.S.S.S.S.S.S.S.S.S.S.S.S.S.",
"w.w.w.e.w.q.w.w.w.w.w.w.w.w.w.w.w.w.w.q.w.w.w.w.w.. OX@X+X+X}.z $ k '.+X@X@X@X# w.q.q.w.w.w.w.q.q.w.w.w.w.w.q.q.w.w.w.q.w.w.w.w.",
"9.9.9.9.9.9.9.9.9.9.9.9.9.9.9.9.9.9.9.9.0.0.0.9.  !.@X@X+X+X@X'.u._.+X+X@X@X@X`.o 9.9.9.9.9.9.9.9.9.0.0.9.0.9.0.9.9.9.9.9.9.9.9.",
"<.<.8.8.<.<.<.8.8.<.8.8.8.8.8.8.8.8.8.8.8.8.8.8.  .X@X+X+X+X+X_.u.s.XX@X@X@X@X@X@ 8.<.8.8.8.8.8.8.8.8.8.8.8.8.8.8.8.<.<.8.8.<.<.",
",.,.>.>.>.,.,.,.,.,.,.,.,.,.,.,.,.,.,.,.,.,.,.,.. OX@X+X@X+X.X#.o k  X+X+X@X+X+X@ ,.,.,.,.,.,.,.,.,.,.,.,.,.,.,.,.,.,.,.,.,.,.>.",
">.>.>.>.>.>.>.>.>.>.>.>.:.>.>.:.:.:.:.:.:.:.:.  `.@X@X+X@XXX{.#.  : [.XX+X@X@X+X}.o >.>.:.:.:.:.:.:.&.:.:.:.:.,.:.>.:.:.:.:.:.>.",
"*.*.*.*.*.*.*.*.*.*.*.:.%.&.&.&.%.&.&.%.%.&.%.  }.@X+X+X@X.X~.  *.  l |.+X@X+X@X+XO %.%.%.&.%.%.%.%.%.%.%.%.&.&.%.%.%.%.*.%.*.*.",
"-.-.-.-.-.;.-.-.-.-.-.-.-.=.=.=.=.=.=.=.=.=.  `.+X+X+X+X+X[.#.  -.-.> ].XX@X+X+X+XOXX =.=.=.=.=.=.=.=.=.=.=.-.-.=.-.-.-.-.;.-.-.",
";.;.1.1.;.1.1.;.;.;.1.;.;.;.;.;.;.;.;.;.;.;.  `.+X+X@X+X.X~.  1.1.1.  l  X+X+X@X+X@Xo ;.;.;.;.;.;.-.;.;.;.;.;.;.;.;.1.1.;.1.1.1.",
"2.2.3.3.3.3.3.3.2.2.2.2.2.2.2.2.2.2.3.3.2.2.o }.+X+X+X+X[.#.3.3.3.3.3.> ).XX+X@X+X+X@   2.2.2.2.2.2.2.2.3.3.2.2.2.2.2.3.3.3.2.2.",
"4.4.4.6.4.4.4.4.7.7.7.7.7.7.7.7.7.7.7.7.5.  `.@X+X+X+XXX^.  7.7.7.7.7.  z  XXX+X@X@X+X. 4.6.7.7.7.7.5.5.7.7.7.7.4.4.4.4.4.4.4.4.",
"d.d.d.d.d.d.d.d.d.d.d.d.7.d.d.d.d.d.d.d.6.@ }.@X+X+X+X[.z d.6.d.d.d.d.d.: ).XX@X+X+X+X%   d.d.d.d.d.d.6.d.d.d.d.d.d.d.d.d.d.d.d.",
"f.f.f.f.f.f.f.f.f.f.d.f.f.f.f.f.f.f.f.g.f./.+X@X+X+X.X(.  g.f.f.f.f.f.f.  #. X+X@X@X@XOX  f.f.f.f.f.f.g.g.h.f.f.g.f.g.f.f.f.f.f.",
"k.k.h.k.h.h.h.h.h.h.h.h.h.h.h.h.h.h.h.h.h./.+X@X@X+X[.l   h.h.h.h.h.h.h.h.: (.XX@X@X@XOX  j.j.h.j.h.h.j.j.j.j.j.j.h.j.h.h.h.h.h.",
"v.v.v.v.b.b.c.c.v.v.v.v.v.c.v.c.b.c.b.v.= }.OX+X+X.X).  b.b.c.b.v.v.v.c.v.v.#. X+X+X@X@X:   v.b.b.c.b.v.c.b.b.b.b.b.b.b.b.b.v.v.",
"n.M.N.N.M.M.M.M.M.M.M.M.M.M.M.M.M.M.M.  Q.@X@X@X+X[.>   N.M.M.N.M.M.M.M.M.M.= (.XX+X@X@X}.  M.M.M.M.M.M.M.M.M.M.N.M.N.M.M.M.M.M.",
"N.N.M.N.N.B.N.N.N.N.N.N.M.N.N.N.N.N.N.; `.+X+X+X X[.  N.B.B.B.B.N.N.B.N.N.N.N.~. X+X@X+XOX>   N.N.N.B.N.N.N.N.N.B.B.B.B.B.B.B.B.",
"n.n.m.n.m.m.m.m.m.m.n.n.m.m.m.m.m.n.n.Q.@X+X+X+X{.:   m.m.m.m.m.m.m.m.m.m.m.m.= (.+X+X+X@X}.m.m.m.m.m.m.m.B.B.m.m.m.m.m.m.m.m.m.",
"z.z.z.z.x.n.x.x.x.z.z.z.z.z.z.z.z.z.  Q.@X@X+X X[..   z.z.x.z.z.x.x.n.z.z.z.z.  ^. X+X+X@X`.  z.x.z.z.z.x.x.x.x.x.x.x.z.x.x.x.x.",
"a.a.a.l.l.l.l.l.l.l.a.a.a.a.a.a.a.l.> }.@X@X+X{.=   l.l.l.l.l.l.l.l.l.l.l.l.a.a.# ).XX@X@X.X@.l.l.l.l.l.l.l.l.l.l.l.l.l.l.l.l.l.",
"i.p.p.p.p.i.i.i.i.i.p.i.i.i.i.i.p.  @.@X@X@X{.{.X p.p.p.p.p.p.p.p.p.p.i.i.i.i.i.  (.{.+X+X+X`.p.i.i.i.p.p.p.p.p.p.i.p.p.p.p.p.i.",
"t.y.y.y.y.y.t.y.r.r.r.r.t.t.t.t.r.> }.@X+X+X{.%   r.r.r.y.r.r.r.r.r.y.y.t.r.y.t.t.O ).+X+X+XXXQ.t.t.r.r.y.r.y.r.y.y.y.y.r.y.r.y.",
"j j g g g g g h h h h h h g g g g z +X+X+X X{.o g g g g g g h g h h g h h h h h t.  ).{.+X+X+X/.g g f f h g f f g g g h g h g g ",
"s d s d d d d d s d d d d s s s s z +X+X X[.#   s s s s s s d d d d d d d d d d d d X ).{.{.+X!.s s s s s s s s s s s s s d d d ",
"a p a a p a a p p p a p a p p p p   z [.).%   p p p p p p p p a a a a p a a a p p p p . [.[.^.. p a p p p p p p p p p a a a a a ",
"w w w w w q w w q q q q w q q q w     .     e e w w w w w q w w w w w w w q q q q w q q       w w w e e e w w w w w w w w w w w ",
"4 3 4 < , < 3 < 3 3 < < < < < < < < 1 < 1 1 < 1 3 < < < 3 3 3 < < < < < < < 3 3 < < < < < < < < 1 1 3 1 < < 3 3 < 3 3 3 < < < < ",
"2 2 , 2 , , 2 , 2 2 2 2 3 < < 2 , , , < 2 < , < , 2 2 2 2 2 2 2 2 , , 2 , 2 2 2 , < < < , < < 2 , 2 < 3 2 2 2 2 2 2 2 2 2 2 , 2 "
};
