/* XPM */
static char *lbisson_de_noel64_641653230468[] = {
/* columns rows colors chars-per-pixel */
"64 64 239 2 ",
"   c #000000",
".  c #000014",
"X  c #00001B",
"o  c #000027",
"O  c #00012C",
"+  c #000135",
"@  c #030B36",
"#  c #00023F",
"$  c #061B37",
"%  c #000143",
"&  c #01024D",
"*  c #060C4D",
"=  c #081547",
"-  c #010153",
";  c #00025D",
":  c #110A52",
">  c #0B175A",
",  c #000362",
"<  c #01036D",
"1  c #000371",
"2  c #000974",
"3  c #0B0A75",
"4  c #00037B",
"5  c #05167A",
"6  c #152C7C",
"7  c #223573",
"8  c red",
"9  c #010687",
"0  c #01068E",
"q  c #09148B",
"w  c #020998",
"e  c #07199D",
"r  c #15179D",
"t  c #162587",
"y  c #142296",
"u  c #132E94",
"i  c #253696",
"p  c #030BA8",
"a  c #0214A4",
"s  c #0719A8",
"d  c #000EB8",
"f  c #0617B4",
"g  c #1117BE",
"h  c #0A22A9",
"j  c #1A26A9",
"k  c #0D29B8",
"l  c #1A29BD",
"z  c #1A3CB6",
"x  c #2932B8",
"c  c #2E4499",
"v  c #1A43BE",
"b  c #2A53A9",
"n  c #2E4CB7",
"m  c #425DB6",
"M  c #466DA7",
"N  c #041AC5",
"B  c #041CD3",
"V  c #3517C7",
"C  c #0924C6",
"Z  c #1624C5",
"A  c #0A34CB",
"S  c #1339C9",
"D  c #0A26D4",
"F  c #122AD3",
"G  c #0E34D8",
"H  c #1338DA",
"J  c #2F37CE",
"K  c #252AD5",
"L  c #2437D8",
"P  c #0729E7",
"I  c #0C33E4",
"U  c #113BE6",
"Y  c #1039F1",
"T  c #5336E7",
"R  c #6537EF",
"E  c #1742CE",
"W  c #1C42D6",
"Q  c #1642DC",
"!  c #2C4ACB",
"~  c #2848DA",
"^  c #2657D9",
"/  c #2D67D9",
"(  c #366CD4",
")  c #1B44E5",
"_  c #1A46E9",
"`  c #1C51E9",
"'  c #0D44F2",
"]  c #1343F3",
"[  c #1A56F7",
"{  c #2546E8",
"}  c #2854E3",
"|  c #2557E9",
" . c #3656E7",
".. c #304BF0",
"X. c #2959F3",
"o. c #2A66E6",
"O. c #3469EA",
"+. c #2C70EF",
"@. c #3978EA",
"#. c #2967F5",
"$. c #3669F7",
"%. c #2C77F8",
"&. c #3678F4",
"*. c #4B4AD5",
"=. c #4C6ED3",
"-. c #657FD4",
";. c #4744E7",
":. c #4F4FEC",
">. c #4B5DF4",
",. c #555EF2",
"<. c #6B4AF1",
"1. c #4477EA",
"2. c #4B69F4",
"3. c #5868F6",
"4. c #4D76F0",
"5. c #5974F7",
"6. c #6669F6",
"7. c #6D70F5",
"8. c #6876F8",
"9. c #7678F6",
"0. c #9C58F7",
"q. c #897DF7",
"w. c #9473FA",
"e. c #A871FD",
"r. c #C86EFE",
"t. c #3B8AF4",
"y. c #3987F9",
"u. c #3C8BFC",
"i. c #37AAFD",
"p. c #4A88D6",
"a. c #5785DA",
"s. c #699CD4",
"d. c #4487EB",
"f. c #528DEB",
"g. c #4D93EE",
"h. c #5699E8",
"j. c #4785F4",
"k. c #438CF3",
"l. c #4799F9",
"z. c #549BF7",
"x. c #6591E9",
"c. c #6983F9",
"v. c #7586FA",
"b. c #7D8BFC",
"n. c #7896FC",
"m. c #4AA0FC",
"M. c #54A3F3",
"N. c #5BA7F5",
"B. c #53AAFD",
"V. c #48B9FD",
"C. c #59B6FA",
"Z. c #65A2E8",
"A. c #71ABE7",
"S. c #6AB4E7",
"D. c #63ABF6",
"F. c #69B9F7",
"G. c #64B7F9",
"H. c #73B8F6",
"J. c #5BC4FE",
"K. c #51D4FD",
"L. c #6AC7E8",
"P. c #79C5ED",
"I. c #68C8FB",
"U. c #7DC6F5",
"Y. c #72C9F9",
"T. c #68D7FD",
"R. c #7AD5FB",
"E. c #73D9FD",
"W. c #72E2FE",
"Q. c #7AE8FD",
"!. c #7FFFFD",
"~. c #8786FA",
"^. c #928DFC",
"/. c #9B89FD",
"(. c #879AFD",
"). c #979AFD",
"_. c #A28AFD",
"`. c #A69BFC",
"'. c #B598FD",
"]. c #9BA8FD",
"[. c #86B2F2",
"{. c #A6A9FD",
"}. c #B6A9FD",
"|. c #A8B6FE",
" X c #B8B5FD",
".X c #CE92FD",
"XX c #E09CFD",
"oX c #C5ACFC",
"OX c #C7BAFD",
"+X c #D7BBFD",
"@X c #A0CFD8",
"#X c #84CBF3",
"$X c #92CDF6",
"%X c #88D7F4",
"&X c #ABC6FD",
"*X c #BAC8FD",
"=X c #84E4FD",
"-X c #8CE3FC",
";X c #8AEBFB",
":X c #99E5F5",
">X c #97E8F8",
",X c #8AF5FE",
"<X c #84FAFD",
"1X c #8AFBFE",
"2X c #9CF5FD",
"3X c #93FEFE",
"4X c #9BFEFD",
"5X c #A0EFF7",
"6X c #A8FCF7",
"7X c #A4FFFD",
"8X c #AAFFFD",
"9X c #B2FFFD",
"0X c #BAFFFD",
"qX c #C7C8FD",
"wX c #D7CBFD",
"eX c #CAD8FD",
"rX c #D5D7FD",
"tX c #D9D9FD",
"yX c #E0CFFD",
"uX c #E7D8FD",
"iX c #FFD6FD",
"pX c #CFE0FD",
"aX c #D9E4FD",
"sX c #C3FFFD",
"dX c #CCFFFD",
"fX c #D4FFFD",
"gX c #D9FFFD",
"hX c #E5E2FD",
"jX c #E8E7FD",
"kX c #EDEDFD",
"lX c #F5E4FD",
"zX c #FAE3FD",
"xX c #FEECFD",
"cX c #EFF5FD",
"vX c #E1FFFD",
"bX c #EDFEFD",
"nX c #FFF5FD",
"mX c #F5FFFD",
"MX c #FFFFFD",
/* pixels */
"MXMXMXMXMXMXMXMXMXMXMXMXMXMXMXMXMXMXMXMXMXMXM y u   8 8 8 8 8 8 8 8 8 8 8 8 8 8 8 8 8 8 8 8 8 8 8 8 8     MXMXMXMXMXMXMXMXMXMXMX",
"MXMXMXMXMXMXMXMXMXMXMXMXMXMXMXMXMXMXMXMXMXMXc u     8 8 8 8 8 8 8 8 8 8 8 8 8 8 8 8 8 8 8 8 8 8 8 8 8         MXMXMXMXMXMXMXMXMX",
"MXMXMXMXMXMXMXMXMXMXMXMXMXMXMXMXMXMXMXMXMX@Xk   8 8 8 8 8 8 8 8 8 8 8 8 8 8 8 8 8 8 8 8 8 8 8 8 8 8 8 8 8     MXMXMXMXMXMXMXMXMX",
"MXMXMXMXMXMXMXMXMXMXMXMXH.H.>X0X8X7X=XD.( ! MX  8 8 8 8 8 8 8 8 8 8 8 8 8 8 8 8 8 8 8 8 8 8 8 8 8 8 8 8 8 8 8   MXMXMXMXMXMXMXMX",
"MXMXMXMXMXMXMXMXMXMXMXMXl.z.E.4X7X1XE.M.( MX    8 8 8 8 8 8 8 8 8 8 8 8 8 8 8 8 8 8 8 8 8 8 8 8 8 8 8 8 8 8 8     MXMXMXMXMXMXMX",
"MXMXMXMXMXMXMXMXMXMXMXMXV.g.Q.4X9X7X,XG.(     8 8 8 8 8 8 8 8 8 8 8 8 8 8 8 8 8 8 8 8 8 8 8 8 8 8 8 8 8 8 8 8 8 8   MXMXMXMXMXMX",
"MXMXMXMXMXMXMXMXMXMXMXMXC.z.,X8XsX8X1XY.MX    8 8 8 8 8 8 8 8 8 8 8 8 8 8 8 8 8 8 8 8 8 8 8 8 8 8 8 8 8 8 8 8 8 8     MXMXMXMXMX",
"MXMXMXMXMXMXMXMXMXMXMXMXT.M.1X8XdX0X4XMX  8 8 8 8 8 8 8 8 8 8 8 8 8 8 8 8 8 8 8 8 8 8 8 8 8 8 8 8 8 8 8 8 8 8 8 8 8   MXMXMXMXMX",
"MXMXMXMXMXMXMXMXMXMXnXmXB.B.1X0XfXsX4X    8 8 8 8 8 8 8 8 8 8 8 8 8 8 8 8 8 8 8 8 8 8 8 8 8 8 8 8 8 8 8 8 8 8 8 8 8     MXMXMXMX",
"MXMXMXMXMXMXMXMXMXMXmX!./ N.3X0XfX0X      8 8 8 8 8 8 8 8 8 8 8 8 8 8 8 8 8 8 8 8 8 8 8 8 8 8 8 8 8 8 8 8 8 8 8 8 8     MXMXMXMX",
"t.g.N.N.F.F.I.%X=X2XE./ ( N.1X0XfXsX  8 8 8 8 8 8 8 8 8 8 8 8 8 8 8 8 8 8 8 8 8 8 8 8 8 8 8 8 8 8 8 8 8 8 8 8 8 8 8     F.D.N.l.",
"E.1X7X8X8X8X8X8X7X7X%Xh.p.N.1X0XfX    8 8 8 8 8 8 8 8 8 8 8 8 8 8 8 8 8 8 8 8 8 8 8 8 8 8 8 8 8 8 8 8 8 8 8 8 8 8 8     8X6X6X1X",
"7XsXvXbXbXbXbXmXmXmXsX%XZ.N.,X0X      8 8 8 8 8 8 8 8 8 8 8 8 8 8 8 8 8 8 8 8 8 8 8 8 8 8 8 8 8 8 8       8 8 8 8 8     bXbXgXdX",
"sXbXMXMXMXMXMXMXMXMXmX8XL.M.;X0X      8 8 8 8 8 8 8 8 8 8 8 8 8 8 8 8 8 8 8 8 8 8 8 8 8 8 8 8 8 8 8 ;XM.MX8 8 8 8 8     MXMXMXbX",
"fXmXMXMXMXMXMXMXMXMXMXsXH.M.,X0X                                                                  0X,Xz.H.0X  8 8       MXMXMXmX",
"fXMXMXMXMXMXMXMXMXMXMX0XP.M.,XsX                                                                  0X,XM.P.sX  8 8     MXMXMXMXMX",
"fXMXMXMXMXMXMXMXMXMXMXsXH.M.1X  MXMXMXMXMXMXMXMXMXMXMXMXMXMXMXMXMXMXMXMXMXMXMXMXMXMXMXMXMXMXMXMX  sX1XM.H.sXMX8 8   MXMXMXMXMXMX",
"fXmXMXMXMXMXMXMXMXMXMX0XH.C.    MXMXMXMXMXMXMXMXMXMXMXMXMXMXMXMXMXMXMXMXMXMXMXMXMXMXMXMXMXMXMXMX  0X3XN.H.0XMX    MXMXMXMXMXMXmX",
"gXmXMXMXMXMXMXMXMXMXMX0XU.I.    MXMXMXMXMXMXMXMXMXMXMXMXMXMXMXMXMXMXMXMXMXMXMXMXMXMXMXMXMXMXMXMX  dX4XI.Y.sXMX  MXMXMXMXMXMXMXmX",
"gXMXMXMXMXMXMXMXMXMXMXsX#XC.4X0XsX>                                                         y   sXsX4XC.#XsXMX    MXMXMXMXMXMXMX",
"gXMXMXMXMXMXMXMXMXMXMX0XU.G.8X6X[.@ ; 2 0 %  .|.tXkXmXMXMXkXtXhXwXuXtXkXMXMXcXkXtX|...% 9 2 ; @ [.6X6XG.U.0XMX      MXMXMXMXMXMX",
"vXMXMXMXMXMXMXMXMXMXMXsXU.F.4XdXc * O ; < + 2. XjXmXnXMXMXbXjXhXuXhXjXvXMXMXMXmXhX*X>.O 2 ; O * c dX4XF.#XsX  MXMXMX  MXMXMXMXMX",
"gXMXMXMXMXMXMXMXMXMXMX0XU.I.6X0X  *.n < -   c.qXjXkXMXmXjXpXuXuXuXuXuXaXjXbXMXkXjXqXc.  - < x =.  0X6XI.U.0X  MXMXMX  MXMXMXMXMX",
"gXMXMXMXMXMXMXMXMXMXMX0XU.I.4X[.> = + s +   9.eX*XrX*XqXOXqXtXyXwXyXrXqXOXqX*XtX*XeX9.  + e + = > [.4XI.U.0X  MXMXMX  MXMXMXMXMX",
"gXMXMXMXMXMXMXMXMXMXMX0XU.Q.0X7 $ t * !     ~.;.J Z p Z ..^. XOX+XOX X^...Z p V J ;.~.    ~ % t = 7 0XQ.U.0XMX        MXMXMXMXMX",
"gXMXMXMXMXMXMXMXMXMXMX0XU.R.sXc a.t y Z     j q p f g w w T _.OXwXOX).T 0 w g d p q y     x r t a.i sXR.U.0XMXMX    MXMXMXMXMXMX",
"gXMXMXMXMXMXMXMXMXMXMX0XU.%Xs.= m j t j   o K ].(.~.7.6.6.,.6.{.rX{.6.,.3.6.8.~.(.].K o   j q j m = s.%XU.0XMXMXMXMXMXMXMXMXMXMX",
"gXMXMXMXMXMXMXMXMXMXMX0XP.dXm t i t x r   o 3.8.K K w ,.,.~.,./.uX^.3.~.,.,.w F K 7.5.o   y x u i t m dXU.0XMXMXMXMXMXMXMXMXMXMX",
"gXMXMXMXMXMXMXMXMXMXMX0X#X#Xi A.=.n i j   - L < 0 $.4 - 4.;.8.9.MX9.8.;.5.; 4 $.0 < L -   j i n =.Z.i $X#X0XmXMXMXMXMXMXMXMXMXMX",
"gXMXMXMXMXMXMXMXMXMXMX9X9Xs.7 a.n ! -.! % r ; % ;.I.: r $X6.$X}.MX}.[.9.$Xr : T.:.& ; r & J -.! n -.7 s.0X9XMXMXMXMXMXMXMXMXMXMX",
"vXMXMXMXMXMXMXMXMXMXMX0X6XM m a.=.5.1.j o J ,.2.5...v.b.).[.5.+XMX+X5.[.(.~.b...4.2.,.J o j 4.a.=.a.=.M 6X0XMXMXMXMXMXMXMXMXMXMX",
"vXMXMXMXMXMXMXMXMXMXMXsX:Xb $Xm =.=.Z.; + ;.].&X|.].].).).].^.uXMXuX^.].).).).{.|.&X].;.+ ; Z.=.=.m #Xc :XsXMXMXMXMXMXMXMXMXMXMX",
"vXMXMXMXMXMXMXMXMXMXmXdX:Xp.#XA.[.z 1.3 * 6.aXaXpXeX&X&X$X`.oXxXMXxXoX`.&X&X&XeXpXaXaX6.* < 1.z [.A.[.p.:XsXmXMXMXMXMXMXMXMXMXMX",
"vXMXMXMXMXMXMXMXMXMXmX0X$X$X=.M.z.A.~   r (.hXmXmXcXtXtXOX'.oXxXnXzXoX'.OXrXtXcXnXmXjX(.r   ~ H.h.z.=.:X$X0XmXMXMXMXMXMXMXMXMXMX",
"8XdXvXmXmXmXMXmXmXmXvX0XZ.P.A.D.g.Y.s   x |.kXnXnXxXzXuXwXoXwXMXiXMXwXoXwXuXlXcXnXnXkX|.x   r Y.d.D.A.P.Z.9XvXmXmXmXMXmXmXbXvXdX",
"E.;X7X9X0X0XsX0X0XfXsX-X-Xa.%X%X3XO.    x {.lXxXxXxXlXzXuXw.xXMXiXnXnXq.uXzXlXxXxXxXkX].x     $.3X-X$Xp.:X-XsXfX0X0XsX0X0X9X8X;X",
"&.@.p.f.z.N.C.G.I.,X0X>XD.%XU.g.=X<   . r ].hXnXnXuXlXwXe.+XzXlXuXlXzX+Xw.+XzXlXnXnXuX{.r X   < =Xg.#X%XC.>X0X;XI.C.G.N.g.f.p.1.",
"%.Y q 5 s ` y.V.T.<X4X4XD.%XG.E.W q   # 0 ).rXyXzXuX+X'.;.wXq..XoX.Xq.wX:.'.+XuXzXyXrX).w +   q W T.F.%XN.4X4X,XT.V.y.` h 5 q Y ",
"i.[ 2 @ * X.V.!.3X8X0X,X>XR.4X1.k &     a ~.}. XoX+X'.w.6.T 3 :.<.:.3 T 6./.'.+XOXoX{.~.e     & l 1.4XR.>X,X0X7X1X!.V.[ * @ 2 [ ",
"V.%.6 > = +.K.!.7X0X0XT.-X=XT.W h #     j 9.^./.'.}.'._./.`.9.<.;.<.9.`.w.e.'.}.`./.^.9.l     + h E I.;X=XE.0X0X7X!.K.+.= > 6 y.",
"K.t.b b b ( T.1XsXdX8X,X3XE.t.W C .   X   7.5.~.^./.q._.oXqX{.}./.}.{.qXoX/.~._.^.q.3.7.  X   X Z W t.R.3X,X8XdXsX1XT.( b b b k.",
"G.h.p.p.p.h.F.<X0XsX3X4X3Xl.m.H C         J 5.7.v.~.~.).OXwXqXoX`.}.*XwXOX).~.q.v.8.8.J         C H l.i.4X4X3XsX0X<XF.h.p.p.p.h.",
"S.L.S.S.P.P.L.dXfXdX7X7X=XI.B.I C     #   q (.8.v.^.b.6.^._.e.e.r.e.e._.^.6.b.^.v.8.n.q   #     C G B.I.=X7X7XfXdXdXL.P.P.S.S.S.",
"P.P.P.#X%X%X2XfXdX0X7X7XW.T.y.G a     o     n.v.c. X}.:.V T R <.0.<.R T V :.|. Xc.v.(.    o     a G y.T.E.7X7X0XdXfX2X%X%X#XP.U.",
"#X%X%X-X:X>XsXfX0X3X0X,Xm.W.y._ f           c.].v.(.*X X9.0.r.XX.XXXr.0.9.*X*X(.v.].c.          f _ y.T.m.<X0X3X9XgXsX:X>X%X%X%X",
"%X%X%X:X:X>XgX9X7X4X8XW.W.I.%.| G %   #       (.v.v.].|.{.w.0.r.r.r.0.w.{.{.].9.x.(.      #   % G [ %.I.Q.W.7X4X6X6XvX5X>X:X%X%X",
"%X%X:X:X:XsXsX4X4X7X3XV.<Xi.t.[ H @ ; 1       c.n.n.n.). X{.6.<.T R 6.{. X).~.n.n.c.      < ; + Q [ t.l.<XB.3X6X4X4X0XdX:X:X:X%X",
"@X:X6X6X5XdX3X=XQ.7X<Xu.J.k.%.%.Q 9 2 9 0     G c.c.8.c.|.*X{.{.oX`. X*X&Xc.8.x.v.I     0 9 2 0 Q %.%.u.K.t.<X7XW.;X3XdX5X6X6X:X",
"6XdXbXgXdX0X1XC.7X3XT.l.l.C.l.B.H C G f p - o A & 2.c.5.(.{.rXeXwXeXrX].(.5.c.2.& A o - p f F D Q B.l.C.l.l.T.3X7XC.1X0XdXgXbXfX",
"vXMXMXMXdX2XI.<X7X<XJ.l.u.m.G.u.} A U I , Y       + >.2.2.].qXtXqXtXqX].3.3.2.+       Y ; I U F Q u.I.m.y.l.J.1X4X1XI.2XdXMXMXMX",
"MXMXMXMX4XY.C.<X1XW.B.y.Y.t.T.z.H D ] ] P d         L ~  .6.).}.}.{.).7. .~ L         d P ] ] D Q z.T.@.R.y.V.W.1X,XB.Y.2XMXMXMX",
"MXMXMXgX%XI.1XT.T.B.t.#.F.M.u.y.G %._ w [ N 1 # X     { k J 3.q.^.b.2.L g {     . # 1 N [ w ] %.A y.u.z.F.#.y.B.T.T.3XI.-XfXMXMX",
"MXMXMXfXY.E.3XI.V.t.#.o.1.t.l.) G #.' N Y P I % % X   k ..L l ~ 3. .l K X.g   X % % Y P Y N ' #.G { l.&.d.#.+.u.C.I.4XE.Y.fXMXMX",
"vXMXMXgXL.3XI.l.t.t.[ &.l.#.l.a Q #.[ C [ B P # 0 9     { X...L l K ~ X.{     9 0 # P B [ C [ #.Q a u.#.z.+.` y.t.t.I.3XL.fXMXMX",
"$ 0XMXdX;XR.M.k.@.o.#.S @.%.` 4 ^ [ #.N [ Y B p D a     -  .2.X.{ X.2...&     a D p B Y ` C #.[ ^ 2 | %.@.S o.` y.t.B.E.;XdXmX0X",
"o a.-X4X=XB.t.@.+._ { C.+.%.1.e &.' ] f U P N 0 U s & . % K 2.5.2.5.3.K % . & f G 0 d P U f ] Y &.e t.+.+.C.| ) +.@.k.N.=X4X%Xx.",
"y   i 3XF.t.o.#.` y.+.d.t.&./ / ` X.p _ G D d w I N 4 ; & ;.6.b.n.n.6.;.% ; 4 N G p p D I ] a [ } o.^ t.@.d.%.j.` o.o.t.F.3Xu   ",
", 5 / 6XD.t.@.k.u.) d.^ ^ @.S G Q Q Q { D D B w G ) C & 1 , 6.b.].b.6.; 4 % C ) G w B B D { ^ Q Q E S @.^ ^ d.) u.t.&.k.D.6X( 5 ",
"= 5 Y.3Xd.,XfX8X' | e @.+.k h k @.C F ^ H N B ] G ' _ a Z C r 7.].7.a Z F a ` ) I ] B N H ^ F C @.C s k +.@.e | _ 7XfX;Xk.3XY.5 ",
"v 3X8X7XY.MXsX%X1.e k o.~ ~ 1.E w ^ h e B d 1 - ' #.` a W F F :.7.>.F F W a _ #.' - 1 d N p h ^ w E 1.~ W o.k e d.%XsXMXY.7X8X4X",
"( vX6XvXMX8XF.1.% , 2 g.S ~ | C ^  .S { p < - < - #.` C { H { { ,.{ { H ) C ` #.; < & < a { E } } C } ~ S f.2 , % 1.F.9XMXvX8XgX",
"gXbXMXmX4XN.o.O.1.j.;XD.d.O.^ h h O.^ C < 4 , +   $.| X.| ) I X...X.I ) } X.| $.  + , 4 < C ^ O.h h ^ O.j.G.;Xk.@.O.o.N.4XbXMXbX",
"MXMX8XB.l.o.7XgX8XR.D.@. . .S k j.s ~ - X . 9 , < U +.&.H ) Y { { Y U ) U &.+.Q < , 9 . X ; ~ s j.k S  . .1.D.R.6XgX7Xo.l.B.9XMX",
"W.m.u.D.v } 8X0XH.z.g./ ^ z.g.j.} { } X + O + 1 # a #.$.U $.U Y $.{ G #.{ $.#.a % 1 + O + . | ~  .k.g.z.^ o.g.z.H.0X0X^ S G.u.m."
};
