/* XPM */
static char *_23b70145462487cd3c7f3572d67bb33iERFKX90BjbYTVv8[] = {
/* columns rows colors chars-per-pixel */
"64 64 147 2 ",
"   c #FF1F05",
".  c #FF1E0C",
"X  c #FF1E11",
"o  c #FF2103",
"O  c #FF200C",
"+  c #F72E0F",
"@  c #F7320E",
"#  c #F9340C",
"$  c #F4390E",
"%  c #F72E10",
"&  c #F73311",
"*  c #F83311",
"=  c #FF1B26",
"-  c #FF1B2B",
";  c #FF1C31",
":  c #FE4302",
">  c #FF5F00",
",  c #FF6200",
"<  c #FD6F01",
"1  c #FF7200",
"2  c #FF7F00",
"3  c #FF1B45",
"4  c #FF1C49",
"5  c #FF1C55",
"6  c #FF1C5B",
"7  c #FF1E6F",
"8  c #FF1E74",
"9  c #FF1E79",
"0  c #F92074",
"q  c #04D402",
"w  c #0FD500",
"e  c #01D40C",
"r  c #12D500",
"t  c #35D700",
"y  c #39D700",
"u  c #35D800",
"i  c #39D800",
"p  c #00D424",
"a  c #00D528",
"s  c #00D536",
"d  c #00D539",
"f  c #5CDC00",
"g  c #6EDE00",
"h  c #71DF00",
"j  c #7DDE00",
"k  c #7DE000",
"l  c #00D64B",
"z  c #00D84C",
"x  c #00D850",
"c  c #00D75D",
"v  c #00D85D",
"b  c #00D761",
"n  c #00D962",
"m  c #00DA7C",
"M  c #FF8100",
"N  c #FF9700",
"B  c #FF9A00",
"V  c #FFAC00",
"C  c #FFB600",
"Z  c #FEBB00",
"A  c #81DF01",
"S  c #81E000",
"D  c #8FE100",
"F  c #92E100",
"G  c #AFE400",
"H  c #B3E400",
"J  c #FDC700",
"K  c #FDCA00",
"L  c #F5DE00",
"P  c #D3E700",
"I  c #D5E800",
"U  c #D8E800",
"Y  c #E5E600",
"T  c #E8E600",
"R  c #E6E800",
"E  c #E8E800",
"W  c #F3E000",
"Q  c #0C16FF",
"!  c #0B18FF",
"~  c #1016FF",
"^  c #2613FF",
"/  c #2B12FF",
"(  c #3C13FF",
")  c #0225FF",
"_  c #0129FD",
"`  c #0033FE",
"'  c #003FFE",
"]  c #4114FF",
"[  c #5515FF",
"{  c #5914FF",
"}  c #6F17FE",
"|  c #6E19FF",
" . c #7119FF",
".. c #7819FF",
"X. c #0042FE",
"o. c #0054FD",
"O. c #0058FF",
"+. c #006EFD",
"@. c #0071FD",
"#. c #007FFD",
"$. c #FF1F92",
"%. c #FF208F",
"&. c #FF2092",
"*. c #FF21A5",
"=. c #FF21AA",
"-. c #FF23BE",
";. c #831BFF",
":. c #951CFF",
">. c #9A1DFF",
",. c #AC1EFF",
"<. c #B21FFF",
"1. c #AC20F9",
"2. c #FF23C3",
"3. c #FF24D6",
"4. c #FF25D9",
"5. c #CF1FFF",
"6. c #D11FFE",
"7. c #CF21FE",
"8. c #D221FF",
"9. c #FA26E7",
"0. c #FD25ED",
"q. c #EC23FE",
"w. c #FA25F2",
"e. c #F524FB",
"r. c #F925FA",
"t. c #00DC8E",
"y. c #00DC93",
"u. c #00DD9D",
"i. c #00DEA5",
"p. c #00DDA9",
"a. c #0082FE",
"s. c #008FFD",
"d. c #0092FE",
"f. c #00ADFE",
"g. c #00DFC5",
"h. c #00DFC9",
"j. c #00DEDE",
"k. c #00E0C6",
"l. c #00E0DE",
"z. c #00DEE0",
"x. c #00DAED",
"c. c #01CEF7",
"v. c #00C4FF",
"b. c #00CFF9",
"n. c #00D1F7",
"m. c #00D1F9",
"M. c #00E0E0",
/* pixels */
"& & $ $ % & & @ @ @ # @ + + + % % % % + + @ # * # # * * # $ $ * # * # * * @ + # @ % % % + % % % % + # % + + @ $ # & $ # $ * * * ",
"$ $ # # @ $ @ @ # # # # @ # + @ # # # # # # $ $ # # # $ # # # # # # $ * # # # @ # @ # # # # # # # # # # # # # # # # # # # # # # ",
": : # : : : : : : : : : : : : : : : : : : : : : : : : : : # : : : : : : : : : : : : : : : : : : : : : : : : : : : : : # : : : : ",
", , , , , , , , , , , , , , , , , , , , , , , , , , , , , , > , , , , , , , > , , , , , , , , , , , , , , , , , , , , , , , , , ",
"< < < < < < < < 1 1 1 1 1 1 1 1 1 1 1 1 1 1 1 1 1 1 1 1 1 1 1 1 1 1 1 1 1 1 1 1 1 1 1 1 1 1 1 1 1 1 1 1 1 1 1 1 1 1 1 1 1 1 1 1 ",
"M M 2 2 M M M 2 M M M M M M M M M 2 M 2 M M M M M M M M M M M M 2 2 2 M 2 M M M M M M M M M M M M M M M M M M M M M M M M M M M ",
"B B V N B B B N B B B B B N N B N N N N V N B B B N N B B B B B N N N N N N N B B B B N B N N N V N N B V N N N V N B B B N N N ",
"C V V V V V V V V V V V V V V V V V V V V V V C C V V V C V V V V V V V V V V V V V V V V V V V V V V V V V V V C V V V C V V V ",
"Z Z Z Z Z Z Z Z C Z Z Z C Z C C Z Z Z Z Z Z Z Z J Z Z J Z J Z Z Z Z Z Z Z Z Z Z C C Z C Z Z Z Z Z J Z Z Z J Z Z Z Z Z Z Z Z Z Z ",
"K K J J J K K J J J J J J J J J J J J K K K K J J K J J J K K J J J K K J J J J J J J J J J J K J K K J J K K K K J K J J J K K ",
"W L L L W W L L W L W L L L W W L W L L W L L L L L L L L L W W L W W W W W W W L L W L W L W L L L L L W L L L W L W L L L W W ",
"Y R Y Y Y R Y R R R R R R R R Y R R E T E R T Y Y T Y Y Y Y Y Y Y Y R R R R Y R E R E R R R R T T T T Y Y Y Y Y E R Y Y Y R R R ",
"P P P P P P P I I I I I I I U U I I P P I I I I P P P P U U P I P P I I I I I I I I U U U I I P I P P P P P I P I I I I I I I I ",
"H H H H H H H H H H G H H H H H H G H H H G H G H G G H H H H H H G H H H H H G H H H H H H H H H H H H H H G G H H H H H H H H ",
"F F F D D D D D F D D D D F F F F F D F F F F F F F F F F F F D D D D D F D D D A F F F F D D D F F D D F F F F F F F F F D F F ",
"A A A j k k k k k k k k k k S k k k k k k k k k A A A A S k S k k k k k S k k j A k k k j k k j k k k k S S A S S S k S j k k j ",
"h h g g g g h g g h h g g g g k g g g g g g g g g k g k g g g g g g k g g g k g g g g k g g g g g g g g g g k g g g g g g g g g ",
"f f f f f f f f f f f g f f f f f f f g f f f f f f f f f f f f f f f f f f f f f f f f f f f g f f f f f f f f f f f f f f f f ",
"y y t y t t y t t y y y t y y y u t i i y y y y y y y y u t t u u u t t u t t i y i y y y t y y i i t y y y y y u u u u u u u u ",
"r r e r w w w w r r w w w r r r w r r r r r r r r r r r w w r w w q w w w r r r r r r r r r r r r r r r r r r r r w r w w w w r ",
"q q q q e q q q q q q q q q w w q w q q q q q q q q q q q q q q q q q q q q q q q q q q q w q q w q q q q q q q q q q q q q q q ",
"e e e q e e e e e e e e e e e e e e e e e e e e e e e e e e e e e e e e e e e e e e e e e e e e e e e e e e e e e e e q e e e e ",
"p p p p p p p p p p p p p p p p p p a p a a a a p a p a p p p p p p p p a p p p p p a a p a p p a a a a a a a p a p p p p p p p ",
"s s s s s s s s s s s s d d d d s s s d d d d d d d d d s s s s a s s s s s s s s d s s d d s s d d d d l d s d s s s s s s s s ",
"l l l l l l l l l l l l l x z z z x z z z z x z z l l l z z l l z z l l l l l l l z z x x z z z z z x z l l l l l l l l l l l l ",
"b b b c c c c c c c x c n n n b n n n v v n n n n c c c c n c c n v v v v v x v c n n n n n n c n n n n c v v c v v c c c v v c ",
"m m m m m m m m m m m m m m m m m m m m m m m t.m m m m m m m m m m m m m m m m m m m m m m t.m m m m m m m m m m m m m m m m m ",
"y.y.y.y.y.y.y.y.y.y.y.y.y.y.t.t.t.t.y.y.y.t.y.y.y.y.y.t.y.y.y.y.t.y.y.t.y.y.y.y.y.y.y.t.t.y.t.t.y.t.y.y.y.y.y.y.u.y.y.y.y.t.y.y.",
"p.p.p.p.p.p.i.i.p.p.i.i.i.i.i.u.i.u.u.i.i.i.i.p.i.i.p.p.p.p.p.i.i.p.i.i.i.i.i.i.i.i.i.u.i.u.u.i.i.i.p.p.i.i.i.i.p.p.p.p.i.i.p.i.",
"h.h.h.p.h.h.g.g.h.g.g.g.g.g.g.g.g.g.g.g.h.k.h.k.g.g.h.p.h.h.g.g.h.h.h.g.k.g.g.k.g.k.g.g.g.g.g.g.g.h.h.h.g.k.h.g.k.h.k.k.g.g.h.k.",
"j.j.j.j.z.j.j.j.z.z.j.z.j.z.j.z.j.z.j.j.M.M.M.l.j.j.j.j.z.z.z.z.z.z.z.j.z.z.j.l.M.M.z.z.l.j.j.j.l.l.M.M.j.j.z.l.M.M.M.M.j.z.z.l.",
"c.x.x.x.c.x.x.x.x.x.x.x.x.x.x.x.x.x.x.x.x.x.x.x.x.x.x.x.x.x.x.x.x.x.x.x.x.x.x.x.x.x.x.x.x.x.x.x.x.x.x.x.x.x.x.x.x.x.x.x.x.x.x.x.",
"n.m.m.m.c.c.c.c.n.m.n.m.m.m.m.m.m.m.m.b.m.m.b.b.b.b.m.m.m.m.m.m.m.m.m.m.m.m.m.m.m.m.m.m.m.m.m.m.m.b.b.m.n.n.b.b.b.m.m.m.m.m.m.b.",
"v.v.v.v.v.v.v.v.v.v.v.v.v.v.v.v.v.v.v.v.v.b.f.v.v.v.v.b.v.v.v.v.v.v.v.f.v.v.b.v.v.v.v.v.v.v.v.v.v.v.v.v.v.b.v.v.v.v.v.v.v.v.v.v.",
"f.f.f.f.f.f.f.f.f.f.f.f.f.f.f.f.f.f.f.f.f.f.f.f.f.f.f.f.f.f.f.f.f.f.f.f.f.f.f.f.f.f.f.f.f.f.f.f.f.f.f.f.f.f.f.f.f.f.f.f.f.f.f.f.",
"d.d.d.d.s.s.d.d.d.d.d.d.d.d.d.s.s.s.s.s.s.s.d.d.d.d.d.d.d.d.d.d.d.d.s.s.d.d.d.d.s.s.d.d.d.d.s.s.s.s.s.s.d.d.d.d.d.d.d.d.d.d.s.s.",
"a.a.a.a.a.a.a.a.a.#.a.a.a.a.a.a.a.a.#.a.a.a.s.a.a.a.a.a.a.a.a.a.a.a.a.a.a.a.a.a.#.a.a.a.#.a.#.a.#.a.a.a.a.a.a.a.a.a.a.a.a.a.a.a.",
"@.@.@.#.@.+.@.@.@.@.+.@.@.@.@.@.@.@.+.+.@.@.@.+.@.+.+.+.+.+.@.@.@.@.@.@.@.@.+.@.@.+.+.@.@.@.@.+.@.+.@.@.@.@.+.+.@.@.@.+.@.@.@.@.",
"o.o.o.o.o.o.o.o.o.o.o.o.o.o.O.O.O.o.o.o.O.O.O.O.o.o.o.o.o.o.o.o.o.o.o.o.o.o.o.o.o.o.o.o.o.o.o.o.o.o.O.O.o.o.O.O.o.o.o.o.o.o.o.o.",
"' ' X.X.X.' ' ' X.X.X.X.X.X.X.X.X.X.X.X.X.X.X.X.X.X.X.X.X.' ' X.X.X.' ' X.X.X.X.X.X.' X.X.X.X.X.X.X.X.X.X.X.X.X.X.X.' ' X.X.' ' ",
"` ` _ ` ` _ ` ` ` ` ` ` ` ` ` ` ` ` ` ` ` ` ` ` ` ` ` ` ` ` ` ` ` ` _ ` ` ` ` ` ` ` ` ` ` ` ` ` ` _ ` _ ` ` ` ' ` ` ` ` ` _ ` ` ",
"_ _ _ _ _ ) ) _ ) _ _ _ _ _ ) _ ) ) ) ) ) ! ) ) ! ) _ _ _ _ ) ) ) ) ) ) ) ) ) ) _ _ _ _ ) ) _ ) _ ) ) ) ) ) ) _ ) _ ) ) ) ) ) _ ",
"~ ~ ~ ~ ~ ~ ~ ~ ~ ! ! ! ~ ! ! ! ! ! ! Q Q Q ! ! ! Q Q ! ! ! Q ~ ~ ~ ~ ~ ~ ~ ! ! ! ! ~ ~ ! ! ! ! Q Q Q Q Q Q ! ! ! ! Q Q ~ Q ~ ~ ",
"/ / / / / / / / / / / / ^ ^ ^ / ^ ^ ^ ^ ^ ^ ^ ^ ^ ^ ^ ^ ^ / / / / / / / / / / / / ^ ^ ^ ^ ^ ^ ^ ^ ^ ^ ^ ^ ^ / / ^ / / / / ( / / ",
"( ( ] ] ] ] ] ] ( ( ( ( ( ( ( ( ( ( ( ( ( ( ( ( ( ( ( ( ( ( ] ( ] ] ] ] ( ] ( ] ( ( ( ( ( ( ( ( ( / ( ( ( ( ( ( ( ( ] ] ( ] ] ] ",
"[ [ { { { { { { [ [ [ [ [ [ [ [ [ [ [ [ [ ] ] [ [ [ [ [ [ [ { { { { [ { [ [ [ { [ [ [ { [ [ [ [ [ [ [ [ [ [ [ [ [ [ [ { { { [ [ ",
"} } } } } } } .. .| |  .|  . .| |  ... . .} } } .. . . . .} | | .. . . . . .|  .| | |  . . . ... . .} } | | } } } }  .} } } } } ",
";.;.;.;.;.;.;.;.;.;.;.;...;.;.;.;.;.;.;.;.;.;.;.;.;.;.;.;.;.;.;.;.;.;.;.;.;...;.;.;...;.;.;.;.;.;.;.....:.;.;.;.;.;.;.;.;.;.;.;.",
":.:.:.:.:.:.:.:.:.:.:.:.;.:.:.:.:.:.:.>.:.>.>.>.>.>.>.>.>.>.:.:.:.;.:.:.:.:.:.:.:.:.:.:.:.>.>.:.>.:.>.>.>.,.:.>.>.:.:.>.:.:.:.:.",
"1.1.1.1.,.,.,.,.,.,.,.,.,.,.,.,.,.,.,.,.,.,.,.<.<.<.<.<.,.<.,.,.,.,.,.,.,.,.,.,.,.,.,.,.,.,.,.,.,.,.,.<.<.<.,.<.<.,.<.,.,.,.,.,.",
"7.7.7.7.8.8.5.6.5.7.5.7.7.5.7.5.8.6.6.8.6.5.7.7.8.8.8.8.8.8.7.8.8.8.5.5.5.7.7.7.5.5.7.5.8.8.5.8.8.6.8.7.7.8.6.6.8.8.8.8.8.8.7.7.",
"9.e.q.9.q.q.q.q.q.q.q.q.q.q.q.q.q.q.q.q.q.q.q.q.q.q.q.e.e.q.q.e.q.q.q.q.q.q.q.q.q.q.q.q.q.q.q.q.q.q.q.q.q.q.e.q.e.q.q.e.q.q.q.q.",
"q.w.e.e.e.e.e.e.e.e.e.e.e.e.e.e.e.e.e.e.e.r.r.e.r.e.e.r.r.r.r.r.r.r.r.e.e.e.e.e.q.e.e.e.r.r.e.e.e.e.r.e.e.e.e.e.r.r.r.r.w.r.r.r.",
"9.9.9.w.0.0.0.0.9.0.9.9.0.0.0.0.0.0.0.0.0.0.0.0.w.w.0.w.0.0.0.0.0.w.0.0.0.0.9.0.0.0.0.0.0.0.9.0.0.0.0.0.w.w.0.0.0.0.0.0.0.0.0.0.",
"3.3.3.4.4.9.4.4.4.4.3.3.3.3.3.3.3.3.3.3.4.4.3.3.4.4.4.4.3.4.3.3.9.4.4.4.3.3.3.3.3.3.3.3.3.3.3.3.4.3.3.3.4.4.4.9.4.4.4.4.4.4.4.4.",
"-.-.-.2.2.2.2.2.2.2.-.-.-.-.2.-.-.-.-.2.2.2.-.2.2.2.2.2.2.2.2.2.2.2.2.2.2.-.-.-.-.-.2.2.-.2.-.2.2.2.2.2.2.2.2.2.2.2.2.2.2.2.2.2.",
"=.=.=.=.=.*.*.*.*.=.*.*.*.*.*.*.*.=.*.=.*.*.=.=.=.=.=.=.=.*.=.=.=.=.=.*.*.*.*.*.*.*.$.*.*.*.*.=.*.*.*.=.=.=.=.=.=.*.=.=.=.=.=.=.",
"%.&.&.&.&.&.%.&.%.$.&.&.%.%.%.%.&.&.%.&.%.&.$.$.&.$.$.$.$.$.$.%.$.$.&.&.%.&.&.%.$.$.$.%.$.$.$.$.%.%.$.$.&.&.$.$.&.%.&.$.$.&.%.&.",
"0 0 8 8 8 8 9 9 9 8 8 9 9 8 8 8 9 8 8 8 8 7 7 7 8 8 8 8 8 8 8 8 8 8 9 9 8 8 9 9 9 9 8 8 8 8 8 9 8 8 7 7 9 8 8 7 8 8 8 8 8 8 8 9 ",
"5 6 5 6 6 6 6 6 5 7 6 6 6 5 5 5 5 5 5 5 5 5 5 5 5 5 5 5 5 5 5 7 6 6 6 6 6 5 7 6 6 6 6 5 5 5 5 5 5 5 5 5 5 5 5 5 5 5 5 6 5 5 7 5 ",
"4 3 4 4 3 4 4 3 3 3 4 3 4 3 3 3 3 3 3 3 3 3 3 3 3 3 3 4 4 3 4 4 4 4 4 3 4 3 4 4 4 3 3 3 3 3 3 3 3 4 3 3 3 3 3 3 3 3 3 4 4 4 4 4 ",
"- - - - - = - = - = = = = = = = - = = - - ; ; ; = - - - - = = - - = - = = - = = = = = = = = - ; - - ; ; ; - = - - - = - - = - = ",
"+ . + .   . O . O O O . . . . . . . X . X X . X X . . . O . O O . . . . . . O O . . . . . . . X X X O O X O O . . O O O O . . X ",
"o o o o     o   o o o o O   . O .     . o O   . o o o o o o o o   o     o o o o   . . .   .   o   O O . o o o o o o o o o o     "
};
