/* XPM */
static char *_0ba21e4f869429dc861cfb1f3918ad6EkH3E7Ke0F5FMqTu[] = {
/* columns rows colors chars-per-pixel */
"50 50 48 1 ",
"  c black",
". c #0F0E0B",
"X c #1E1D16",
"o c #2D2B21",
"O c #3C392C",
"+ c #5A5642",
"@ c gray50",
"# c #22B14C",
"$ c #2FB452",
"% c #3CB859",
"& c #49BB5F",
"* c #56BE65",
"= c #6FC572",
"- c #B2B2B2",
"; c #B6B6B6",
": c gray75",
"> c #E7D687",
", c #E7D688",
"< c #E7D689",
"1 c #E7D789",
"2 c #E7D78A",
"3 c #E7D78B",
"4 c #E8D78A",
"5 c #E8D78B",
"6 c #E8D88C",
"7 c #E9D990",
"8 c #E9DA91",
"9 c #E8D992",
"0 c #EADA94",
"q c #EADB96",
"w c #EADC98",
"e c #EBDD9C",
"r c #EBDD9D",
"t c #EBDD9E",
"y c #ECDE9F",
"u c #ECDFA0",
"i c #ECDEA1",
"p c #ECDFA1",
"a c #ECE0A3",
"s c #EDE0A4",
"d c #EDE0A5",
"f c #EDE1A6",
"g c #EDE1A7",
"h c #EDE1A9",
"j c #EEE2AA",
"k c #EFE4AF",
"l c #EFE4B0",
"z c #C3C3C3",
/* pixels */
"llllllllllllllllllllllllllllllllllllllllllllllllll",
"llllllllllllllllllllllllllllllllllllllllllllllllll",
"lllllllllllllllllllllhyyhkkllllllllllkkkllllllllll",
"llllllllllllllllllllhreeyyhllllllllhyyyhllllllllll",
"llllllllllllllllllhyeereeeyllllllhueeeerhlllllf9ul",
"lllkllllllllllllhueeeeryeyplllllhryeeeeeylllll,>4u",
"lhyyhlllllllllllueeeeyepkllllllhrq,49yeeekllf4>>,,",
"luerrlllllllllllfyeeplklllllllhyr,>>>eeeeklp44>>,w",
"lfyeq56ulll+llllllllllllllllllyye9>>6reefll,>>,,wl",
"llee,>,,lll.ollllllllllllllllheeeeeerryflll,>>elll",
"llfe,>>wllll lllllllllllllllkreeeeeerepllllr>qllll",
"lkkf9>wlllllXlllllllllllllllleeeeeeeefllllllkkllll",
"lllllllllllllllllllllllllllllfrerrrfllllllllllllll",
"lllllllllllllllllllllllllllllllkllklllllllllllllll",
"llllllllllllllllllllllllllllllllllllllllllllllllll",
"llllllllllllllllllllllllllllllllllllllllllllllllll",
"llllllllllllllllllllllloOlllllllf56ulllllllll+llll",
"lllllllllkppllllllllllo.llllllll5,,,llllllllo.llll",
"llllllllhyetllllllllll.ollllllll,,>>lllllllo.lllll",
"lllllllpttttllhuuflllll.Olllllll>>>>lllllll llllll",
"llllkhueeeeelleeeeyhklllllllllll>>>>lllllll llllll",
"lllkyeteeeeelleeeeerhlllllllllll>>>>lllllllXllllll",
"lllueeeeeeeulleyeyrerlllllllllll,>>wllllllllllllll",
"lllpeeeeeeyllleweprrplllllllllllr>wlllllllllllllll",
"lllllllhuyplllhyplllllllllllllllllllllllllllllllll",
"llllllllllllllllllllllllllllllllllllllllllllllllll",
"lllllllllllllllllllllllllllll@@@@@@@llllllllllllll",
"llllllllllllll&#&llllllllll@@@@@@@@@@@llllllllllll",
"lllllllllllll&$##lllllllll@@@@@@@@@@@@@lllllllllll",
"llllll*#&llll##&$llllllll@@@@@@-z;@@@@@@llllllllll",
"lllllll#$#&l&$##lllllllll@@@@@-zz:@@@@@@llllllllll",
"lllllll###$&####lllllllll@@@@@@@-z-@@@@@llllllllll",
"lllllll$&#####&$llllllllll@@@@@@@@@@@@@lllhuhkklll",
"llllllll###$$##llllllllllll@@@@@@@@@@@lllhreyeyhll",
"llllllll$&###&$llllllllllllll@@@@@@@lllllrreeerrll",
"lllllllll%=###lllllllllllllllllllllllllllyrrerypll",
"llllllllll$##$lllllllllllllllllllllllllllreeeeekll",
"lllllllllllllllllllllllllp66ylllllllllllleeeeeulll",
"lllllllllllllllllllllllll5,>>>>6ullllllllreerrllll",
"lljuupllllllllllllllllllly>>>>>>,lllllllkreeefllll",
"llyyeeeyklllllllllllllllllw4>>>>4llllllllfreplllll",
"llpyeeeeiplllllllllllllkllllw>>>,ullllllllllllllll",
"lllpeetetilllllllllllyeyllllll4>>,llllllllllllllll",
"lllkeetytpllllllluukuyeellllllt>>,lllll+llllllllll",
"lllluttplllllllllteyeettlllllll>>>lllll Olllllllll",
"llllptplllllllllkteeeetllllllll4>>lllll llllllllll",
"llllllllllllllllllllkkllllllllly>wllllo.llllllllll",
"llllllllllllllllllllllllllllllllllllllXlllllllllll",
"llllllllllllllllllllllllllllllllllllllllllllllllll",
"llllllllllllllllllllllllllllllllllllllllllllllllll"
};
