/* XPM */
static char *acb5e0a603a84fec95e388af9a097912lYTnEpDkCZDX5Bnz[] = {
/* columns rows colors chars-per-pixel */
"64 64 227 2 ",
"   c #12313F",
".  c #40412B",
"X  c #143549",
"o  c #163856",
"O  c #143A5B",
"+  c #3A3B53",
"@  c #0D1871",
"#  c #163B63",
"$  c #193B64",
"%  c #193D6B",
"&  c #19237B",
"*  c #133C75",
"=  c #353B65",
"-  c #18435B",
";  c #21425D",
":  c #184368",
">  c #1B436C",
",  c #174677",
"<  c #1C4373",
"1  c #1B447C",
"2  c #1C4B7C",
"3  c #185570",
"4  c #234473",
"5  c #2B4B75",
"6  c #24467B",
"7  c #25497D",
"8  c #294A79",
"9  c #434157",
"0  c #4B4D70",
"q  c #474878",
"w  c #635D77",
"e  c #606479",
"r  c #F7320E",
"t  c #F9340C",
"y  c #F4390E",
"u  c #F72E10",
"i  c #F63311",
"p  c #FE4302",
"a  c #FF6200",
"s  c #FC6F01",
"d  c #FF7200",
"f  c #FF7F00",
"g  c #03D401",
"h  c #05D408",
"j  c #12D500",
"k  c #35D800",
"l  c #00D423",
"z  c #00D536",
"x  c #5CDC00",
"c  c #6DDE00",
"v  c #71DE00",
"b  c #7EDE00",
"n  c #7DE000",
"m  c #00D64B",
"M  c #00D85E",
"N  c #01D860",
"B  c #00D97B",
"V  c #FF8100",
"C  c #FE9B00",
"Z  c #FEAC00",
"A  c #FFB500",
"S  c #FEBB00",
"D  c #81DF01",
"F  c #88E100",
"G  c #92E100",
"H  c #AFE400",
"J  c #B3E400",
"K  c #FDC700",
"L  c #FDCA00",
"P  c #F5DE00",
"I  c #D4E700",
"U  c #E4E600",
"Y  c #E6E800",
"T  c #F3E000",
"R  c #1C2686",
"E  c #15279E",
"W  c #232C89",
"Q  c #2A338B",
"!  c #36398A",
"~  c #232C91",
"^  c #2B3697",
"/  c #353A94",
"(  c #333C9C",
")  c #2B3BAA",
"_  c #353DA3",
"`  c #1C4482",
"'  c #1A4787",
"]  c #1C4B8C",
"[  c #1D5286",
"{  c #1D4C92",
"}  c #1E4A95",
"|  c #1E5398",
" . c #244B84",
".. c #2A4D84",
"X. c #2B4E8A",
"o. c #344B86",
"O. c #285287",
"+. c #2E528B",
"@. c #355885",
"#. c #33528D",
"$. c #214C94",
"%. c #224D98",
"&. c #3B419A",
"*. c #2D5493",
"=. c #265798",
"-. c #2C549A",
";. c #325493",
":. c #365998",
">. c #1B6897",
",. c #286B98",
"<. c #3B43A7",
"1. c #2A57A6",
"2. c #345BA2",
"3. c #395EA7",
"4. c #3750B8",
"5. c #2966A7",
"6. c #3B65AB",
"7. c #3965B5",
"8. c #3174B0",
"9. c #474889",
"0. c #57578A",
"q. c #474998",
"w. c #4B5396",
"e. c #565799",
"r. c #615D91",
"t. c #586594",
"y. c #676489",
"u. c #676698",
"i. c #746D97",
"p. c #464BA6",
"a. c #4B56AA",
"s. c #5455AB",
"d. c #5759A8",
"f. c #464DB4",
"g. c #4B56B8",
"h. c #575BB8",
"j. c #605FB9",
"k. c #4365A8",
"l. c #5868A7",
"z. c #466AB7",
"x. c #5A64B8",
"c. c #4872B9",
"v. c #5676BA",
"b. c #6767A8",
"n. c #6F6FAE",
"m. c #7975A9",
"M. c #6567B7",
"N. c #6A76BB",
"B. c #7778B7",
"V. c #273EC8",
"C. c #364ECA",
"Z. c #3D6ACA",
"A. c #485AC6",
"S. c #595DC2",
"D. c #455BD2",
"F. c #4A68C7",
"G. c #5867C7",
"H. c #4B76C9",
"J. c #5678C9",
"K. c #4B67D7",
"L. c #576CD6",
"P. c #5977D6",
"I. c #6569C7",
"U. c #6A6CC3",
"Y. c #6D6FCB",
"T. c #6775C7",
"R. c #7779C7",
"E. c #687AD7",
"W. c #747BD5",
"Q. c #5370E5",
"!. c #667AE3",
"~. c #827CB4",
"^. c #807FC7",
"/. c #3886B8",
"(. c #7882BD",
"). c #00DC94",
"_. c #00DEA8",
"`. c #019EFD",
"'. c #5A83CF",
"]. c #7A84C9",
"[. c #6E8DD3",
"{. c #6986D9",
"}. c #7986D9",
"|. c #6C87E9",
" X c #7889E6",
".X c #7A97E4",
"XX c #7BA1EB",
"oX c #00DFC7",
"OX c #00DEDE",
"+X c #00E0DE",
"@X c #00DAEA",
"#X c #00C9FC",
"$X c #00D0F9",
"%X c #8583BB",
"&X c #8686C9",
"*X c #9190CF",
"=X c #888AD6",
"-X c #8893DA",
";X c #9697D9",
":X c #A29EDD",
">X c #A3A3DF",
",X c #8997E6",
"<X c #8495EC",
"1X c #949DE3",
"2X c #989DE5",
"3X c #89A3E7",
"4X c #9CA2E4",
"5X c #95A2EB",
"6X c #99A8EA",
"7X c #98A7F3",
"8X c #91ABF7",
"9X c #9EB2F5",
"0X c #A6A9E8",
"qX c #ABB2ED",
"wX c #B7B6EE",
"eX c #A3ACF3",
"rX c #AAB7F5",
"tX c #B7BBF5",
"yX c #C2BCF3",
"uX c #AFC0F8",
"iX c #B9C3F9",
"pX c #C6C6F7",
"aX c #CFCDF7",
"sX c #D8D7FC",
"dX c #DDE0FF",
"fX c #E4E3FE",
"gX c #F2F0FF",
/* pixels */
"y i r y y r u t r r t r r u u u r u u u u r f.D.C.D.Q.E.L.D.D.K.K.D.D.L.!.!.K.D.D.A.<.<.i u u u u u r u u u r t r i y t y t i i ",
"y y t t t t t t t r t t r t t r t t r r t t C.Q.5XrXrX7X X!.L.L.!.L.Q.!.2XeXrXeX!.C.) _ u i u r t t t t t t t t t y t t t t t t ",
"p p t p y p p p p p p p p p t p p p p p p L.7XpXqX2X4X2X<XQ.L.!.!.L.L.W.<X5X2X0XpXrX!.C.f.p p p p p p p p p p p p p p t p p p p ",
"a a a a a a a a a a a a a a a a a a a C. X6X6X1X2X2X8X<X X XL.L.!.D.!.<X<X5X5X2X,X2X0X,XK.D.a a a a a a a a a a a a a a a a a a ",
"s s s s s d s s d d s d d d d d d d C.5X0X,X1X-X5XeXqXrXrX,X X X<X!.<XeXrXrXrX4X-X,X,X;X6XL.C.d d f d d d d d d d d d d d d d d ",
"V V V V V V f f V V V f V V V V f K.6X0X-X,X XqXeXpXpXpXiXwX7XW.E.1XqXtXpXyXpXrX0X1X,X<X5X0XE.V V V V V V V V d V V V V V V V V ",
"Z C C C C C C C C C C C C C C Z K.5X0X,X X4XwXqXaXpXpXpXyXrX2X X!.2XeXyXpXyXpXaXiXqX0X-X,X4X0X!.C C C C C Z C C Z C C C C C C C ",
"Z Z Z Z Z Z Z Z Z Z Z Z Z Z Z K.5XqX;X1X2X4XwXyXwX>X>X>X0X1X<X X X X2X0X>X0X>X0XpXtX6X2X1X1X0X6X|.Z Z Z Z Z Z Z Z Z Z Z Z Z Z Z ",
"S S S S S S S S A A S A A A A <XqX;X,X4X-XqXyXaX>XwXpXsXpXiXuXqX5XtXiXpXaXpXtX0XpXyXwX;X1X-X1XwX5XK A K A K S S S S S S A S S S ",
"L L K L L L L L K K L K K L !.eX4X,X1X*XqXyXpXwXaXwX-XN.N.].-X}.}.-X].N.(.].0XsXqXaXwXwX-X4X,X-XrX XL K L L L K L L L K L L L L ",
"T P P P P P P P T P T T P C.8XtX}.-X2X4XtXwXpXaX-X:.5 4 > 4 &.a.w.:.7 > 5 4 #.T.pXpXpXwX0X;X,XW.qXtXP P T T P P T P P P P P T T ",
"U U U U U U U Y Y Y Y Y Y Q.yX2X}.-X2XqXwXwXpX9X7 > 4 % $ : $ % 6 % % > % > 4 % [.pXpX0XwX0X1X}.=XyX<XU U U U U Y Y Y U Y U U Y ",
"I I I I I I I I I I I I V.8XtXE.}.0X4X0X0XiXiXv.< > % % $ $ $ $ % $ $ $ $ $ % 4 +.rXpX0XqX,XrX-XE.;XrXD.I I I I I I I I I I I I ",
"H J J H J J J J J J J J D.uX-XW. XtX-X0X;XtXrX$.6 > # X o o o $ $ o o o o $ % 8 4 XXtX0X0X;XeX7XE.E.pX|.H H H H J J H J J J J J ",
"G G G G G G G F G G G E |.pXK.I.7XqX;X4X5XqX3X6 6 % O X X o o $ $ $ o X X o $ & < '.rX0X;X-X4XtXE.P.5XeXV.G G G G G G G G G G G ",
"D D b b n n n n n n n C.iX}.L.E.tX,X-X;X5X4X}.6 % % o X X o o # $ o o X X X $ % 4 v.0X6X-X;X}.pX<XL.L.aXQ.F n F n F F n n n n n ",
"v v v v c v v v v b R |.tXD.L.,XiX=X4X}.6X-X{.< < $ % o o # # $ $ O # O O $ % > > z.3X,X}.0X}.tX1XE.A.1X9XE v v v v c c c c c v ",
"x x x x x x x x x x E rX XC. X,XyX{.2X-X-X=Xv.1 , > % O O # # # $ # # O o $ % < > 2.-X}.-X-X-X4XeX XL.K.iXK.x x x x x x x x x x ",
"k k k k k k k k k k Q.tXD.L. XeXwX4X-X,X{.6X8. ., : : - X X X # # o X o o # > > 7 =.8X].,X-X4X,XyX XE.C.7X<Xx k k k k k k k k k ",
"j j h j j j j h h R <X1XC.T.W.rX=X7X<X-X].9X-.7 2 : X   X X X o o X X     X : 3 2 O.XX-XW.1XeXE.pX}.E.A.L.rX) j j j j j h j j j ",
"g g g g h h h g g C.tXA.A.E.=XaXW.4X,XT.,X3X=.6.6.5 5 5 : o ; - - - - : 3 5 5 :.6.,.J.eXJ.6X=X XiXeXE.G.) iX!.h g g h g h h g g ",
"h h h g h h h h @  XeX) A.E.9XtX{.{.eXH.rXXX.XXX3X3XuX6X6X'.:.> - #.6.3X6X9X9X3X3XXX[.uX{.,XW.5X,XrX}.A.4.E.eXR h h h h h h h h ",
"l l l l l l l l ^ 7XG.4.A.E.tX{.}.E.,XE.uX.X6.2 O.+.6.k.'./.z.O.2 k.v.'.c.6.=.O.2 :.'.iX.XW..X}.G.pX XL.4.) eXK.z l l l l l l l ",
"m z z z z z z @ L.<X~ <.G.,XuXf.E. XE..XrX,.2..XiXpXiX[.3.@.5. .7 -.,.*.v.rXiXsX6X7.=.XXeXK.5XG.G.;X9XG.f.^ E. Xz z z z z z z z ",
"m m m m m m m @ !.G.^ f.Y.7XE.x.G. XH.7XXX[.aX*X(.uX%X. '.,.;.] 2 =.*.'.e e uX8Xy.dX3X{.9XP.|.F.P.a.9XW.L._ ( 8X^ m m m m m m m ",
"N M N M N N R ^ <X) _ I.W.8X&.L.G.E.P.8X7.2.7.[.(.'./.0 8.O.8 { { O.> 6.5 0 (.'.'.c.6.:.XX.XP.P.G._ ,X<XI.<.~ Y.F.& M M M M M M ",
"B B B B B B R A.S._ f.I. XW.&.G.E.K.XX|. . .1 ' #.5 @.5 8 8 [ { ] [ O.5 @.@.O.O. .Q < [ Z.8XF.{.S.x.s.<XG.S._ 4.L.R B ).B B B B ",
").).).).).^ R L.f._ S.S.}.&.G.g.!.Z.XX1., # # O ; ; ; 3 , ' ] ] ] ] ] 2 3 - - - o $ O , | |.P.P.G.F.( W.Y.S.<.p.L.W _ ).).).).).",
"_._._._._._ W I.4.p.I.W.I./ F.L.K.L.P.' , o # # : O : 2 ' [ ' { | ] ' ] 3 < : : : O O O 2 7.|.F.E.g.g.p.}.S.h._ G.p.~ _.)._._._.",
"oXoXoXoX_ & <.S.( h.h.W./ h.g.E.A.J.5.` * O : , > 7 2 [ [ ' ] | ] ] ' [ O.2 2 > , , O * , { P.g.P.A.G.! Y.j.S./ g.g.& <.oXoXoXoX",
"@XOXOXOX^ R p.s./ j.M.M.Q G.G.{.g.P.| , * # # # 3 : : : , | | } | | | ' - : : 3 : # # * , ] H.G.G.E.A.p.q.Y.j.p.p.f.^ ~ +X@X+X+X",
"#XOX@X@XR ( p.<.p.s.I.p.p.g.W.G.x.H.] ` * # O O X X - 3 [ 5.5.' ' | 5.| [ - X X o O # * * ] 7.F.a..Xx.g.! W.s.s./ f.<.& ( @X@X@X",
"$X#X#X_ & _ s.! s.s.M.! g.x.{.a.F.Z.} ' * * : - X - [ | , | ] , : ' { [ [ >.: X - : # * ' } 1.H.g.G.T.A.&.s.s.j.! s.<.W ~ #X#X#X",
"#X#X`._ W _ f.! p.s.s./ h.J.g.d.K.7.| } ' ' , 2 3 [ ,.2 , 5.H.7.7./.5.[ 2 =.>.< , , , ' } | 1.Q.a.z.T.M.p.q.s.s.&.<.<.( W f.#X#X",
"`.`.S.^ / <.&.&.p.d.q.p.U.I.x.a.K.=.| } ] ] ] [ [ =.[ 2 2 [ =.,.5.| [ 2 2 2 -.O.[ [ ] ] } } %.Z.g.x.G.I.s.&.s.s.p.! p.( W A.f.`.",
"`.`.S.W / p.! p.d.d.q.p.T.x.x.G.Z.=.} { { | =.=.=.=.' , , , : > ' * , 2 , [ [ =.=.=.| } } } %.7.P.a.x.T.s.q.q.s.p.! &./ W f.S.`.",
"g.f._ ^ ^ <.! p.d.q.&.s.U.I.:.3XZ.=.} } } { {  .7 2 ` , : , : : > O , > > ` ' 2 ] $.$.$.} } %.1.XXg.x.T.d.q.9.s.q./ / / / ^ f.f.",
"p._ & / / / ! q.d.9.q.d.N.M.h.fX4.| } ] } { { ' $.8.8.5.,.,.,.>.,.,.5.,.5.5.8.=. .] ] } } $.%.1.rX-Xa.R.M.p.&.e.s.&.! _ ^ W / <.",
"~ ~ W _ / / q.s.p.9.q.j.U.d.v.gXz.1.%.} { ] ] ` O.| 1.8./.>././././.,.8.8.5.=.*.` ' ] ] ' %.1.1.dX>X#.N.M.q.9.q.s.s.! / ( ~ R ~ ",
"& @ ^ / / &.p.s.e.9.q.n.N.q.*XdX6X1.1.| ' } ] ` 1 , 1 | >.>.- 3 3 - >.>.>.` ` * ` ' } { { =.1.J.fXqX9.M.B.d.q.9.j.q.p./ / _ R @ ",
"@ @ _ ^ ( s.p.j.q.9.d.B.U.! ;XdXsX7.1.%.| %.] ] ] ` * ` | 5.>.,.>.,.,.,.' 1 * ' $.' $.$.} 1.1.rXfXyXq.b.B.d.q.9.j.s.p.<.W <.~ @ ",
"@ ~ _ W f.s.s.U.q.q.d.B.M.q *XdXfX.X7.1.%.%.%.$.] , ' 1 2 =.6.c./.k.-.[ , ` ` ' $.%.%.%.1.5.'.sXfXrX9.d.R.j.e.9.j.j.s.f./ ^ ^ @ ",
"@ ) _ ^ f.h.I.j.q.e.j.R.n.9.&XdXfX3X'.z.1.1.-.%.^ W 1 ' , > : : : : : < 1 ` ' Q %.1.-.1.7.'.[.sXfXtX0.e.R.M.q.q.j.U.s.h._ ^ <.R ",
"R _ ( _ h.h.Y.d.w.e.M.].M.q *XpXdX6Xc.[.P.7.1.1.1.'  .* % o   X o   X : * ` ' } 1.1.1.F.'.'.[.sXaXtXq q.R.N.d.e.s.U.j.h.f.^ _ ~ ",
"~ ( / f.S.I.Y.d.w.d.M.R.n.5 ;XrXpXrXc.z.J.P.F.7.7.1.{ ` 2 > - > > - : 2 1 ] =.7.4.F.P.'.c.k.XXsXeXiX5 0.W.U.b.d.p.U.I.S.S.^ ( ~ ",
"~ ( Q f.I.Y.Y.d.s.s.U.].R.9 ;X6X4XiXJ.k.7.z.J.E.H.H.7.%.[ [ O.8 O.8  .[ =.1.Z.H.P.'.F.k.z.z.6X0X6XtXq e.=XY.h.q.d.U.Y.I.h.^ ( W ",
"& ^ Q g.I.I.I.j.p.d.R.R.B.q %X6X-X6XJ.k.6.3.6.z.J.P.'.H.F.6.6.6.6.6.6.7.H.'.P.P.c.6.3.6.k.z.5X-X2X6Xq e.=XW.M.q.j.j.I.Y.h.&.~ W ",
"R R / h.I.I.s.j.q.U.R.R.^.q (.3X1X].'.z.3.2.3.3.6.F.H.'.{.{..X.X.XXX.X{.P.J.H.k.3.3.2.3.z.c.].1X-X;Xq b.^.^.R.q.s.s.h.Y.S.p.& ~ ",
"W & &.h.I.h.s.s.q.Y.^.^.^.9.n.2X-X*XT.k.6.:.-.2.2.a.F.H.J.[..X}.[..X[.P.J.F.z.2.2.-.-.6.6.T.n.2X-X=X9.n.^.=XY.j.q.j.h.I.h.f.& Q ",
"W Q p.h.I.h.s.q.h.U.;XR.Y.e.b.-X-X;Xl.c.6.:.-.*.;.2.3.7.H.T.J.J.v.J.T.J.z.3.2.-.*.-.-.3.6.v.*X=X-X].0.b.^.*XY.Y.! s.s.U.h.f.&.& ",
"& &.p.I.I.q.q.q.U.Y.=XR.M.e.b.].=X=Xn.l.2.2.-.;.X.;.:.:.6.k.k.:.:.a.k.k.3.:.;.X.*.;.2.2.l.t.*X&X].n.e.b.Y.^.R.U.j.9.w.h.Y.g.q.W ",
"! <.G.Y.q.9.! j.M.^.&XB.b.u.b.n.B.B.%Xy.:.2.-.-.;.;.#.#.w.#.o.o.8 @.w.#.#.#.;.*.;.-.:.-.l.m.B.~.n.b.b.e.B.^.^.U.U.! q.! M.U.f./ ",
"f.I.U.e.q ! 9.S.Y.^.^.n.0.l.u.r.~.i.~.y.k.:.:.-.;.;.:.;.#.#.o.8 o.8 o.#.#.w.;.#.-.2.-.a.y.~.i.~.n.r.b.u.b.R.R.R.j.e.! 9.9.M.R.g.",
"j.M.9.q e.q.e.j.B.M.B.n.y.b.M.u.~.y.w i.t.;.-.;.:.;.#.o.@.o...X.+...o.#.#.#.;.:.;.-.;.k.y.i.y.i.n.u.M.0.b.B.n.B.U.d.q.p.9.q b.j.",
"d.9.0 ^.p.e.d.M.M.b.e.n.r.b.n.0.~.w e y.b.:.2.O.o.+.;.#.o.#.;.;.-.+.#.o.#.#.#.#.O.:.*.l.y.w w i.u.b.M.y.u.d.n.b.M.h.9.s.U.0.q e.",
"q b.W.p.s.d.d.e.9.w w.n.w U.n.w i.y.w y.i.6.=.*.X.o.o.o.;.#.#.l.v.w.#.:.#.8 ..+.+.-.;.b.i.w w i.y.t.B.r.y.b.0 0.q.e.b.e.<.Y.I.0.",
"yXyX0XY.M.^.9.+ 9 + M.n.u.R.u.u.~.e w i.~.k.;.;.;.#.#.;.;.#.;.z.v.:.#.+.;.;.;.#.;.;.:.n.m.e e ~.u.r.^.j.0.^.9 9 + = Y.~.U.^.yXyX",
"yX:X^.n.^.U.= = 9 0 ^.r.b.=Xb.~.%Xe e ~.B.t.+.;.;.#.;.;.X.7 ..:.:... .X.;.#.;.#.;.+.:.N.(.u.y.~.~.~.~.~.d.^.r.9 0 = d.^.M.j.0XwX",
"yX~.j.^.;Xj.q e.r.n.*Xd.^.m.~.~.%X%X(.(.}.k.8 O.;.:.#.+.......X.:. .....+.#.:.;.@.O.:.].(.m.i.%Xn.^.~.^.b.^.^.r.r.9.9.=X^.^.b.:X",
"~.^.^.:X^.d.b.M.b.*XB.m.~.~.*X&X(.i.(.(.1Xk.@.O.O.@.X.X.6 6  .X.*.7 6 6 ....#.O.O.@.:.[.&X(.m.(.^.*X^.i.~.b.:X~.n.d.r.^.:X^.^.~.",
"^.~.^.^.^.Y.M.^.R.*XB.%X~.;X&X^.(.(.%X(.3Xk.8 #.+.O.O.....6 6 ....7 7 7 ..O.#.+.@.8 :.[.3X(.%Xm.~.&X*X*X^.~.^.^.^.^.^.^.^.^.^.^.",
"~.r.~.^.0X=X^.=X;X=X&X;X:X&X~.%X%X(.y.0XXXk.....O.@.#...6 6 7 X.+. .6 7 7 O.@...O.5 :.[.qXn.m.%X%X^.%X*X:X^.^.:X^.^.^.:X:X^.b.~.",
"~.^.0XyX:X=X-X:X0XB.*XwX=X*X;X=X(.i.(.6Xv.:.5 5 8 ....7 6 6 6 .. .6 4 6 7 ....8 5 4 5 /..X%Xu.~.R.:X*X*XyX:X^.:XeX^.:X:XyXyX^.~.",
"aXsXsXsXyX;X4X:X~.n.aX>X;X*X;X&X(.i.].(.k.5 ; > 5 4 4 7 6 4 % 8 @.4 > 6 7 8 4 5 5 = 5 w./.6Xt.%X&X;X*X*X^.aX^.^.^.eX^.:XaXsXaXaX"
};
