/* XPM */
static char *greenbisson1656511607[] = {
/* columns rows colors chars-per-pixel */
"64 64 238 2 ",
"   c #0E502A",
".  c #166733",
"X  c #1B6934",
"o  c #287625",
"O  c #23783B",
"+  c #137044",
"@  c #277D41",
"#  c #F7320E",
"$  c #F9340C",
"%  c #F4390E",
"&  c #F72E10",
"*  c #F73311",
"=  c #FE4302",
"-  c #FF6200",
";  c #FC6F01",
":  c #FF7200",
">  c #FF7F00",
",  c #16861A",
"<  c #158C1D",
"1  c #18931E",
"2  c #2E9E1F",
"3  c #168D22",
"4  c #198D23",
"5  c #128F2C",
"6  c #159324",
"7  c #199326",
"8  c #179927",
"9  c #1B9529",
"0  c #1C9C2B",
"q  c #189B36",
"w  c #1B9D34",
"e  c #229D29",
"r  c #2F982A",
"t  c #2B863C",
"y  c #348C3B",
"u  c #3A943C",
"i  c #1BA62A",
"p  c #1BA32C",
"a  c #18B827",
"s  c #16A436",
"d  c #1CA434",
"f  c #1CAA33",
"g  c #1DA53C",
"h  c #1CAB3D",
"j  c #1DB239",
"k  c #23A32C",
"l  c #26A72C",
"z  c #27B02F",
"x  c #25A433",
"c  c #23A937",
"v  c #2BAB35",
"b  c #2CAD3A",
"n  c #33A935",
"m  c #33AE39",
"M  c #24B339",
"N  c #2DB13B",
"B  c #36B63A",
"V  c #32B33D",
"C  c #439A18",
"Z  c #429C34",
"A  c #48A62B",
"S  c #49A739",
"D  c #4CB132",
"F  c #57B638",
"G  c #65BB2E",
"H  c #63BD37",
"J  c #04D405",
"K  c #11D500",
"L  c #35D800",
"P  c #00D422",
"I  c #1AC33A",
"U  c #00D536",
"Y  c #24CF3F",
"T  c #5CDC00",
"R  c #6DDE00",
"E  c #71DE00",
"W  c #7DDE00",
"Q  c #7DE000",
"!  c #4DC13C",
"~  c #69C43B",
"^  c #73C93A",
"/  c #2B8944",
"(  c #318C43",
")  c #328D49",
"_  c #389748",
"`  c #359A53",
"'  c #1EAA42",
"]  c #1EB145",
"[  c #22AC43",
"{  c #26AB45",
"}  c #24B344",
"|  c #2CB343",
" . c #2AB948",
".. c #32B543",
"X. c #38BA46",
"o. c #33B04D",
"O. c #34BB4B",
"+. c #3CA356",
"@. c #35BE53",
"#. c #25966B",
"$. c #35AB6C",
"%. c #429D45",
"&. c #48A647",
"*. c #4BAA4B",
"=. c #51AD48",
"-. c #46B749",
";. c #57B549",
":. c #47A956",
">. c #4CB55A",
",. c #56B757",
"<. c #5CBB55",
"1. c #62BE51",
"2. c #4BB866",
"3. c #4CB36A",
"4. c #58BC63",
"5. c #48BC77",
"6. c #60BD6C",
"7. c #1CCA47",
"8. c #00D64A",
"9. c #00D85E",
"0. c #2AC748",
"q. c #39C449",
"w. c #2DCD52",
"e. c #3AC556",
"r. c #3AE05C",
"t. c #01D860",
"y. c #00D97B",
"u. c #3CC76D",
"i. c #48C44C",
"p. c #45C957",
"a. c #58C557",
"s. c #52CD54",
"d. c #67C649",
"f. c #73CC48",
"g. c #7AD34C",
"h. c #68C758",
"j. c #74CD57",
"k. c #69D559",
"l. c #7AD657",
"z. c #48CB67",
"x. c #58C568",
"c. c #56D567",
"v. c #59C976",
"b. c #4CD072",
"n. c #5AD876",
"m. c #63C463",
"M. c #67C968",
"N. c #6BCC6B",
"B. c #72CE67",
"V. c #69D669",
"C. c #78D668",
"Z. c #6ACC76",
"A. c #67D87A",
"S. c #78D975",
"D. c #58E374",
"F. c #73E278",
"G. c #FF8100",
"H. c #FE9B00",
"J. c #FEAC00",
"K. c #FFB500",
"L. c #FEBB00",
"P. c #81DF01",
"I. c #89E100",
"U. c #92E100",
"Y. c #B3E400",
"T. c #FDC700",
"R. c #FDCA00",
"E. c #F5DE00",
"W. c #D3E600",
"Q. c #D4E800",
"!. c #E4E600",
"~. c #E6E800",
"^. c #F3E000",
"/. c #81D44D",
"(. c #84DA59",
"). c #84DC67",
"_. c #91DD6D",
"`. c #85DD77",
"'. c #88E16B",
"]. c #97E26B",
"[. c #95E36E",
"{. c #88E278",
"}. c #94E579",
"|. c #44B882",
" X c #00DC94",
".X c #00DDA7",
"XX c #4CC987",
"oX c #58CB85",
"OX c #5BD385",
"+X c #69D786",
"@X c #75DB88",
"#X c #71DA94",
"$X c #6AE386",
"%X c #79E68A",
"&X c #7CE696",
"*X c #71E893",
"=X c #6DDDA6",
"-X c #7BE9A5",
";X c #018BFB",
":X c #01ADFE",
">X c #00DFC7",
",X c #00DEDE",
"<X c #00E0DE",
"1X c #00DAEA",
"2X c #01C8FC",
"3X c #00D0F9",
"4X c #88DC8E",
"5X c #88E687",
"6X c #97E888",
"7X c #8BF18C",
"8X c #87E897",
"9X c #94EC94",
"0X c #9CEC94",
"qX c #98EB9A",
"wX c #98F39B",
"eX c #A4EC87",
"rX c #A5EE97",
"tX c #ADF195",
"yX c #A8F198",
"uX c #87EAA5",
"iX c #97EDA5",
"pX c #9BF3A7",
"aX c #91F3B4",
"sX c #AAEDA8",
"dX c #A7F3A8",
"fX c #B8F5A9",
"gX c #A8F5B5",
"hX c #B6F7B7",
"jX c #CEF9B3",
"kX c #C6F9B8",
"lX c #B8FAC6",
"zX c #B1FCD0",
"xX c #C8FBC5",
"cX c #D8FDC6",
"vX c #D8FED3",
"bX c #E2FDC4",
"nX c #E6FEDC",
"mX c #EDFFE6",
/* pixels */
"% * # % # * & # & # $ # # & & & & & & & & # * 5.5.XXoX+XoX|.5.oX5.5.5.oX+X+XXX$.b.3.& & # & & & & & $ & & & # $ # % % $ % $ * * ",
"% % $ $ # # % $ $ $ $ $ # $ $ & # % # $ $ $ * oXiXhXgXiX&X+XoXoX+XoXoX#XiXgXgXgX=X$.& & # # & $ $ $ $ # $ # $ $ # % $ $ $ $ $ $ ",
"= = $ = = = = = = = = = = = = $ = = = = = XXpXhXdX0XpXiX&XoXoX+X#XoXoX4XuXqXpXrXkXfX+X$.= = = = = = = = = = = = = = = $ = = = = ",
"- - - - - - - - - - - - - - - - - - - - &XyXdXqXqXpXuXuXuX&XoXoXoXoX&X=XuXiXiXpXuXqXsXuXXX- - - - - - - - - - - - - - - - - - - ",
"; ; ; ; ; : ; ; : : : : : : : : : : : iXyX8XiX5XqXsXgXhXhXuX=X&XuX#XuXgXhXhXgXiX5XqX8X0XpXXX: : : : : : : : : : : : : : : : : : ",
"G.G.G.G.G.G.> > G.G.G.: G.G.G.G.G.G.wXrX8X&X5XdXgXxXkXkXhXhXsX&X+XiXsXhXhXkXkXhXgXqX5X8X0XdX+XG.G.G.G.G.G.G.G.> G.G.G.G.G.G.> G.",
"J.H.H.H.H.H.H.H.H.H.H.H.H.H.H.J.H.wXyX9X5XqXfXhXjXjXkXkXkXhXiX@X@XuXgXhXkXkXjXjXhXdXdX5X9X0XyX#XJ.H.H.H.H.H.H.H.H.J.H.H.H.H.H.H.",
"J.J.J.J.J.J.J.J.J.J.J.J.J.J.J.J.iXsX9XqX0X0XhXjXkXeXtXrXrXqXuX#X@XuXiX0XeXtXtXfXjXkXqX0X0X8XtXwX#XJ.J.J.K.J.J.J.J.J.J.J.J.J.J.J.",
"T.L.K.L.K.L.L.K.K.K.L.L.K.K.K.K.sX0X8XrX6XdXhXjXeXfXkXcXkXkXhXdXiXhXhXxXcXxXhXeXjXjXhX0X0X5X0XfXiXXXL.L.K.T.L.L.L.L.L.L.K.L.L.L.",
"R.R.R.T.R.R.R.R.R.R.T.T.T.T.R.dXyX5X0X5XyXkXjXkXxXfX5XC.k.S.}.%XS.6X{.k.k.{.yXcXfXjXfXfX5XqX8X9XsX-X$.R.R.R.R.R.R.R.R.T.R.R.R.R.",
"E.E.E.E.^.E.E.E.E.E.^.^.^.^.aXkX`.%X0XrXkXfXxXkX7X! l k p k ..-.-.X.k e k k B k.xXkXkXfXyX6X9XS.fXgXXXO E.E.E.E.E.E.E.E.E.E.^.^.",
"!.!.!.!.!.~.!.~.~.~.~.~.~.~.kX6X%X5X0XfXtXfXjXdXl 0 9 e 9 0 9 r k 7 9 0 9 0 0 k F.jXkXyXfX0X9X4X5XjX-X#.!.~.~.~.~.~.~.~.!.!.~.~.",
"W.W.W.W.Q.Q.Q.Q.Q.Q.Q.Q.Q.aXhXS.@XsXqXrXyXhXkXc.p e 7 7 4 4 4 4 7 4 4 4 4 7 0 p | hXkXrXfX5XhX8XA.qXhX|./ Q.Q.W.Q.Q.Q.Q.Q.Q.Q.Q.",
"Y.Y.Y.Y.Y.Y.Y.Y.Y.Y.Y.Y.Y.lX8XS.4XlX5XyX0XhXgXM p 0 4 3 3 3 3 4 4 4 4 4 3 4 9 p l &XhXdXyX0XsXaXA.S.xX=X+ Y.Y.Y.Y.Y.Y.Y.Y.Y.Y.Y.",
"U.U.U.U.I.I.U.I.U.U.I.I.I.vXv.n.pXgX6X0X9XhXuXk x 9 3 , , 4 4 7 4 4 4 , o < 6 p i n.hXsX6X5XrXlX+Xn.iXzX#.o U.I.U.U.U.U.U.U.I.U.",
"P.P.W W W Q I.Q Q Q I.P.zX@Xv.+XhX9X5X6XiX0X%Xk 9 7 4 , , , < 6 9 4 < , o < 6 8 k c.rXpX5X6XS.xX8Xv.XXxXoX. I.Q I.I.Q Q Q Q W P.",
"E E R R R R E R E E E E lX5.oX8XxX5X0X`.iX5XA.k 0 9 7 3 3 6 6 7 6 7 6 3 4 7 7 0 0 z.7X7X@XrXS.hXiX+X2.iXzX+ ( R R Q R R R R R R ",
"T T T T T T T T T T T zX#X5.&X8XxXA.0X5X8X{.z.x 0 0 7 3 3 7 7 7 7 7 6 < 3 4 9 k 0 O.5X5X9X6X8XsXgX&Xv.5.zX|.X T T T T T T T T T ",
"L L L L L L L L L L L zX2.v.%XsXhXiX5XqXS.iXz.f p p 6 < < , < 7 7 < < , < 3 8 i k  .uX{.8X5XqX4XxX@X+X$.iXaX. :.L L L L L L L L ",
"K K K K J K K K K K aXuX$.A.@XlX4XiX8X4XF.pX0.z i 8 1 , , , < < 1 < , , , < 1 k z M -X6XA.qXsX@XxX%X@X5.v.lX#.. K K K K K K K K ",
"J J J J J J J J J J zX3.5.+X@XvX@XiX9XA.9XuX0.e.q.B B z i 1 8 1 1 8 1 i z z B q.e.0.n.gXx.dX5X&XlXdXS.v.` zX#X  v.J J J J J J J ",
"J J J J J P J J J uXlX) 2.Z.gXkXA.+XgXb.gX8X%X%X7X7XdXwXwXc.q.x 8 B p.7XwXdXwX7X%X7X$XhX@X8X#X8X8XhX@X5.+.+XlXX ) J J J J J J J ",
"U P P P P P P P P aX5.+.2.+XhX+X4X+X8X+XlX%Xp.a z B q.p.c.c.s.M z q.c.c.p.w...z a q.D.lX&X+X8X%X4.xX8X5.$.` lX5.  +XP P P P P P ",
"U U U U U U U U v.uX/ +.Z.8XlX>.@X@XA.-XgXq.0.8XlXkXkXV.0.q.0.c d  .q.0.c.fXhXcXpXe. .&XgXb.iXz.v.qXaXZ.:./ oX-X  ` U U U U 8.U ",
"8.8.8.8.8.8.8.8.&X5.( 2.Z.pX+Xx.z.8Xb.aX-XF.xX}.`.lX{.C D.q. .g q  .V b.! G gXpXd.cX8X$XzXv.+Xv.A.>.pX@Xv._ ) aX/ . Z.8.8.8.8.8.",
"t.t.t.9.9.9.9./ &X/ ` M.@XpX%.v.x.+X+XaXu.X.p.D.k.F.! D q.c l [ h b e e.! B F.k.V.c.q.0.-X-XOX+Xv._ 8X8XV.+.t +X3.. 3.t.t.t.9.9.",
"y.y.y.y.y.y. X3.x.` :.M.@X@Xo.x.+Xb.-X#XN x d d N z 0.B B l h ] j c M z B B N M x d x M z.aXb.$X4.x.2.8Xv.4._ +.OXX / Z.y.y.y.y.",
" X X X X X XX v.3._ 4.m.5X_ x.>.=Xu.-X@.p 3 6 6 < 1 2 i p f h h h h h x l e e < 4 3 3 8 ] *XoXOXv.x._ S.Z.m.%.+.v.O ` `  X X X X",
".X.X.X.X.X.XX M.+.%.6.S.N._ x.n.XXc.n.s q 3 6 8 9 7 i i s j h h h h h j i i 8 7 8 6 < 8 i u.+Xb.OX>.2.*.4X6.,._ 4.:.@ / Z..X.X.X",
">X>X>X>X>XX :.4._ 4.4.S._ 4.2.+X2.n.e.d 8 3 8 s p l f j h s g ' ] h s s j j f i s 8 6 6 p M OX2.OXx.x.t N.m.6._ 3.:.X ` 3.>X>X>X",
"1X,X,X,X1XX :.4._ 4.h.m.y 4.M.+X>.OX] s 5 5 6 8 i i i 8 p ] ] ] ] ] ] s 1 i i i i 5 6 5 q f b.x.v.A.x.*.=.B.m.*.&.>.) @ :.+X<X<X",
"1X1X1X1X1X) *.%.&.,.N.*.&.2.+Xv.a.b.j q 5 5 6 < < < < f j w.w.q s } w.} j 8 < , < 6 6 5 q h e.b.>.&X4.>.O S.,.,._ :.%.X ) v.1X1X",
"3X2X3X2XX %.,.O ,.,.M.u >.M.+X-.b.u.' q 5 8 8 6 1 1 j M d ] h 8 8 q ' M f } i < < 8 8 q q ' w.XX,.n.Z.,.%.,.,.<.y :.:.+ @ 3.Z.2X",
"2X2X2X2X@ %.:.y =.;.=._ x.V.2.<.XXe.[ ' s s s p i M 0.f f 7.b.u.w.b.w.j d  .j i f i s s ' '  .XX-.>.A.x.:.%.,.;.%.%.%.) O :.M.:X",
":X:X:X` ) _ %.%.=.<.u *.m.N.a.>.XX .} ' ] h ] M j  .h f f f M 0.w. .f f d f 0.M j j h h ' ' } XX2.a.x.N.,.Z ,.;.*.@ %.%.O 3.3.:X",
";X;X6.O ) %.y *.,.,.&.=.B.x.a.z.u.} { ' ' ] } } } } f p s f 8 8 s 8 s f p f j  . .} ] [ ' g { @.OX<.a.V.,.%.=.<.*.%.%.) t 3.3.Z.",
";X;X_ / y %.y *.;.&.Z ;.V.V.-.iXu. .{ q ' [ M c f f f d i p 8 k i 8 0 i q q f d g [ ' ' g {  . .uX>.x.V.h.%.%.<.*.u _ _ y ( :.:.",
"%.` X ( _ _ _ &.<.%.*.<.C.a.>.nX@.} [ ' ] ] ' q M e.w.w.0.0.0.Y Y 0.0.0.0.w.e. .x g g } ' ' } o.gX5X-.C.h.*.Z ;.=.%.y %.( O / :.",
"O O O ) ) y %.=.,.Z %.h.B.;.m.mXz. .{ ' g g g w M }  .w.w.0.Y r.r.r.0.w.w.w. .} g g g ' ' '  . .vXrX&.M.j.*.Z *.,.=.u ( ( @ X @ ",
".   ) ( ) %.=.,.=.S *.j.C.S 4XnXsX . .' g ' g c q q g ] 7.Y a I a i I 7.0.s q w w g g ' ' }  .v.mXsXS k.B.;.&.S m.*.&.( ( ` .   ",
"    _ @ %.:.=.M.=.S ;.C.k.A 6XnXvX@. .} ] [ ' g ' q w w } w.w.Y Y 0.w.0.c q q w { w [ ' [  . .gXnXhXD <.C.<.S S m.=.*.:.O ` O   ",
"  @ ` O :.,.,.N.S &.<.B.h.Z 4XnXmX&Xe. .} [ [ { / q q d f M q.p.r.q. .i g w w q [ { { [  .w.A.vXnXhXD a.C.h.*.S 1.6.*.>.( ) )   ",
"  ) ` ( 2.,.m.h.=.=.h.C.M.D 5XvXnXwXn.z.@. .{ { ' q w w w 0 0 8 8 8 i 0 w w q ' ' }  . .e.n.%XvXnXhXF =.C.h.=.=.1.N.,.4._ / ` X ",
"X ` ) _ 4.<.Z.,.=.;.h.S.h.A }.xXvXpXc.A.b.@. .@.{ g c q 9 < , < 1 , < 9 w w q ' @.o.@.b.$Xc.F.vXcXfXD D S.B.;.;.,.N.6.<.:.( ` @ ",
"@ ) / :.6.B.B.<.=.;.h.S.j.r 0XdXxXgXz.s.n.n.z.e.e. .] q 0 p 8 i i 1 i p q h } e.@.z.n.n.c.p.%XvXdXkXA F S.B.<.=.=.B.N.4.4.( ) @ ",
"O ) @ >.m.Z.S.,.,.;.V.`.C.C 0XwX0XhXc.p.z.z.n.+Xb.b.e.} j M z z z z M } } O.z.b.n.OXz.p.p.p.iXdXiXhXA ;.5XV.h.&.,.B.Z.M.,.( ) O ",
"X ) t ,.N.Z.m.4.*.,.C.S.B.A '.wX6XwXc.p.e.i.e.p.c.n.n.n.z.e.q.p.p.q.p.e.b.n.n.n.z.p.@.p.p.p.wX5X9XrX2 d.{.S.m.&.<.m.N.Z.4._ t O ",
"X X ) ,.Z.m.,.1.Z B.S.`.`.A C.wXrXV.A.p.@.X.@.O.e.c.b.n.$X$X&X&X&X&X*XF.n.n.b.p.e.O.X.X.p.c.S.6X7X9XA h.`.`.C.*.,.<.4.Z.4.&.. @ ",
"/ X %.4.M.4.,.,.*.B.`.`.`.S h.0X6X{.V.p.e.O.O.o.X.p.z.b.n.+X*X%X%X%X*XA.n.z.p.o.o.....e.i.n.k.0X5X{.F h.`.6XN.<.&.a.4.m.4.>.O O ",
"X y :.>.N.<.,.%.h.M.6XC.B.F j.{.5X6Xd.p.e.O.| | | ..-.p.c.V.V.c.s.n.V.x.z.p.X.....| ..@.e.k.}.{.5XC.F h.).5XB.N.Z ,.,.N.4.:.Z . ",
"o _ :.Z.m.*.&.&.N.N.{.).k.;.d.F.{.}.f.s.X.o.O.m b ..O.X.i.p.i.-.i.i.i.p.-.....m ..| O.X.s.d.}.{.S.j.;.d.B._.C.B.,.Z =.<.S.,._ t ",
"y +.M.B.&.Z u h.M.).`.C.d.d.d.j.l.l.).d.X.O. .....m ..B V B V n v n B V B V ..m ....O...i.g.C.(.l.d.d.d.j.`.`.M.N.%.&.u m.Z.:.( ",
":.N.B.=.Z Z S m.N.`.C.j.F d.d.d./.f.(.~ i.O.O.| ..m X.-.m m n v v n m V B X...m ..| O.X.~ g.^ /.j.H d.d.d.C.).S.4.;.Z S S h.S.>.",
"x.h.D Z ;.%.=.6.j.j.C.j.~ h.h.~ /.^ ~ f.d.N | ......V m m m n b m b n m m V ..X.......i.~ ^ ^ g.f.d.h.H d.C.j.j.B.,.&.&.S A 1.M.",
";.D A `.*.;.;.h.h.f.d.h.~ d.j.F g.^ ~ ~ d.X.q.N m m ..V n B ..m ..N B m V V V V N  .o.a.~ ~ G g.d.d.h.~ d.d.j.1.h.<.=.=.B.;.A ;.",
"D h.S.:.,.1.;.;.D F F j.F j.l.F ^ ^ G ~ f.e. .B m m v m X.m ..a.s.-.m ..V n n b V X.B d.^ ~ ~ f.~ d.B.d.d.d.D F =.;.h.;.%.N.B.F ",
"cXkXsXB.1.`.S C C C h.d.1.C.d.d./.^ ~ g.l.i.N  ...B V V ..m X.s.c.X...m ..V ..V N  .X.k.g.~ ^ g.d.d.).h.F `.C C C r N.B.B.4XkXkX",
"fXtXB.1.`.).r r A A _.1.h.[.f.l.(.g.~ l.l.i.N N V ..V ..b v x X.q.m x c ..V B V B V X.l.l.~ g./.g.g.).C.1.).d.C C r ;.`.j.1.tXsX",
"jXf.h.6X4X1.Z F 1.j.}.d.[.l.].l.(.g.g.(.{.i.M B ..X...b b b x { ..x b n m V X...N b B F.).g.f.'.l.].f.}.d.C._.;.1.S S 6X6XB.1.tX",
"d._.`.6X_.1.1.j.f._.l.j.l.l.[.'.'.g.l.l.7Xp.B z N V b n x x x b ..x x x v N V N B z q.%X{.l.g.l.'.[.).f.(.g.6Xf.j.1.1.(.6X`._./.",
"eX).).B.C.B.j.).'.}.l.'.).}.[.'.l.g.'.F.7Xp.v V N N z b c x x v b x n x v b V N B v X.F.7Xl.l.l.).'.}.[.(.C.).{.).B.B.).).).)._.",
"f.f.j.6XtX6XS.5X6X{.'.}.}.[.C.'.(.l.k.yX&Xi.v b m B V v x r x | m v w x c b B N b v B F.dXl.l.(.).C.'.}.eX{.{.eX6XC.4XeXrX(.j.1.",
"j._.tXjX0X{.}.yXyXC.}.kX{.[.6X'.'.g.g.wXc.q.l k v b v c x w x x x x w x l b v v l l z c.7XF.f.l.C.0X[.{.tXyXj.eXyX4X5X6XjXjX_.j.",
"bXbXbXjXjX6XwXeXC.f.jXeX6X}.6X{.l.g.{.V.i.z e r k l x l x e e x -.e e x x l k l k 2 z i.s.wX~ (.'.6X}.}.eXjX).l.}.tX6XrXjXbXbXbX"
};
