/* XPM */
static char *_77cdf7496a64eeabca831f246807e27aQTGb8Fp62UPgGrZ[] = {
/* columns rows colors chars-per-pixel */
"64 64 213 2 ",
"   c black",
".  c #0E0021",
"X  c #150028",
"o  c #190035",
"O  c #2F0232",
"+  c #270138",
"@  c #13014C",
"#  c #180257",
"$  c #1A0256",
"%  c #290247",
"&  c #370348",
"*  c #2A0457",
"=  c #22035C",
"-  c #370558",
";  c #1D0265",
":  c #230364",
">  c #290469",
",  c #35076A",
"<  c #2D0575",
"1  c #340772",
"2  c #390878",
"3  c #4D0851",
"4  c #480758",
"5  c #460968",
"6  c #570B68",
"7  c #490B78",
"8  c #580E79",
"9  c #671173",
"0  c #FF1F09",
"q  c #F9280C",
"w  c #F7320E",
"e  c #F9340C",
"r  c #F4390E",
"t  c #F73411",
"y  c #F60021",
"u  c #FE1C2A",
"i  c #FE4302",
"p  c #FF6300",
"a  c #FC6F01",
"s  c #FF7200",
"d  c #FF7F00",
"f  c #801D7B",
"g  c #FE1C51",
"h  c #FD1F76",
"j  c #03D402",
"k  c #0FD500",
"l  c #01D30C",
"z  c #12D500",
"x  c #37D800",
"c  c #00D423",
"v  c #00D528",
"b  c #00D535",
"n  c #00D639",
"m  c #5CDC00",
"M  c #6EDE00",
"N  c #71DE00",
"B  c #7EDF00",
"V  c #7DE000",
"C  c #00D64B",
"Z  c #00D84B",
"A  c #00D85D",
"S  c #00D861",
"D  c #00D97B",
"F  c #FF8100",
"G  c #FF9700",
"H  c #FE9A00",
"J  c #FFAB00",
"K  c #FFB700",
"L  c #FEBA00",
"P  c #81DF02",
"I  c #8BE100",
"U  c #91E100",
"Y  c #AFE400",
"T  c #B3E400",
"R  c #FCC700",
"E  c #FDCA00",
"W  c #F4DE00",
"Q  c #D5E700",
"!  c #E5E700",
"~  c #F3E000",
"^  c #320988",
"/  c #4A0D88",
"(  c #550D89",
")  c #571289",
"_  c #4A0D96",
"`  c #4F1090",
"'  c #581397",
"]  c #6C138A",
"[  c #67189A",
"{  c #76199A",
"}  c #792499",
"|  c #5B15A7",
" . c #5016B2",
".. c #6719A7",
"X. c #771CA5",
"o. c #681CB5",
"O. c #751CB6",
"+. c #6D21AF",
"@. c #7724AA",
"#. c #7926B9",
"$. c #0D16FE",
"%. c #1016FE",
"&. c #2C12FE",
"*. c #0226FE",
"=. c #0032FE",
"-. c #003FFE",
";. c #6F24CD",
":. c #7929C4",
">. c #7429CF",
",. c #4114FF",
"<. c #5715FE",
"1. c #7019FE",
"2. c #0041FE",
"3. c #0053FD",
"4. c #006DFC",
"5. c #0072FD",
"6. c #86188F",
"7. c #8C2794",
"8. c #881CAB",
"9. c #8729B8",
"0. c #9130B3",
"q. c #A92EA5",
"w. c #A434B5",
"e. c #FD2091",
"r. c #FD21A8",
"t. c #A641B1",
"y. c #B44BB4",
"u. c #C559B6",
"i. c #C860BF",
"p. c #872DC7",
"a. c #912AC8",
"s. c #8935C8",
"d. c #9739C6",
"f. c #8C3BD6",
"g. c #9539D5",
"h. c #A62BC8",
"j. c #A837CB",
"k. c #B434CC",
"l. c #B12ADC",
"z. c #A838D7",
"x. c #B63BD8",
"c. c #811BFE",
"v. c #941CFE",
"b. c #AC1EFF",
"n. c #8739E3",
"m. c #C537D8",
"M. c #FE24CE",
"N. c #CF2DF2",
"B. c #F425F7",
"V. c #9A44CA",
"C. c #9846D9",
"Z. c #9749DB",
"A. c #A349CA",
"S. c #B257CE",
"D. c #A54BD7",
"F. c #B745DA",
"G. c #A857D8",
"H. c #B767D6",
"J. c #B866DA",
"K. c #9A4AE6",
"L. c #9A53EB",
"P. c #AD4FEC",
"I. c #B948E4",
"U. c #A757E7",
"Y. c #AF65EB",
"T. c #B66AE6",
"R. c #BC76E8",
"E. c #C347DD",
"W. c #D256DA",
"Q. c #CB6FD5",
"!. c #C64BE6",
"~. c #C957E7",
"^. c #D25AE9",
"/. c #CB53F0",
"(. c #D35AF2",
"). c #CC64EF",
"_. c #D769EB",
"`. c #C479E8",
"'. c #DB72ED",
"]. c #D869F4",
"[. c #DC74F4",
"{. c #E075EA",
"}. c #E176F3",
"|. c #00DC8E",
" X c #00DC94",
".X c #00DD9D",
"XX c #00DEA6",
"oX c #00DDA9",
"OX c #0083FE",
"+X c #008FFD",
"@X c #0092FE",
"#X c #00ADFE",
"$X c #00DFC5",
"%X c #00DFC9",
"&X c #00DFDE",
"*X c #00E0DA",
"=X c #00DEE1",
"-X c #00DAED",
";X c #00C4FF",
":X c #00CFF8",
">X c #00D0F9",
",X c #00E0E0",
"<X c #BD81EF",
"1X c #C885EB",
"2X c #C688F2",
"3X c #D093F1",
"4X c #E98AF2",
"5X c #D8A4F6",
"6X c #E2ADF3",
"7X c #E7B9F5",
"8X c #F5D2FC",
"9X c #FBE4FD",
"0X c #FEFFFD",
/* pixels */
"r t w r w t w w w w e r e q w t w q w q w t t e t e y y y y y y y y y y y y y y y y y y y y y y y     0X0Xt e w t t t t t e t t ",
"r r e e r w w e e w e e e w q w e e w w w e r e e e y y y y y y y y y y y y y y y y y y y y y y y y y   0Xe e e e e e e e e e e ",
"i i e i i i i i e i i i i i i i i i i i i i i i i y y y y y y y y y y y y y y y y y y y y y y y y y y     0Xi i i i i i i i i i ",
"p p p p p p p p p p p p p p p p p p p p p p p p y y y y y y y y y y y y y y y y y y y y y y y y y y y y y   0Xp p p p p p p p p ",
"a a a a a s a a s s s s s s s s s s s s s s s   y y y y y y y y y y y y y y y y y y y y y y y y y y y y y     s s s a s s s s a ",
"F F F F F F d d F F F F F F d F d d d F F F F y y y y y y y y y y y y y y y y y y y y y y y y y y y y y y y     d F F d F d F F ",
"J H H H H H H H H H H H H H H H G G G H J H y y y y y y y y y y y y y y y y y y y y y y y y y y y y y y y y y y 0XH H J H H H H ",
"J J J J J J J J J J J J J J J J J J J J J y y y y y y y y y y y y y y y y y y y y y y y y y y y y y y y y y y y   0XJ J J J J J ",
"L L L L L R L L K K L L L L K K L L L L   y y y y y y y y y y y y y y y y y y y y y y y y y y y y y y y y y y y   9XL L L L L R ",
"E R R R R E E R R R R R R R R R R E E E y y y y y y y y y y y y y y y y y y y y y y y y y y y y y y y y y y y y   A.E R R E E R ",
"~ W W W W W W ~ ~ ~ ~ ~ W ~ W W ~ ~ ~   y y y y y y y y y y y y y y y y y y y y y y y y y y y y y y y y y y y y   1X1XW W W ~ W ",
"! ! ! ! ! ! ! ! ! ! ! ! ! ! ! ! ! ! !   y y y y y y y y y y y y y y y y y y y y y y y y y y y y       y y y y y     7X! ! ! ! ! ",
"Q Q Q Q Q Q Q Q Q Q Q Q Q Q Q Q Q Q                                                       O     R.Q Q     y         7XQ Q Q Q Q ",
"T T T T T T T T T T T T T T T T T O                                                       O   3XT T T Y   y       7X7XT T T T T ",
"U U U U U I U U U I U I I U U U U 9X9X9X9X9X9X9X9X9X9X9X9X9X9X9X9X9X9X9X9X9X9X9X9X9X8X8X8X9XO 3XU U U U U y     7X8XU U U U U U ",
"P B B B V V V V V V V V V V V I O 9X9X9X9X9X9X9X9X9X9X9X9X9X9X9X9X9X9X9X9X9X9X9X9X9X8X8X9X9XO 3XV V V B V I   7X7X7XV V V V B P ",
"N N M M M M M M V M M V M M V O O 9X9X9X9X9X9X9X9X9X9X9X9X9X9X9X9X9X9X9X9X9X9X9X9X9X8X8X8X9XO 5XM M M M M V 8X7XM N M M M M M M ",
"M m m m m m m m m m m m m m m m 5Xy.6                                                   8     m m m m m m m   m m m m m m m m m ",
"x x x x x x x x x x x x x x x x x x 6.] X.7 } ~.).'.[.4X[.].[.].].].[.[.4X[.'._.F.8 * ' } 3 y.x x x x x x x     7Xx x x x x x x ",
"l z z z k k k k z z z z k z z z z z 4 ] X.- a.~.[.[.[.[.[.].].].].].].[.[.[.'.'.~.] % 0.) 7.f z z z z z z 9X9X9X7X7Xz k j k k k ",
"j j j j l j j j j j j j j j j j j k 9 6 ) & h.~._.].[.].].).].].].].(.].].[.)._.~.8.% ] ] 6 9 u.k k j j j 9X9X9X  7Xj j j j j j ",
"l l l l l l l l l l l l l l l l l j ] - ( O j.~.~.z.h.z./.(.(.(.].(.(.I.h.l.z.~._.8.+ X.5 9 6 q.l l l l l 9X9X9X7X7Xl j l l l l ",
"c c c c c c c c c c c c c c v c c c 6 6 { + w.] ( ( ] ( { x./.(.(./.l.[ ( ( [ ( { 0.+ X.3 7.t.7.1Xv v v 7X      7X7Xc c c c c c ",
"n b b b b n b b b b b b n n n n n 7.& 4 8 + ] I.I.I.l.z.g.l.I.(.).x.h.z.z.l.I.I.x.6 O { 6 9 7.O i.n n n n 8X7X7Xb b b b b b b b ",
"C C C C C C C C C C C C Z Z Z Z Z S.0.q.5 O j.x.8.O.7 h.x.I.z.(./.j.x.z.h.7 O.9.x.8.o ] 4 6 } i.7.Z Z Z Z Z Z Z Z Z C C C C C C ",
"S A S A A A A A A A A A A A S S S 6.{ w.& 4 9.& _ n.^ 9 p.z.z._.~.z.l.K.4 5 K.> 5 X.3 6 w.{ 7.S.f Q.S S A A A A A A S A A S A A ",
"D D D D D D D D D D D D D |.D D t.9 7.0.O 9 { / #.P.6 a.l.h.x.4X_.P.a.z.8.] P.| / ] 6 % w.w.9 t.7.y.D D D D D D D D D D D D D D ",
" X X X X X X X|. X X X|. X|.|.|.0.w.w.0.6 { z.F.I.I.I.N.P./.E.4X'.x./.I.I.x.I.I.F.h.9 3 w.7.0.t.u.7. X X X X X X X X X X X X X|.",
"oXoXoXoXoXoXXXXXoXoXoXoXXX.XXX.Xt.y.S.8.3 8.~._.).)././.Y.I.W.4X'.W.I././.).).)._.I.7.4 w.0.V.y.Q.t.H..XXXoXXXXXoXoXoXoXXXXXXXXX",
"%X%X%XoX$X%X$X$X$X$X$X$X$X$X$Xq.t.A.`.] O k.).[.[.[.]._.^.^.W.4X4XW.W.^./.].[.].[.~.0.O } H.A.y.t.t.H.$X$X$X%X$X$X%X$X$X$X$X%X%X",
"=X&X&X&X=X&X&X&X&X&X&X&X&X&X&Xy.J.S.V.& O F._.{.[.}.]._.^.W.{.}.4X_.W.W.].[.[.[.'._.k.O 7 A.0.S.S.Q.S.*X*X&X,X,X,X,X,X,X&X=X&X&X",
":X-X-X-X:X-X-X-X-X-X-X-X-X-X-XS.V.`.[ + 3 E._.'.[.[.].].^.w.{.].'.{.k._.].[.[.[.'._.F.& + 9.R.H.Q.S.Q.1X-X-X-X-X-X-X-X-X-X-X-X-X",
">X>X>X>X>X>X:X:X>X>X>X>X>X>XQ.H.3Xs.- + + E._.'.}.].}.(.k._.}.(.]._.W.m._.].].}.[._.k.% + ) G.S.H.H.J.`.>X>X>X>X>X>X>X>X>X>X>X>X",
";X;X;X;X;X;X#X;X;X;X;X;X;X;XS.S.`.' o % ( k.^._.].(./.m.w.E.m.!.!.m.E.h.!.^.(.]._.W.j.( % * 9.R.S.J.V.`.2X;X;X;X;X;X;X;X;X;X;X;X",
"#X#X#X#X#X#X#X#X#X#X#X#X#XJ.H.R.@.7 - o [ j.~.^.(.^./.m.m.q.8.h.h.6.h.k.m.!.(.^.^.E.w.( o % ) 9.H.J.H.1X2X#X#X#X#X#X#X#X#X#X#X#X",
"@X@X@X@X@X@X@X+X@X@X+X@X@XR.T.V.@., o X + 0.F.F.!.!.!.E.!.!.m.m.m.x.W.m.!.!.!.!.E.x.6.X o % ) 9.V.R.J.R.3X5X@X@X@X@X@X@X@X@X+X+X",
"OXOX+XOXOXOXOXOXOXOX5.OX<X<XG.C.@.' + X . 9 j.x.m.x.x.E.^._.!.m.!.^._.^.E.m.!.x.k.F.6 . X o / #.D.T.<X<X3X5XOXOXOXOXOXOXOXOXOXOX",
"5.5.5.5.5.5.5.5.5.4.5.5.2XR.G.Z...[ + X X 6 F.k.E.E.F.x.^.m.!./.!.!.^.E.x.E.F.F.j.F.O . X % 2 +.G.Z.1X2X2X3X4.4.5.5.5.5.5.5.5.5.",
"3.3.3.3.3.3.3.3.3.3.3.3X2XR.Y.f.+.X.o + . X F.F.z.~.E.] q.h.m.l.k.l.h.h.8.!.~.x.I.A.. X X + ' :.Z.Y.R.2X2X3X5X3.3.3.3.3.3.3.3.3.",
"2.2.2.2.2.2.-.2.2.3.2X2X2XZ.Y.Z.p.1 + + X o 0.~.F.~.(.!.k.N.m.!.N.N.m.x.^._.F.F.~.& X X & + [ :.f.Y.Y.2X2X3X3X3.2.-.-.-.2.2.-.-.",
"=.=.=.=.=.=.=.=.-.1X<X2XT.R.L.:.#.7 4 & + X o I.D.F.!.~.F.m.m.N.m.m.m.W.~.~.F.D.F.o o + - 4 [ #.f.Y.Y.2X2X<X1X3X=.=.=.=.=.=.=.=.",
"*.*.*.*.*.*.*.*.<X<X1X<XL.R.K.C.Z.7 5 ' 5 o X w.F.F.F.~.~.~.k.h.k.k.!.W.F.F.F.F.- o % 5 7 8 ` >.Z.L.Y.Y.1X2X<X1X*.*.*.*.*.*.*.*.",
"%.$.$.$.$.$.%.%.<X<X2XR.K.Y.L.Z.K.[ / / ..> 4 Z.z.F.F.F.~.).^.).).^.^.~.z.F.x.d.) 5 : ' ) ` [ K.:.L.Y.U.R.3X<X<X1X$.$.$.%.%.%.%.",
"&.&.&.&.&.&.&.Q.H.T.<XY.K.K.Z.U.Z.| o.' | o.. , 9.d.j.j.F.~._.).).].~.F.j.z.d.[ + o  ._ ' | ..L.L.G.L.Z.T.<X<XT.`.&.&.&.&.&.&.&.",
",.,.,.,.,.,.,.J.T.2XY.Y.K.D.V.L.P.p._ ;.o.^ # o o o a.a.j.I.(.].].^.I.d.d.8.o + o | ; ;.>._ +.K.Y.V.f.C.Y.T.<XG.J.Q.,.,.,.,.,.,.",
"<.<.<.<.<.<.<.G.R.T.Y.Z.f.`.V.L.o.:.' o.>.| / , % o ` ..9.j.F.!.I.F.h.9.O.% o % * O.o.>.o.#.9.f.L.V.D.C.Z.Y.T.2XG.Q.<.<.<.<.<.<.",
"1.1.1.1.1.1.1.R.H.U.G.C.:.V.C.L.| #.>.:. .>.^ , - % + p.9.X.9.j.z.8.X.a.#.o - - 2 _ >. .>.n.#.#.L.V.V.s.V.Z.G.R.H.G.1X1.1.1.1.1.",
"1.c.c.c.c.1.H.1XG.Z.V.s.C.0.s.Z.) :.n.>. .>.o., 7 , o 5 s.a.8.8.X.9.a.a.& + 7 / < _ n. .>.n.#.' Z.s.+.s.:.V.G.G.<XA.3Xc.c.c.c.c.",
"v.v.v.v.v.v.T.J.V.s.s.:.#.V.Z.#.) V.>.o.o.;.| _ o.) & % ] g.a.a.9.g.g.8 + % ) o._ _ :.o.>.n.9.8 p.f.V.#.#.s.A.V.H.R.1X7Xv.c.v.v.",
"l.b.b.b.b.`.G.A.0.s.#.s.J.s.s.#.@.:.>.| :.>._ ^ #._ * + 6.9.z.g.z.z.8.9 - 7 ' o._ ' >.:._ n.V.) V.f.V.V.f.:.s.V.G.G.1XH.b.b.b.b.",
"N.N.N.N.N.R.G.d.s.:.Z.s.V.V.V.[ 0.o.#.p.o.#._ / o.+.' 8 - h.x.I.I.I.h.5 5 / o.| _ _ :.o.#.s.+.d.0.V.s.V.s.f.f.d.0.G.R.9 N.N.N.N.",
"B.B.B.B.t.R.0.V.G.K.#.V.[ #.0./ #.V.#.#.| | o.;.+.:.X.7 ( 8 I.I.I.x.6 ( 7 +.#.+.;. .+.+.#.f.d.#.[ V.9.[ 0.:.Z.A.Z.A.`.} B.B.B.B.",
"B.B.5 w.1XJ.`.7X2XV.9.8 s.@.} #.s.' 9.@.' o.| :.>.:.s.O.X...X.x.h.X...O.` :.:.;.^ | | 1 ` #.[ s.9.) +.#., 0.U.3X6XR.J.`.X.B.B.B.",
"B.B.H.A.1XJ.8X2XV.) , ) 0.A.V.9.| 9.@.' O.: < 1 | s.#...p.O.O.z.a.#.p.9.| p.g.^ 2 > 2 O.@.#.s.@.@.0.w.[ ) 5 G.T.3X8X`.`.D.B.B.B.",
"M.M.).2XJ.7X`.D.V.) 0.+.D.V.9.d.X.- s.0./ < < # $ g.s.' p.+.:.p.p.p.o.#.#.s.s.% # 2 1 ' 0.0.@.9.s.V.V.D.+.#.} 0.G.3X6X3X5XM.M.M.",
"M.r.7X6X3XU.`.D.V.R.R.G.V.V.0.0.@.V.@.X.1 @ 1 : = #.C.s.p.s.:.a.g.p.p.9.g.f...> ; 1 $ 2 @.@.9.@.} @.s.G.H.R.R.V.D.D.T.3X7XM.M.M.",
"r.r.R.Z.Z.f.} R.3XR.D.A.9.} V.G.d.d.0.< = $ > 2 < +.g.p.a.:.O.g.>.:.p.p.f.s.| ; : = = @ 9.9.9.A.0.V.@.s.A.D.`.2XS.} R.Z.G.r.r.r.",
"e.e.U.Y.@.0.`.5X3XD.V.s.C.1XG..., [ V.# $ : $ : > , p.s.#.;.o.O.O...p.p.p...@ : : # = $ < V.7 7 V.G.2Xz.p.D.G.1X5XD.[ 9.L.e.e.e.",
"h h J.0.[ 2X`.U.:., ^ C.p.K.) [ @ T...= $ # # : 1 @.p..._ :.O.O.o.[ O.| Z.9.' 7 $ # $ # ( 9.Y.= , / Z.D.C.../ f.Y.`.1X9.V.h h h ",
"g g @.8 5 S.2 8 ) > < X._ < / < :.U.: _ $ @ # : : ' V._ [ | ..9.O...| / :.d.) ; : = # # # < Y.o.` < _ :...: , 0.$ ( 9.5 7.h g g ",
"g g 5 , 3 9 6 5 ) 2 1 2 ; @ $ ^ P.2 ; 2 @ # ; > 1 @.C.` , ' O.....#.) ( ..D.@.> ; : # # > < ^ U./ $ 1 > 1 1 , , - 8 6 5 5 g g u ",
"u u , 6 u.u.9 3 = , 1 1 2 @ = o._ > > < $ # : # C.+.s.= # [ ../ ( ..' # 2 d.:.+.: ; # $ 2 < 1 < | @ = 2 , 1 2 [ 6 7.i.u.5 u u u ",
"q 0 O 4Xu.y.q.q.3 , , 2 2 7 # , = # : : > : @ 1 ` ..< $ # > 7 : : 1 = # : ..` / 7 = > : : ; # = = , 7 2 7 , O 9 q.y.y.u.Q.0 0 0 ",
"q q u.u.u.u.u.y.7.& = 1 , 2 1 $ $ # ; > : > : 1 > : # : = = : @ * = : = ; ; : : = : : : : ; $ $ , 2 1 1 , % 3 f q.u.u.u.i.0 0 0 "
};
