/* XPM */
static char *_885ba283ab04d0cbba7b413da926d9eKqi5RpbTPcjneagn[] = {
/* columns rows colors chars-per-pixel */
"64 64 206 2 ",
"   c #080702",
".  c #1B1703",
"X  c #141210",
"o  c #211B03",
"O  c #2A2504",
"+  c #342E0F",
"@  c #3B3303",
"#  c #10122C",
"$  c #2E2E2A",
"%  c #443B04",
"&  c #504707",
"*  c #665704",
"=  c #67590A",
"-  c #76690B",
";  c #353647",
":  c #3E3E53",
">  c #4C4B56",
",  c #555566",
"<  c #6C686D",
"1  c #FF1E0D",
"2  c #FF1F10",
"3  c #FF200C",
"4  c #F72E0F",
"5  c #F7320E",
"6  c #F9340C",
"7  c #F4390E",
"8  c #F72E10",
"9  c #F73311",
"0  c #FF1B26",
"q  c #FF1B2B",
"w  c #FF1C31",
"e  c #87770D",
"r  c #8C7B28",
"t  c #FE4302",
"y  c #FF6300",
"u  c #FC6F01",
"i  c #FF7200",
"p  c #FF7F00",
"a  c #FF1B45",
"s  c #FF1C49",
"d  c #FF1C55",
"f  c #FF1C5B",
"g  c #FF1E6F",
"h  c #FF1E74",
"j  c #FF1E79",
"k  c #F92074",
"l  c #877E73",
"z  c #03D402",
"x  c #07D406",
"c  c #12D500",
"v  c #37D800",
"b  c #00D52C",
"n  c #5CDC00",
"m  c #6EDE00",
"M  c #71DE00",
"N  c #7DDF00",
"B  c #7DE000",
"V  c #00D85D",
"C  c #01D976",
"Z  c #98850A",
"A  c #9C8D19",
"S  c #AB9007",
"D  c #B69602",
"F  c #BAA518",
"G  c #938832",
"H  c #A99A2C",
"J  c #FF8100",
"K  c #FF9700",
"L  c #FF9A00",
"P  c #CEAF0C",
"I  c #FFAB00",
"U  c #E4BC02",
"Y  c #EABF00",
"T  c #FFB600",
"R  c #FFBB00",
"E  c #CBB72A",
"W  c #81DF01",
"Q  c #8BE100",
"!  c #91E100",
"~  c #AFE400",
"^  c #B3E400",
"/  c #DAC21E",
"(  c #EDC300",
")  c #EDCB01",
"_  c #E7C70A",
"`  c #F1C600",
"'  c #FDC700",
"]  c #F2CC00",
"[  c #FDCB00",
"{  c #EDD208",
"}  c #F4D401",
"|  c #FCD401",
" . c #F5DC01",
".. c #FBDA02",
"X. c #F7DB0C",
"o. c #E9CB14",
"O. c #EACD1C",
"+. c #EED21A",
"@. c #F5DA17",
"#. c #FADE13",
"$. c #D4E600",
"%. c #D5E800",
"&. c #D8E800",
"*. c #E5E600",
"=. c #E8E700",
"-. c #E6E800",
";. c #FBE307",
":. c #FCE418",
">. c #FAE21C",
",. c #FFF319",
"<. c #DCC82C",
"1. c #EACD23",
"2. c #EDD224",
"3. c #EED32A",
"4. c #EAD72B",
"5. c #F4DD25",
"6. c #F2D62A",
"7. c #F2DA2C",
"8. c #F3DB33",
"9. c #F3DC38",
"0. c #FBE424",
"q. c #FBE52B",
"w. c #FDE92A",
"e. c #FFF52B",
"r. c #FBE533",
"t. c #F9E639",
"y. c #FFF638",
"u. c #B1A955",
"i. c #E6D850",
"p. c #F9E848",
"a. c #FFF948",
"s. c #EEE054",
"d. c #FCED54",
"f. c #FEF459",
"g. c #FCEE61",
"h. c #FEF767",
"j. c #FEFC76",
"k. c #7A7483",
"l. c #0C16FF",
"z. c #0B18FE",
"x. c #1016FF",
"c. c #2613FF",
"v. c #2B12FF",
"b. c #3D13FF",
"n. c #0225FF",
"m. c #012BFC",
"M. c #0033FE",
"N. c #003FFE",
"B. c #4114FF",
"V. c #5515FF",
"C. c #5915FF",
"Z. c #6E19FE",
"A. c #7119FF",
"S. c #7F1AFF",
"D. c #0042FE",
"F. c #0053FD",
"G. c #0058FF",
"H. c #006DFD",
"J. c #0072FD",
"K. c #FF1F92",
"L. c #FE208F",
"P. c #FF2092",
"I. c #FF21A6",
"U. c #FF21AA",
"Y. c #FF23BF",
"T. c #821BFE",
"R. c #941CFF",
"E. c #9A1DFF",
"W. c #AC1EFF",
"Q. c #B21FFF",
"!. c #AC20F9",
"~. c #FF23C4",
"^. c #FE24D6",
"/. c #FF25DA",
"(. c #D01FFF",
"). c #CF22FE",
"_. c #D221FF",
"`. c #FA26E7",
"'. c #FD25ED",
"]. c #EC24FE",
"[. c #F625FA",
"{. c #00DC94",
"}. c #00DEA8",
"|. c #0083FE",
" X c #008FFD",
".X c #0092FE",
"XX c #00ADFE",
"oX c #00DFC7",
"OX c #00DEDE",
"+X c #00E0DF",
"@X c #00DAEB",
"#X c #00C4FF",
"$X c #00CFF8",
"%X c #00D0F9",
"&X c #A19BA2",
"*X c #FEFD87",
"=X c #FEFE98",
"-X c #FEFEA9",
";X c #FEFEB7",
":X c #CFC8CA",
">X c #FEFFC5",
",X c #FEFFD7",
"<X c #FEFFE7",
"1X c #F0EEFF",
"2X c #FEFFF4",
"3X c #FEFFFE",
/* pixels */
"7 9 7 5 5 9 8 5 4 5 6 5 4 4 4 8 4 4 8 4 4 5 7 5 6 9 6 9 9 7 % ;X#.@ 6 6 6 5 5 5 5 8 8 4 5 8 8 4 4 4 5 5 5 5 5 6 6 9 9 7 9 5 9 9 ",
"7 7 6 6 5 9 7 6 6 6 6 6 5 6 4 5 6 5 5 6 6 6 6 7 6 6 6 6 6 6 i.>X6.P 6 6 6 6 6 6 6 4 5 6 6 5 5 6 6 6 6 5 6 6 6 6 6 6 6 6 7 6 6 6 ",
"t t 6 t t t t t t t t t t t t t t t t t t t t t t t t t t % -X;X6.@.% 6 t t t t t t t t t t t t t t t t 6 t t t t t t t t t t t ",
"y y y y y y y y y y y y y y y y y y y y y y y y y y y y y / 2X=X8.+.D y y y y y y y y y y y y y y y y y y y y y y y y y y y y y ",
"u u u u u u u i i i i i i i i i i i i i i i i i i i i i @ f.3X=X6.2.| O u i i i i i i i i i i i i i i i i i i i i i i i i i i u ",
"J J J J J J J p J J J p J J p J p J J J J J J J J J J J P =X3Xj.9.2.O.D p J J p J J J p J J p J J J J J J J J J J J J J J p p J ",
"I L L L L L L L L L L L L L L L L K K L L L I K I L K O a.>X3X*X9.6.o.[ O L L L K L L L L L L L L L L L L L L L I L L L L L L L ",
"I I I I I I I I I I I I I I I I I I I I I I I I I I I F h.<X<Xj.9.6.O.( S I I I I I I I I I I I T I I I T I I I I I I I I I I I ",
"R T R R R R R R T T R T T T T T T T R R R R R R R R . y.*X3X,Xj.9.3.1.o.` o T T T T T T T R R R R R R R R ' R R ' T R R R R R R ",
"[ [ [ ' [ [ [ [ ' ' [ ' ' [ [ [ ' ' [ [ [ [ [ [ [ | F f.;X3X>Xh.9.3.1.O._ S ' ' ' ' ' ' ' ' ' [ [ [ [ ' [ [ [ [ | ' ' [ [ [ [ [ ",
" .;. . .=... . .;. .=. ...=. . .=... . .;. . . . .. y.h.,X3X;Xh.9.6.1.O.U ] .  ...=.;. .=... . .;. ... . .;. . . . . . . . .=...",
"*.&.*.-.*.-.*.-.*.*.=.-.-.*.*.*.-.-.-.=.-.-.-.-.-.F p.*X2X3X-Xh.9.3.1.O._ ( S -.-.*.-.*.-.*.-.=.-.*.=.=.&.*.*.*.=.-.-.*.*.-.-.-.",
"$.$.$.$.%.$.$.&.&.%.&.&.&.&.&.&.&.%.&.%.$.%.$.$.. y.f.-X3X2X=Xg.p.3.1.1.O._ ` . &.&.&.&.&.%.&.%.&.%.%.$.$.$.%.$.%.%.%.&.$.&.%.$.",
"^ ^ ^ ^ ^ ^ ^ ^ ^ ^ ^ ^ ^ ^ ^ ^ ^ ^ ^ ~ ^ ~ ^ ~ F p.j.,X3X,X*Xf.p.3.3.1.O._ ( S ^ ^ ^ ^ ^ ^ ^ ^ ~ ^ ~ ~ ^ ^ ~ ~ ^ ^ ^ ^ ^ ^ ^ ^ ",
"! ! ! ! Q Q ! Q Q Q ! Q Q ! ! ! Q Q Q ! ! ! Q . y.g.=X<X3X>X*Xf.9.8.3.1.O.o.U ` . Q ! Q ! Q ! Q ! ! Q ! Q ! ! ! ! ! Q ! ! Q Q ! ",
"W W N N B B Q B B B B B B B B B B Q N N N N N F d.j.;X3X2X-Xj.d.9.4.1.1.O.o.o.Y S N N N N N N N B B B N B Q W B B Q B Q B B N W ",
"M M m m m m M m B m m B m m B m m m m m m m . r.g.=X$ B $ =Xh.p.9.3.3.1.1.o.o._ ' . M m m m m m M m m m m M M B m m m m m n m B ",
"n n n n n n n n n n n n n n n n n n m n n n F d.*X>Xn 2Xn *Xh.s.9.8.3.1.1.O.O.O O S n m n n n n n n n n n n n n n n n n n n n n ",
"v v v v v v v v v v v v v v v v v v v v v * y.h.-X$ X <XX + g.p.9.9.3.3.1.O v     O * v v v v n n v v v v v v n v v v v v v v v ",
"c c x c x c c x c c c c c c c c c . & - <.a.f.$ z X 3X;X=Xc f.p.9.8.3.3.O . O.O.O.c @.P - % . c z c c c x c x c c c c c z c z c ",
"x x z z z z z z z z z   @ * A / r.w.y.a.p.h.$ X 3X3X,X-X*Xo s.p.9.9.O z   6.2.2.2.x 6.7.r.q.w.5.P Z = %   z x x z z z z z z z z ",
"x x x x x   @ = Z E 5.r.y.p.a.p.d.f.g.j.*X$ X 3X3X,X-X=Xj.f.p.p.8.@   3.3.1.3.3.6.  + 6.8.8.8.9.t.t.r.q.q.+.P e = @   x x x x x ",
"  = A <.r.y.a.d.a.f.f.h.h.h.j.j.j.*X=X$ b X 2X2X>X=X*X*Xh.f.s.t.8.8.6.4.6.6.3.3.3.3.b 2.3.8.8.9.9.8.8.8.8.9.t.9.r.q.w.5.P Z =   ",
"9.>X<X2X3X2X<X,X,X,X>X>X;X;X;X;X;X>X,X<X3X3X<X;X=X*Xj.h.g.d.p.9.8.8.8.3.6.6.3.1.3.3.b 6.3.3.8.8.8.8.8.8.6.6.8.6.8.6.3.8.6.6.@._ ",
"e w.p.h.=X>X<X3X3X3X3X3X3X3X3X2X<X,X<X<X<X,X-X=Xj.*Xu.g.f.p.p.9.8.3.6.7.E H 6.6.3.3.  + 3.3.3.3.3.8.4.4.3.3.3.2.1.O.1.O.o.) | e ",
"V D ;.w.t.d.h.*X=X;X>X,X,X,X,X,X,X>X>X;X-X=X=Xj.j.u.1X< d.d.p.9.8.8.8./ k.1XH 5.6.2.5.. 3.3.3.3.3.1.2.2.2.2.O.O.O.o.{ ) ) | P V ",
"C C P ..>.q.t.p.d.h.j.j.=X=X=X=X=X=X=X=X=X*Xj.j.h.&X3X&XH a.t.9.7.7.7.A :X3Xl 6.6.3.6.2.3.2.3.2.1.1.2.O.O.o.o._ ) ] ] ) | P C C ",
"{.{.{.P ..X.0.q.t.p.p.d.g.h.h.j.j.j.j.h.h.h.h.f.s.< 3X&XG t.9.9.8.3.q.r &X3X, 6.2.3.2.2.2.3.2.2.2.1.O.+.o.{ { { } ) ( | 4.{.{.{.",
"}.}.}.}.U | } #.0.q.r.t.p.p.d.d.d.d.f.f.f.d.f.f.i.> :X< G p.r.8.8.7.q.r k.&X> 1.2.3.2.2.2.+.2.2.+.o.+.{ { } } } ( (  .7.}.}.}.}.",
"oXoXoXoXoXU | [ X.:.0.q.r.r.t.t.t.p.p.p.p.p.p.p.9.> k.: G r.8.7.7.7.7.r < , $ 1.5.2.2.2.+.+.+.+.+.+.} } } } ) ( ( #.r.oXoXoXoXoX",
"OXOXOX@XOXOXY | ] } X.0.0.q.r.r.r.t.t.t.p.t.9.t.<.: < : G r.r.7.5.6.5.G , > ; E 4.+.+.+.+.+.+.{ {  . .} ] ( ( ( #.t.+X+XOX@X+X+X",
"@X@X@X@X@X@X@XY } } } ..#.>.0.q.r.r.t.r.t.9.t.t.<.> < ; G t.0.4.4.5.#.G , > ; E @.@.+.+.+.X.X. . .| ] ) Y ( ` :.y.@X@X@X@X@X@X@X",
"%X%X%X%X%X%X$X  [ | } } } X.#.0.w.w.q.q.q.r.r.r.<.> , : G w.5.5.5.5.0.G , , : / @.+.@.@. .{  .} } ] ( Y ( ( :.a.  $X%X$X%X%X%X%X",
"$X#X#X#X#X#XXX#X  | ] ] ] } X.#.>.0.5.w.q.r.5.q.4.: , , H 0.5.5.5.5.w.A > > $ o.@.X.X.X. . .} } ( ( Y Y ) :.y.. #X#X#X#X#X#X#X#X",
"XXXXXXXXXXXXXXXXXXo ..| } } }  .@.>.0.0.q.q.q.w.t.# $ ; H e.5.0.0.>.0.H # # # >.:.X. . . .X.] ` ( ( ( ( #.a.O XXXXXXXXXXXXXXXXXX",
" X.X.X.X.X.X X X X.XO ..| ] } | =.>.0.0.w.5.0.0.y.O     <.0.5.>.@.>.:./   X O ,. .X. ...} } ` ) ( ( ( #.a.@ .X.X.X.X.X.X.X.X X X",
"|.|.|.|.|.|.|.|.|.|.J.& ..| ] } #.@.q.0.0.0.0.q.e.G   + e.>.>.>.>.@.@.,.+ # A ;. . . .} | ] ) ( ( ) { a.& |.|.|.|.|.|.|.|.|.|.|.",
"J.J.J.J.J.J.H.J.J.H.J.J.& ..| } X.>.0.0.0.0.0.0.q.e.E w.0.>.>.>.@.:.:.:.0.P ;.X. ... .} ] ] ) ` ( } a.= J.J.H.H.J.J.J.J.J.J.J.J.",
"F.F.G.F.F.F.F.F.F.F.F.F.G.- ..} #.#.0.0.0.q.0.q.0.>.>.:.>.#.#.#.:.#.#.X.X.;.;. . . . .} } ` ) ( ] a.- G.F.F.G.G.F.F.F.F.F.F.F.F.",
"D.D.D.D.D.N.N.D.D.N.D.D.D.D.D ;.#.0.0.0.0.0.0.0.>.>.>.@.#.X.:.#.X.X...X.;. . . . .|  .} } ] ) ( e.E F.D.D.D.D.D.D.N.N.N.N.D.N.N.",
"M.M.m.m.m.m.M.M.M.M.M.M.M.M.@ ,.F + - . M.. A >.>.>.:.:. .X. ... . . .}  .|  . .| }  .} } ) ] } e.% M.M.M.m.M.m.M.M.M.M.M.M.M.M.",
"m.m.n.m.m.m.m.m.n.n.M.n.n.m.O y.. n.n.n.n.n.n.n.n.. Z  . .| ..} }  .}  . ..... ... . .| } ] ] ] ,.+ z.n.n.n.m.m.n.n.n.n.n.n.n.n.",
"x.z.x.x.x.x.x.x.z.z.z.z.x.z.& e.z.z.z.z.l.z.z.z.z.l.z.z.l.l.l.l.x.x.x.x.x.x.z.z.z.. Z  .} ) ] ) ;.& l.l.l.l.z.z.z.l.l.l.x.x.x.x.",
"v.v.v.v.v.v.b.v.v.v.v.v.c.c.* y.c.c.c.w.e c.c.c.c.c.c.c.c.v.v.v.v.v.v.v.v.v.v.v.v.c.  |  .] { ) X.- c.c.c.c.v.v.c.v.v.v.v.v.v.v.",
"b.b.b.B.b.B.B.b.b.b.b.b.b.v.Z a.b.b.b.A 0.0.>.X.e b.b.b.b.b.B.B.B.B.B.b.b.B.B.B.b.b.*  .} } ) ) } Z b.b.b.b.b.b.b.B.B.B.B.B.B.B.",
"V.C.C.C.C.C.C.C.V.V.V.V.V.V.P y.  V.C.  A >.#. .}  .] ] ] ] ] } [ ] ] ] } S   V.V.V.}  . .] ) ) { F V.B.V.C.V.V.V.V.V.V.C.C.V.V.",
"Z.Z.Z.Z.A.A.Z.A.A.Z.Z.Z.A.A.+.t.r Z.A.A.  Z X.} } ] ] } ] ] ] ] ] ] ] } ] . Z.Z.Z.* }  . .} ) ) ) { Z.Z.A.A.A.A.Z.Z.Z.Z.A.A.A.A.",
"S.T.T.T.T.T.T.T.T.S.T.T.S.T.e.t.r.e T.T.T.  Z } ] } ] ] ] ] ` ` ] ] ] S o T.S.S.* ] } } } } ] { _ ;.  T.T.T.T.T.T.T.T.T.T.T.T.T.",
"R.R.R.R.R.R.R.R.R.R.T.R.R.. w.t.r.w.e R.R.E.E.E.o e ' ] ` S . R.R.R.R.R.R.R.R.R.] ] ` } } } } ) ) ;.. E.E.E.E.E.E.E.E.R.R.R.R.R.",
"!.!.!.!.W.W.W.W.W.W.W.W.W.% y.t.r.q.0.e W.W.W.W.Q.Q.Q.Q.W.Q.Q.W.W.W.W.W.W.W.W.* ] ] ] ] ) } } ) )  .& Q.Q.Q.Q.Q.Q.W.Q.Q.W.W.W.W.",
").(.(.(._.(.(.(.).).).(.).= y.r.q.0.:.} - _.).)._._._._._._.).).).).(.(.(.* ` ] ) ] } ) ` ] } } ) } - )._._._._._._._._._._.).).",
"].].].'.].].].].].].].].].Z y.r.w.>.X.| } } ` e ].].].[.].].].* Y ( Y Y Y Y ` ` ] ` ` ] ) ] ] ] ) ) Z ].].].].].].].[.].].].].].",
"`.[.[.[.[.[.[.[.[.].[.[.[.P a.r.0.X.} ] ] ] ( ( ( Y ( ( ( ' >.y.;.] ( Y Y Y ` ` ` ` ] ` ) ) ] } { ] F [.[.[.[.[.'.[.[.[.[.[.[.[.",
"`.`.`.'.'.'.'.'.'.'.`.`.'.+.t.q.#.X.} ] ] ( ( Y Y ( ` ] :.a.p.- - @.X.` Y Y Y ` ( ` ) ] ` ] ) ] ] ) { '.'.'.[.'.'.'.'.'.'.'.'.'.",
"^.^.^././.`././.^.^.^.^.^.e.t.w.X.} ] ] ( ( ( Y ` ` ;.a.t.& /./././.& ) ..` Y Y Y ( ( ` ` ` ) ` ] ) ;.  /./././././.^.^././././.",
"Y.Y.Y.~.~.~.~.~.~.~.Y.Y.O e.w.:.} } ] ( ( Y ( ) X.y.y.& ~.~.~.~.~.~.~.~.& } | ( Y Y Y ( ( ( ` ( ) } ..O ~.~.~.~.~.~.~.~.~.~.~.~.",
"I.I.U.U.U.U.I.I.I.I.U.I.& y.0. .} ] ` Y Y ( } e.a.= U.U.U.U.U.U.U.U.U.I.I.I.* ..[ ( ( Y ( ( ( ( ) ] ..* U.U.U.U.U.I.U.U.U.U.U.I.",
"L.P.P.P.P.L.L.P.P.P.P.P.e y.#.} ] ( Y Y ` ,.a.- K.P.K.K.K.K.K.K.K.P.P.P.L.L.P.L.- ..[ Y Y Y ( ( ( ( | - P.P.P.P.P.P.P.P.K.P.K.K.",
"k k j h j h j j j j j j F w.X.] ( Y _ ;.y.e h h h g g h h h h h j j j j j j j j j j - | [ Y Y ( ( ( } S j h g g h h h j h h h h ",
"f d f d f d d f d f f f / :.} ( Y | ,.A d d d d d d d d d f f f f f f f f f f f f d d   Z ..' Y ( ` ( U d d d d d d d d d f f f ",
"s a s s s s s s a a s a ,...) ` :.F X s a s a a a a a a a a a s s s a a s s s s a a a a a   D [ ` Y ( } a a a a a a s s s s s s ",
"q q q q q 2 q q 0 0 0   ;.} ..P O 0 0 q 0 w w w q q q q q 0 q q q 0 q 0 q q 0 0 0 q 0 0 0 0 q o P [ ' |   q q q q q q q q q q q ",
"4 1 4 1 1 1 1 1 1 1 1 1 P D O 2 1 1 2 2 2 2 2 2 1 1 1 1 3 1 3 1 1 1 1 1 1 3 3 3 1 2 1 2 3 3 1 2 1 O D P 1 1 3 3 1 1 3 3 3 1 1 1 ",
"3 1 1 1 1 1 3 1 1 1 1 1 U D O 1 2 1 2 2 2 2 2 2 2 3 3 1 3 1 3 1 1 1 1 1 1 1 1 3 1 2 2 1 2 1 1 1 1 O D P 2 3 3 1 1 3 3 3 1 1 3 1 "
};
