/* XPM */
static char *f7ee42e7852e4d63a880289c2175b4168F3UkFyFEdUvT8x6[] = {
/* columns rows colors chars-per-pixel */
"64 64 187 2 ",
"   c #000000",
".  c #1E252B",
"X  c #5D0033",
"o  c #513957",
"O  c #FF1F05",
"+  c #FF1E0C",
"@  c #FF1E11",
"#  c #FF2103",
"$  c #FF200C",
"%  c #F72E0F",
"&  c #F7320E",
"*  c #F9340C",
"=  c #F4390E",
"-  c #F72E10",
";  c #F73311",
":  c #F83311",
">  c #FF1B26",
",  c #FF1B2B",
"<  c #FF1C31",
"1  c #FE4302",
"2  c #FF5F00",
"3  c #FF6200",
"4  c #FC6F01",
"5  c #FF7200",
"6  c #FF7F00",
"7  c #F15C3B",
"8  c #F36935",
"9  c #F27032",
"0  c #F57B3E",
"q  c #A9025E",
"w  c #FF1B45",
"e  c #FF1C49",
"r  c #FF1C55",
"t  c #FF1C5B",
"y  c #D70B71",
"u  c #FF1E6F",
"i  c #FF1E74",
"p  c #FF1E79",
"a  c #A46077",
"s  c #D74B58",
"d  c #EE4143",
"f  c #F04042",
"g  c #03D402",
"h  c #0FD500",
"j  c #01D30C",
"k  c #12D500",
"l  c #37D800",
"z  c #00D423",
"x  c #00D428",
"c  c #00D535",
"v  c #00D539",
"b  c #5CDC00",
"n  c #6EDE00",
"m  c #71DE00",
"M  c #7DDE00",
"N  c #7DE000",
"B  c #62BB4D",
"V  c #61BB53",
"C  c #53B46F",
"Z  c #00D64B",
"A  c #00D84C",
"S  c #00D75C",
"D  c #00D85D",
"F  c #00D862",
"G  c #00DA7C",
"H  c #6FC155",
"J  c #FF8100",
"K  c #FF9700",
"L  c #FE9B00",
"P  c #FFAC00",
"I  c #FFB500",
"U  c #FFBB00",
"Y  c #81DF02",
"T  c #8DE100",
"R  c #91E100",
"E  c #B3E400",
"W  c #FCC700",
"Q  c #FDCA00",
"!  c #F5DE00",
"~  c #D5E700",
"^  c #D5E800",
"/  c #E4E600",
"(  c #E6E800",
")  c #F3E000",
"_  c #672F8A",
"`  c #65338B",
"'  c #357ABF",
"]  c #465DA9",
"[  c #0C16FF",
"{  c #0C18FD",
"}  c #1016FE",
"|  c #2613FF",
" . c #2B13FF",
".. c #3C13FF",
"X. c #0225FF",
"o. c #0229FB",
"O. c #0033FE",
"+. c #003FFD",
"@. c #4014FF",
"#. c #5515FF",
"$. c #5814FF",
"%. c #6F17FE",
"&. c #6E19FE",
"*. c #7119FF",
"=. c #7819FF",
"-. c #0041FE",
";. c #0053FD",
":. c #006EFD",
">. c #0072FD",
",. c #007FFD",
"<. c #FF1F92",
"1. c #FF208E",
"2. c #FF2092",
"3. c #FF21A5",
"4. c #FF21AA",
"5. c #FF23BE",
"6. c #BF5CA4",
"7. c #831BFF",
"8. c #951CFF",
"9. c #9A1DFF",
"0. c #AC1EFF",
"q. c #B21FFF",
"w. c #AC20F9",
"e. c #FF23C3",
"r. c #FF24D6",
"t. c #FF25D9",
"y. c #D01FFE",
"u. c #CF22FE",
"i. c #D221FF",
"p. c #FA26E7",
"a. c #FD25ED",
"s. c #EC24FE",
"d. c #FA25F2",
"f. c #F524FB",
"g. c #F925FA",
"h. c #3B9EA9",
"j. c #5C85A4",
"k. c #00DC94",
"l. c #00DB9A",
"z. c #00DEA6",
"x. c #00DDA9",
"c. c #1E97D2",
"v. c #1D98D3",
"b. c #2694CE",
"n. c #38A3CF",
"m. c #0083FE",
"M. c #008FFC",
"N. c #0092FE",
"B. c #00ADFE",
"V. c #54ADDE",
"C. c #77AFDF",
"Z. c #79AFDE",
"A. c #77B1DE",
"S. c #77AFE0",
"D. c #79AEE0",
"F. c #68BFEA",
"G. c #79B2E2",
"H. c #7AB5E3",
"J. c #00DFC6",
"K. c #00DFC9",
"L. c #00DFDE",
"P. c #00DEE1",
"I. c #00DAEC",
"U. c #00C3FF",
"Y. c #00CFF8",
"T. c #00D0F9",
"R. c #00E0E0",
"E. c #7AC3E4",
"W. c #BEA5A4",
"Q. c #F5F3A9",
"!. c #FDF6AE",
"~. c #FAF5B0",
"^. c #96B6D4",
"/. c #82BBE6",
"(. c #92CAC1",
"). c #87C3EA",
"_. c #89C4EC",
"`. c #91CCF0",
"'. c #96D2F4",
"]. c #9DDAF7",
"[. c #9EDBF8",
"{. c #A6D6F3",
"}. c #ECC6DB",
"|. c #D3E8F7",
" X c #E9F4FB",
".X c #F4F9FC",
"XX c #FEFEFF",
/* pixels */
"; ; = = & ; - & & & * & & % % % % % - % % & = : * & * : : = : : = ; & : & & & & : ; ; - & - - - - - & - - % & = & & : * : & & : ",
"= = * * & = & * * * * * & % * & * & & * * * * = * * * * * * * * * & * & * * * * * = * * * & * A.G.* * & * * * * * & & & * * = * ",
"1 1 * 1 1 1 1 1 1 1 1 1 1 1 1 * 1 1 1 1 1 1 1 1 1 1 1 1 1 1 * 1 1 1 1 1 1 1 1 1 1 1 1 1 1 1 G.[.[.G.1 1 1 1 1 1 1 1 1 1 1 1 1 1 ",
"3 3 3 3 3 3 3 3 3 3 3 3 3 3 3 3 3 3 3 3 3 3 3 3 3 3 3 3 3 3 3 2 3 3 3 c.d d 8 8 9 9 9 9 c.V.[.[.[.[.3 3 3 3 2 3 3 3 3 3 3 3 3 3 ",
"4 4 4 4 4 4 4 4 5 5 5 5 5 5 5 5 5 5 5 5 5 5 5 5 5 5 5 5 5 5 4 4 XXj.d d 7 9 9 9 9 9 !.!.~.^.[.[.[.[.G.5 5 5 5 5 5 5 5 5 5 5 5 5 ",
"J J J J J J 6 6 J J J J J J J J J J J J J J J 6 J J J J J J XXc.d d d 9 9 9 9 9 !.!.!.!.!.A.[.[.[.[.[.J J J J 6 J J J J J J J J ",
"P L L L L L L K L L K K K K L P K K K L L L P L P K K L L XXa d d d 9 9 9 9 9 !.~.!.~.n.E.E.[.[.[.[.[.L L P K K L L P K L K K K ",
"P P P P P P P P P P P P P P P P P P P P P P P P P P P P P h.d d d 9 9 9 9 9 !.!.~.~.v.[.[.[.[.[.[.[.[.XXP P P P I P P P P P P P ",
"U U U U U U U U I U U I I U I I U U U U U U U U U U I D.v.d d d 9 9 9 9 9 !.!.!.!.[.[.[.[.[.[.[.[.[.[.U U W U W W U U I U U U U ",
"Q Q W Q Q Q Q W W W Q W W Q W W W W W W Q Q Q W Q Q Q /.d v.d 9 9 9 9 9 0 !.!.!.v.[.[.[.[.].[.[.[.[.[.W W W S.).Z.W Q W Q W Q Q ",
"! ! ! ! ) ! ! ! ) ! ) ) ! ) ! ) ! ) ! ! ) ! ! ! ! ! ! v.v.v.d 8 9 9 9 9 !.!.[.(.[.[.[.[.].].  [.[.[.[.c.! G.)._.G.! ! ! ! ! ! ! ",
"/ / / / / ( / ( ( ( ( ( ( ( / / ( ( / ( ( ( G.[.G./ / b.[.v.8 8 9 9 9 9 !.c.[.c.[.[.[.    o [.[.[.[.c.B S._.).). X/ / / / / / / ",
"~ ~ ~ ~ ~ ~ ^ ~ ^ ^ ^ ^ ^ ^ ^ ^ ^ ^ ~ ^ ^ ^ S.[.[.D.XX~ Z.s 8 h.9 9 9 9 !.].[.[.[.[.XXXXXXXX  [.[.[.`.B v._._.C.XX^ ^ S.G.XX^ ^ ",
"E E E E E E E E E E E E E E E E E E E E E E E [.[.[.[.XX.Xf b.v.9 9 9 9 c.].[.[.[.XXXXXXXXXXXX[.j.[.[.B v._.).E E S.).).).E E E ",
"R R T T T R R T R T T T T T R R R R T R T R T G.[.[.[.[.R b.c.[.9 9 9 9 XX[.[.[.  XXXXXXXXXXXX[.[.[.[.B h._.XX.XS._._._.G.T T R ",
"Y Y M M M N N N N N N N N N N T N N N m T M M M S.[.[.[.].c.c.[.v.9 9 9 }.[.[.[.X X XXXXXXXXXX[.[.[.v.B v.S.G._._._._.S.XXN M M ",
"m m n n n n n n m N n m n n N m m n N n n n n n XX[.[.[.[.G.c.[.A.v.9 9 XX] [.[.X   XXXXq XXXX[.[.].v.B G.G._._._._.S.n n n n n ",
"n b b b b b b b b b b b b b b b b b n b b b b b b b [.[.[.].c.D.[.A.v.9     [.[.      XXy W.XX[.[.[.v.).G._._._.).C.XXb b b b b ",
"l l l l l l l l l l l l l l l l l l l l l l l l l l |.[.[.[.[.D.].].l V.  . [.[.{.      6.3.[.[.[.S._.A._._._.).G.l l l l l l l ",
"j k k h g h k h k k k h k k k k h k k k k k h ].].].D./.[.[.].G.].].S.B q [.[.[.[.[.    y [.[.[.[._.S._._._._.H.k h h h h h h h ",
"g g g g j g g g g g g g g g h g g g g g h g g G.[.[.[.[.S.[.[.[.].].G.S.[.[.'.q [.[.[.[.[.[.[./.'._.)._._._..XS.A._.G.g g g g g ",
"j j j j j j j j j g j j j j j j j g j j j j j j G.[.[.[.[.G.G.[.G.].].A.[.'.[.q 6.[.[.[.[.[.S.].S.H._.A._.S._._.)._.C.g j j j j ",
"x z z z z z z z z z z z x z x z x z x x x x x x x S.[.[.[.[.[.[.S.].].B C S.v.v.q E.[.[.[.S.[.[._._._._.S._._._._.G.z z z z z z ",
"c c c c c c c c c c c v v v v v v v v v v v v v v v S.[.[.S.[.[.[.].].C.v.v.v.v.F.J [.[.'.[.[.[.S._._._.S._._._.S.XXv v x c v v ",
"Z Z Z Z Z Z Z Z Z Z Z Z A A A A A A A A A A A A A A A A S.[.`.[.[.[.[.[.v.v.v.v.].`.H.[.[.[.[.[._._._.C._._.A.Z Z Z Z Z Z Z Z Z ",
"S S F S S S S S S S S S F F F F F F F F D D F F F D S S v.v.S.H.[.[.[.[.S.v.v.S.[.[.[.[.[.[.].S._._.C.C.G.S S S S D F S S F D S ",
"G G G G G G G G G G G G G G G G G G G G G G G G G G G G C.[.[.[.H.[.[.[.[.S.[.[.[.[.[.[.[.[.[.S.S._._.C.XXG G G G G G G G G G G ",
"l.l.k.k.k.k.k.k.k.k.k.k.k.k.XXv.v.v.v.v.v.k.k.k.k.k.k.v.C.[.[.[.H.[.[.[.[.[.[.[.[.[.[.[.[.[.[.).G._._._.A.k.k.k.l.k.k.k.k.k.k.k.",
"x.x.x.x.x.x.x.z.z.x.x.x.v.] _ _ ` _ v.v.v.v.v.v.z.z.XXz.v.A.[.[.[.[.[.[.[.[.[.[.[.[.[.[.].].].).C._._.S.z.x.z.z.x.x.z.x.z.z.z.z.",
"J.J.K.x.K.K.K.J.J.J..X_ _ _ _ ' v.v.v.h.B B B v.v..XA.[.[.[.[.G.S.[.[.[.[.[.[.[.[.].[.[.[.].S.S.G.C.K.K.J.J.J.J.J.K.J.K.J.J.J.J.",
"L.L.L.L.P.L.L.P.XXb._ _ _ _ v.v.B B B B B B B B B A.[.[.R.[.[.[.[.[.[.[.[.[.[.[.[.[.[.[.S.].].].|./._._.XXL.R.L.R.R.R.R.L.L.L.L.",
"Y.I.I.I.I.I.I.I.c._ c._ v.v.B B B B H !.!.!.!.!.!.].[.I.f [.[.[.[.[.[.[.[.[.[.[.[.[.[.S.].[.].].C._._._.).I.I.I.I.I.I.I.I.I.I.I.",
"T.T.T.T.Y.Y.Y.v.v.T.` v.v.B B B !.!.!.!.0 9 9 !.G.].Y.{.[.[.[.[.[.[.[.[.[.[.[.[.[.].[.[.[.[.[.[.[._._._._.G.Y.Y.Y.T.T.T.T.T.T.T.",
"U.U.U.U.U.U.v.v.U._ v.v.B B H !.!.9 9 9 v.U.U.B.].].].d [.[.[.[.[.[.[.[.[.[.[.[.[.[.[.[.[.[.[.[.[.H._._._.H.U.U.U.U.U.U.U.U.U.U.",
"B.B.B.B.B.B.B.B.v.` v.B B !.!.!.9 7 v.XXB.B.B.B.].[.!.[.[.[.[.[.[.[.[.[.[.[.[.[.C.[.[.[.C.D.[.[.[.G._._._._.B.B.B.B.B.B.B.B.B.B.",
"M.N.N.N.N. XM.v.` v.B B Q.!.!.9 f XXM.N.M.M.S.G.[.[.[.].[.[.[.[.[.[.[.[.[.[.[.[.[.[.Z.M.XX[.[.[.[.G._._._._.G.N.N.N.N.N.N.N.M.M.",
"m.M.m.m.XXm.m._ v.v.B B !.!.9 d .Xm.,.m.m._.[.G.[.^.{.{.[.[.[.[.[.[.[.[.[.[.[.[./.XX>.m.[.[.[.[.[.H._._._._.S.m.m.m.m.m.m.m.m.m.",
">.>.>.>.>.>.v._ v.B B !.!.9 d v.>.>.:.:.[.[.[.[.].[.[.[.[.G.S.].[.[.[.[.[.S.A.>.>.>.>.>.[.[.[.[.[.H._._._._.S.:.>.>.>.>.>.>.>.>.",
";.;.;.;.;.;._ v.v.B B !.9 d d XX;.;.G.[.[.[.[.[.[.[.[.[./._._./._.;.;.;.XX;.;.;.;.;.;.{.[.[.[.[.[.G._._._._.Z.;.;.;.;.;.;.;.;.;.",
"-.-.-.-.+.v._ v.B B !.!.9 d v.-.-.G.[.[.[.[.[.`.[.G.H._._._._.D.-.-.-.-.-.-.-.-.-.-.-.-.[.[.[.[.[.A._._._._. X-.-.+.+.-.-.-.+.+.",
"O.O.o.O.O._ ' b.B B Q.J d d O.S.[.[.[.[.[.[.[.S.C._._._._.C.O.O.O.O.O.O.O.O.O.O.O.O.O.XXG.[.[.[.[.O.`._._._.O.O.O.O.O.O.O.O.O.O.",
"o.o.o.o.o._ c.c.B W.Q.9 d /.[.[.[.[.[.[.[.[.S.S._._._._._.XXX.X.X.X.X.X.X.X.X.X.o.X.o.o.X.[.[.[.A.{ XXX.A. Xo.o.X.X.X.X.X.X.X.X.",
"} { { }  X_ c.c.B !.!.G.].[.].[.[.[.[.[.[.S.S._._._._._.G.[ [ } } } } } } } { { [ { [ { { C.[.H.{ [ [ { [ [ { { { [ [ [ } } } } ",
" . . . .c.` v.B B ~.^.].[.[.[.[.[.[.[.[.S.S._._._._._._.|  . . . . . . . . . . . .| | | | | | | | | | | | | |  .|  . . . . . . .",
"......@.v.` v.B B !.G.].[.[.[.[.[.[.[.G._._._._._._._./.....@.@.@.@.@.@...@...@................... .................@.@.@.@.@.@.",
"#.#.$.$.v.` v.B B !.G.].[.[.[.[.[.[.C._._._._._._._.G.#.$.#.#.$.$.$.#.$.#.#.#.$.#.#.#.#.#.#.#.#.#.#.#.#.#.#.#.#.#.#.#.#.$.$.$.#.",
"%.*.&.*.v.c.v.B B !.!.[.[.[.[.[.[.*.C._._._._._._./.XX&.*.%.*.*.=.*.*.*.*.*.%.*.&.*.*.&.&.*.*.=.*.*.%.&.=.*.%.*.%.*.%.%.*.*.*.*.",
"7.7.7.7.=.c.v.B B !.!.[.[.[.[.G.7.7.C._._._._._._.XX7.7.7.7.=.7.7.7.7.7.7.7.=.7.7.=.7.7.7.7.7.7.7.7.=.=.7.7.7.7.7.7.7.7.7.7.7.7.",
"8.8.8.8.8.b.c.B B !.!.Z.].`.`.8.8.8.XX_._._._._.9.9.9.9.9.9.8.8.8.7.8.8.8.8.8.8.8.8.8.8.8.8.9.8.8.8.8.9.9.9.9.9.9.8.8.9.8.8.8.8.",
"w.w.0.w.0.` c.B B !.!.v.W.c.0.0.0.0.0.S._._._.XXq.q.q.q.q.0.0.0.0.0.0.0.0.0.0.0.0.0.0.0.0.0.0.q.q.0.q.q.q.q.q.q.q.q.q.0.0.0.0.0.",
"u.u.u.u.i.v.v.B B !.!.v.c.c.y.y.y.i.y.i._._.u.u.i.u.i.i.i.i.i.u.u.y.u.y.y.y.u.u.y.y.y.i.i.i.y.i.i.u.u.u.y.i.y.y.i.i.i.u.i.i.u.u.",
"d.s.s.d.f.c.v.V B !.!.c.|.c.s.s.s.s.s.s.s.XXs.s.s.s.s.f.f.s.s.f.s.s.s.s.s.s.s.s.s.s.s.s.s.s.s.s.s.s.s.s.s.s.f.s.s.f.s.f.s.s.s.s.",
"d.f.s.f.f.g.v.V B !.!. Xf.c.f.f.f.f.f.f.f.g.g.f.f.f.f.f.g.d.g.g.g.g.g.f.s.f.f.f.s.f.f.f.f.f.f.f.f.f.f.g.f.f.f.f.g.g.g.g.d.f.g.g.",
"p.p.p.d.a.a.v.v.B !.!.a.a.c.a.a.a.a.p.a.d.a.a.a.d.d.a.d.a.a.a.a.d.a.a.a.a.a.p.a.a.a.a.a.a.a.p.a.a.a.a.a.d.d.a.a.a.a.a.a.a.a.a.a.",
"r.r.r.r.t.t.v.v.B !.!.r.r.v.t.r.r.r.r.r.t.r.r.r.t.t.t.t.t.t.r.t.t.p.t.t.r.r.r.r.r.r.r.r.r.r.r.r.t.r.r.r.t.t.t.p.t.t.t.t.t.t.t.t.",
"5.5.e.e.e.e.e.v.B ~.Q.5.5.5.e.5.5.e.5.e.e.5.e.e.e.e.e.e.e.e.e.e.e.e.e.e.e.5.5.5.5.5.e.e.5.5.5.e.e.e.e.e.e.e.e.e.e.e.e.e.e.e.e.e.",
"3.4.4.4.4.4.4.v.B v.v.3.3.3.2.4.3.4.3.3.3.3.3.4.4.4.4.4.4.3.4.4.4.4.4.3.3.3.4.3.3.3.<.3.3.3.3.4.3.3.4.4.4.4.4.4.4.3.4.4.4.4.4.3.",
"1.2.2.2.2.2.XX|.C c.E.1.1.1.1.2.2.1.<.2.1.2.<.<.2.2.<.<.<.<.<.<.<.<.2.2.1.2.2.1.<.<.<.1.<.<.<.<.2.1.1.2.2.<.<.<.<.1.<.<.<.2.<.1.",
"i p u i i i i p h.v.u p p i i i i i i i i u i u i i u i i i i i i p i p p p i p p p i i i i i i i i u u i i u u i i i i i i i p ",
"r r t t t t t t B v.t t t t r t r r r r r r r r r r r r r t t t t t t t t t t t t t r r t r r r r r r r r r r r r r t t t t t t ",
"e w e e w e e w v.w e e e w w w w w w e e e e e w w w e e w e e e e e e e w e e e w w w w w e e w w w w e w w e w e e e e e e e ",
", , , , , > , , > > > > > > > > > , , , , , , < , , , , , > , , , , , > , , > > > , > > > > , , , , < < < , > , , , > , , , , , ",
"- O % % + O + + $ $ $ + + + $ $ + @ @ + + @ @ @ $ + + + $ + $ $ + + + + + + $ $ + @ + + + + + @ @ @ $ @ + $ $ + + + $ $ $ + + + ",
"O # O O # O # O # # # # $ # $ $ O O O + # + O O O # # # # # # # O # O O # # # # O + + O + O O # + # $ + # # # # # # # # # # O O "
};
