/* XPM */
static char *redbisson1656511607[] = {
/* columns rows colors chars-per-pixel */
"64 64 231 2 ",
"   c #780908",
".  c #8B070E",
"X  c #851504",
"o  c #8B1605",
"O  c #841906",
"+  c #8B1906",
"@  c #841B0C",
"#  c #8D1B09",
"$  c #941A06",
"%  c #931C0A",
"&  c #9A1D0B",
"*  c #980B14",
"=  c #8C1E11",
"-  c #951E11",
";  c #A41E09",
":  c #B91805",
">  c #A20E16",
",  c #A81218",
"<  c #B3161C",
"1  c #B81718",
"2  c #BC1B1C",
"3  c #8D240B",
"4  c #94230D",
"5  c #9B250B",
"6  c #9C220D",
"7  c #8D2314",
"8  c #942313",
"9  c #9A2413",
"0  c #942A14",
"q  c #9D2C14",
"w  c #9B2519",
"e  c #952819",
"r  c #9B2A1B",
"t  c #983515",
"y  c #A4220D",
"u  c #A9230C",
"i  c #B6270B",
"p  c #A52410",
"a  c #A92511",
"s  c #AD2A14",
"d  c #A62B18",
"f  c #A32B1C",
"g  c #B32712",
"h  c #B32C15",
"j  c #BA2C16",
"k  c #B52E1A",
"l  c #BA2E19",
"z  c #A5331C",
"x  c #B5321C",
"c  c #BB321B",
"v  c #B93618",
"b  c #A81B24",
"n  c #B91B23",
"m  c #AA2E21",
"M  c #B92628",
"N  c #AA3623",
"B  c #B43323",
"V  c #BB3522",
"C  c #BB3926",
"Z  c #BB3335",
"A  c #C91D06",
"S  c #C41D19",
"D  c #D1270B",
"F  c #D2260C",
"G  c #CB231B",
"H  c #C92418",
"J  c #D32A14",
"K  c #D22B1D",
"L  c #C53619",
"P  c #DB3719",
"I  c #F0310F",
"U  c #F7320E",
"Y  c #F9340C",
"T  c #F4390E",
"R  c #F72E10",
"E  c #E13D16",
"W  c #F73311",
"Q  c #C11E23",
"!  c #C42224",
"~  c #CB2523",
"^  c #CA2729",
"/  c #D32D24",
"(  c #D32D29",
")  c #C63B27",
"_  c #DD3C23",
"`  c #D83529",
"'  c #D9342B",
"]  c #C82B36",
"[  c #D12E33",
"{  c #CB3737",
"}  c #D53334",
"|  c #DC3B34",
" . c #D63938",
".. c #DC3C3B",
"X. c #E13E26",
"o. c #E03D3F",
"O. c #A6481C",
"+. c #AA4525",
"@. c #A14D24",
"#. c #B74C2E",
"$. c #D44B1F",
"%. c #FE4302",
"&. c #E4451B",
"*. c #FF6200",
"=. c #FC6F01",
"-. c #FF7200",
";. c #FF7F00",
":. c #C8442A",
">. c #DA4629",
",. c #CA4836",
"<. c #D9453A",
"1. c #D75639",
"2. c #E34424",
"3. c #E54928",
"4. c #EA552A",
"5. c #E34832",
"6. c #E2453C",
"7. c #E44C3C",
"8. c #E75637",
"9. c #EB5C3C",
"0. c #EF6536",
"q. c #ED6339",
"w. c #B62447",
"e. c #CC3749",
"r. c #D53B47",
"t. c #CB3854",
"y. c #CD3D64",
"u. c #CB4D4C",
"i. c #DA4647",
"p. c #D95749",
"a. c #D84958",
"s. c #DA5657",
"d. c #E44A45",
"f. c #E85747",
"g. c #EB5C44",
"h. c #E34A55",
"j. c #E45A57",
"k. c #DC6349",
"l. c #DA6451",
"z. c #EC6648",
"x. c #F16A4A",
"c. c #F0724E",
"v. c #E96757",
"b. c #F16D59",
"n. c #EC735A",
"m. c #F2775A",
"M. c #D54F67",
"N. c #DD5865",
"B. c #E45B64",
"V. c #E65F74",
"C. c #DE6965",
"Z. c #E76766",
"A. c #EB7668",
"S. c #F27B66",
"D. c #E96875",
"F. c #EC7676",
"G. c #F17C75",
"H. c #03D401",
"J. c #0FD500",
"K. c #00D30B",
"L. c #11D500",
"P. c #35D800",
"I. c #00D422",
"U. c #00D536",
"Y. c #5CDC00",
"T. c #6DDE00",
"R. c #71DF00",
"E. c #7DDE00",
"W. c #7DE000",
"Q. c #00D64A",
"!. c #00D85E",
"~. c #01D860",
"^. c #00D97B",
"/. c #FF8100",
"(. c #FF9700",
"). c #FE9B00",
"_. c #FFAC00",
"`. c #FFB500",
"'. c #FEBB00",
"]. c #81DF01",
"[. c #88E100",
"{. c #92E100",
"}. c #AFE400",
"|. c #B3E400",
" X c #FDC700",
".X c #FDCA00",
"XX c #F5DE00",
"oX c #D3E600",
"OX c #D4E800",
"+X c #E4E600",
"@X c #E6E800",
"#X c #F3E000",
"$X c #F3845C",
"%X c #ED8366",
"&X c #F3826C",
"*X c #F58868",
"=X c #EC8677",
"-X c #F38473",
";X c #F58B73",
":X c #F48979",
">X c #F79478",
",X c #E86A8A",
"<X c #ED7A86",
"1X c #00DC94",
"2X c #00DDA7",
"3X c #01A2FD",
"4X c #00DFC7",
"5X c #00DEDE",
"6X c #00E0DE",
"7X c #00DAEA",
"8X c #01C8FC",
"9X c #00D0F9",
"0X c #EC8586",
"qX c #F38984",
"wX c #F79986",
"eX c #F38B94",
"rX c #F79A95",
"tX c #FAA58A",
"yX c #FAA897",
"uX c #FCB49B",
"iX c #FA98A8",
"pX c #FAA9A6",
"aX c #FCB7A6",
"sX c #FEA9B6",
"dX c #FDB8B7",
"fX c #FEC6AB",
"gX c #FECCB8",
"hX c #FFB8C3",
"jX c #FED7CA",
"kX c #FFD0CC",
"lX c #FFE4D5",
/* pixels */
"T W U T R W W U U U U U R R R R R R R R R U W Y e.t.M.B.a.t.t.t.a.t.t.a.j.B.t.e.t.e.Q R R R R R Y R U R Y Y U T W Y Y Y Y W W W ",
"T T Y Y T U U Y Y Y Y Y Y Y Y Y Y Y Y Y U Y Y Y <XyXrXqXD.h.a.a.M.a.h.B.qXrXrXeXN.e.n R Y R Y Y Y Y Y Y Y Y Y Y Y Y T Y T Y Y Y ",
"%.%.Y %.%.%.%.%.%.%.%.%.%.%.Y %.%.%.%.%.%.%.%.uXwX-XqXqXF.N.y.B.B.y.h.D.<XqX:X:XyXrXV.w.%.%.%.%.%.%.%.%.Y %.%.%.%.%.%.Y %.%.%.%.",
"*.*.*.*.*.*.*.*.*.*.*.*.*.*.*.*.*.*.*.*.*.*.:X-X:XqXqXG.,XD.h.a.B.t.V.,XF.qXqX:X:X-XqXG.y.*.*.*.*.*.*.*.*.*.*.*.*.*.*.*.*.*.*.*.",
"=.=.=.=.=.-.=.=.-.-.-.-.-.-.-.-.-.-.-.-.;XG.=XA.G.eXyXyXiX<XD.D.D.D.,XrXrXyXrXqXm.-XF.&X:XM.-.-.-.-.-.-.-.-.-.-.-.-.-.-.-.-.-.-.",
"/./././././.;.;./././././././././././.;XA.D.A.wXrXaXuXuXuXrXeXZ.j.qXrXyXaXpXaXyXrXG.A.F.G.>XN.;./././././././.;././././././././.",
"_.).).).).).).(.).).).).).).).).).).;XG.A.-XtXtXaXuXuXuXyXrX0XZ.B.G.rXyXyXyXuXaXpXwX>XA.G.&X;XD._.(.).).).).).)._.).).).).(.).).",
"_._._._._._._._._._._._._._._._._.>X&XG.-X-XyXuXtX*X*X;X-X:X<XD.D.<X:X;X;X;X*X>XuXyX:X&X&XG.;X>X_._._._.`._._._.`._._._._._._._.",
"'.'.'.'.'.'.'.'.`.'.'.`.`.'.'.`.wXS.G.-Xm.wXyXuX*XwXuXfXaXyXyXwX-XyXyXaXfXaXtX*XtXyXtX&X&XA.G.wXqX'.'.'.'.'.'.'.'.'.'.'.'.'.'.'.",
".X.X X.X.X.X.X.X X X.X X X X XwX;XA.&Xm.wXyXaXtXfXtXm.9.4.z.m.b.v.m.z.8.8.c.>XfXtXfXtXtXm.;XA.S.wX<X.X.X.X.X.X X.X.X.X.X X.X.X.X",
"XXXXXXXXXXXXXXXXXXXX#X#XXX#XXXyXv.A.*X;XtXwXaXuX$XL u ; y ; j ) L L u y u ; j 8.aXuXyXtX>XS.G.f.wXyXy.#XXXXXXXXXXXXXXXXXXXXXXXXX",
"+X+X+X+X+X+X+X@X@X@X@X@X@X@XyXS.v.S.&X>XwXtXuXwX: & & & & & $ , ; & & & & & 6 ; v.aXuX:XtX&X&XZ.v.yX<X+X+X+X+X+X@X@X+X+X+X+X+X+X",
"oXoXoXoXoXoXoXOXOXoXoXoXOXeXyXf.v.eX:X;X-XuXyXp.6 & $ $ o % o % % # o # $ # % ; h yXpX>X>XS.yXA.f.-XiXt.oXoXoXoXOXOXOXOXOXOXOXoX",
"}.}.|.}.|.|.|.|.|.|.|.|.|.sXF.j.Z.pXA.;X&XyXyXj 6 6 # X o o o % o o o o o o - ; u =XyXwX;XS.rX0Xj.j.dX,X}.}.}.}.|.|.|.|.|.|.|.|.",
"{.{.{.{.[.{.{.{.{.{.[.{.,XdXi.d.eXrXS.*X-XrX:X; & % o o o o o $ % % o o o o $ & y k.rXwXS.n.:XpXj.a.0XiXw.[.{.{.{.{.{.{.{.{.{.{.",
"].].].E.E.W.W.W.E.E.E.E.hXZ.a.j.pXF.n.S.:X-XA.; & $ $ o o o # $ % o * o X o & & & 1.>XqXn.*Xj.dXD.i.r.kXM.[.].W.[.[.W.W.W.W.W.E.",
"R.R.T.T.T.R.R.R.R.R.R.,XsXe.h.G.pXb.-Xv.:XS.l.; & % $ # o # # # # + # o o + $ & & ,.%XA.v.;Xv.yX:XB.{ <XsX* T.T.R.R.R.R.R.Y.R.R.",
"Y.Y.Y.Y.Y.Y.Y.Y.Y.Y.Y.sXV.e.Z.G.pXj.&XA.A.n.1.u 6 % $ O X # # $ # # # o + # % 5 & C S.n.G.m.A.0XeXA.a.r.hXy.Y.Y.Y.Y.Y.Y.Y.Y.Y.Y.",
"P.P.P.P.P.P.P.P.P.P.M.sXe.a.Z.eXiX:XA.-Xf.:X,.9 4 % 3 O O o o o $ + X X X + 3 4 9 k qXz.G.A.:XF.pXZ.j.e.<X<X  P.P.P.P.P.P.P.P.P.",
"L.L.L.L.K.J.L.L.J.L.<XeXQ a.B.pXA.qXF.A.z.yXv p 5 4 O O X X o o o o o X X X 5 5 p s =Xm.j.=XeXZ.dXB.j.e.M.sXM . L.L.L.L.K.L.L.L.",
"H.H.H.H.H.K.H.H.H.e.sXe.e.j.Z.gXj.qX=Xk.=X0Xx #.:.v s i y 5 $ 4 $ % $ 5 u s O.L :.v l.tXp.qXA.Z.pXeXj.r.n sXB.  J.H.H.H.K.K.H.H.",
"K.K.K.K.K.K.K.K.K.D.eXn { h.rXpXZ.j.eXi.rX=XA.$X$X*X>X>X>X1.v 5 % v :.*X>X>X*X$X%X%Xn.pXj.G.B.=XF.pXZ.e.Z N.iX* b K.K.K.K.K.K.K.",
"I.I.I.I.I.I.I.I.b eXa.M e.j.pXs.Z.j.F.s.aX%X:.u i i L :.1.1.,.s d :.1.1.,.:.L i u v k.dXA.N.D.v.<.dXA.i.] n iXt.  I.I.I.I.I.I.I.",
"U.U.U.U.U.U.U.U.y.<X, ! i.F.pX{ j.Z.s.F.pXv C A.aXfXuXz.+.v C q 5 z B v 1.>XuXgXqX#.a =XrXi.qXi.i.F.rXi.] , N.D.. n U.U.U.U.U.U.",
"Q.Q.Q.Q.Q.Q.Q.Q.V.a.< ] h.qXB. .{ D.i.eX0Xv.fX$Xv.aXn.: k.v z q 7 x v 1.$.J uXrX$.fX*XZ.pXs.Z.r.h.[ rXj.r.Q b eXb . Q.Q.Q.Q.Q.Q.",
"~.~.~.~.!.Q.~.b D.< Q r.j.qX! i.i.C.s.iX,.x ,.k.1.z.>.L :.s s q t s & :.v L z.1.k.p.C v 0XD.s.s.i.Q G.Z.d.Q < s.e.. ] ~.~.~.!.!.",
"1X^.^.^.^.^.1Xe.e.n ( i.Z.j.! r.s.u.<XC.g p p y s i v v h a f e e q s s v v h s a ; p s u.rXu.C. .<.{ F.r...Q ] a.* , ^.^.^.^.^.",
"1X1X1X1X1X1X> r.] S ....v.M <.{ D.e.0XB 6 $ o + $ $ y 5 5 0 0 e e 0 e 9 5 y 5 $ o # o & d C.a.M.i. .2 j.d.o.Q Q i.> n M 1X1X1X1X",
"2X2X2X2X2X2X, o.^ ! o.j.i.S <.i.a.i.s.0 3 X O # % % 4 5 0 0 e e e 0 0 0 5 4 3 $ 3 O + # 4 ,.j.u.s.{ { ^ v.o.[ n r.! , n h.2X2X2X",
"4X4X4X4X4X> Q  .2 | | f.2  .} s.e.p.C 4 @ O 3 3 3 5 0 5 0 3 e r r e 7 0 q 5 0 4 3 3 O O 3 f j.{ N. .<.1 d.| ..S } [ . n ] 4X4X4X",
"5X5X5X5X5X* ^ } 2 | ..6.1 ..i.Z.{ p.f 7 @ @ @ 3 3 3 3 3 3 e r r e r r 0 + 3 3 3 3 3 3   @ w u. .a.h. .^ ~ d.| ~ ^ [ n > ] h.6X6X",
"7X7X7X7X* 1 Q ~ ^ ' 6.^ ! } j.i.' u.d =   @   3 O O X 5 z +.N e 7 N +.z q + X O   3   @ @ r #.i.( A. .{ 1 f.' } 2 ^ Q * n r.7X7X",
"8X8X8X8X* Q ( < ( / 6.1 } <.j.( i.#.m = @ @ 3 O O + q z 4 t 7 3 @ 7 e z q z 3 X @ 3 @ @ 7 e B s.[ i.d.} S } ' ' 1 [ Q > , ] h.8X",
"8X8X8Xn > Q ^ S ( ( / S } f.{ ' M.Z m r 7 7 3 3 4 q O.q 0 @.u.,.+.k.+.0 4 z z 5 3 3 3 7 7 f m M.) { p...( S ' ( S Q Q n > ] r.8X",
"3X3X3Xn < Q S S / 2.S ( <.d. .) M.f m e e e r q d z q 4 0 3 z z N N 0 0 0 5 z z q r e e r r B u.{ >.<.6.( S ' / / 1 Q S , e.[ B.",
"3X3Xr., S Q S ~ ( ( S / 7.<.>.,.u.d f r r r z f z z 0 8 4 9 % & q # 8 9 3 0 d z z z r f w w m Z s.' <.d.' G K ' / S Q 2 , [ [ h.",
"} ] Q , < Q S G ' G S / 7.i.K qXZ k f - r r f w 5 9 9 4 3 5 3 & 5 $ 6 8 3 8 9 9 9 f w r - f m B 0X) <.7._ ~ G ' ~ S S 2 < < ^ [ ",
"n ! > < 2 S S Q _ S ~ X.7.>.' lXZ d f w w w e 9 d #.#.+.O.O.O.O.O.O.+.+.+.+.,.z 9 w w r w w m k rXF./ 9.5.~ S / ( S 1 Q 1 > n Q ",
"> > > 1 S < ~ ' / S ~ X.8./ <.lX,.B m e e e 8 9 d z N #.@.O.#.#.#.#.@.@.#.+.z z - 9 w e w f N k jX=XH 5.5.K S G ' ( S 1 n , > > ",
". . < 1 1 Q / ' / G / X.7.J A.jXrXm m r 0 w w 9 - 7 7 r @.O.t t t t t @.z 7 3 & 9 w e e e m B p.lXwXH <.7./ J J | G Q n < n . . ",
"  . Q b Q / ~ o.K S / 8.7.A %XjXgX) B m r r w w w = - - m +.@.O.O.O.@.O.9 = = - w - w r f N M yXjXyXJ ' 8.' G G ../ ( ! , Q >   ",
"  * Q * ] [ ( o.K G _ 7.5.A A.jXlXA.C B m r f f w - - - 0 m :.:.$.#.v q 8 - - 9 f m f m B C s.gXjXyXF _ f.X.K J X.o.( ( < < b   ",
"  b n n [ ( o.| K K ` f.5.F n.kXjX:Xk.,.N B m f - - 8 9 8 & % 8 4 % 5 4 - 9 8 w w m m B #.p.n.jXjXyXJ P g.| K K ' d.( } n , Q * ",
"* n n Q ..| d.X./ P | z.5.F A.aXjXwX,.v.p.Z B B m w 9 % + o X o + X o % # 8 9 f B B B u.v.,.n.gXgXyXF K g.5.' / / d...| ] n n > ",
"> 1 < ( o.o.d.X.K ` 5.z.2.A =XtXaXyX>.,.p.s.u.) #.B p 8 4 4 + 5 5 $ 3 4 = w z Z Z ,.s.l.<.:.%XgXwXuXA K g.7.X./ / d.d.o.} < n , ",
"> n , [ ..d.d.' ` / 7.f.f.A %X:X-XaX1.:.) ,.p.s.u.u.Z z q q p p s y p r z B ,.u.p.j.,.) :.,.qXwX:XtXF ' v.f.X.~ / 6.d.o...< n > ",
". n , } d.d.o...~ ` g.f.7.A v.;XS.>Xp.:.) ) :.,.p.p.s.p.,.:.:.:.:.:.#.:.p.s.p.p.,.:.) ) :.,.:Xm.&X;XA P x.f.6.G | | o.d...Q , > ",
"* * 1 [ d...| ' G d.g.f.g.F 9.=X-X8.k.:.C V V ) ) ,.p.p.l.A.F.A.A.%XA.v.p.p.i.:.) C C C :.1.z.%XS.&XA 5.j.x.7.~ ' ' o.d.} Q . , ",
", * !  ... .' ' / 7.v.g.f.J 4.-Xm.x.p.:.:.x B B V ) ,.i.k.v.A.n.v.A.v.v.p.u.:.V B k x ) :.k.8.*XS.c.F 5.g.b.d.X.G | } o...( > , ",
"* , ~ } d.| ( S | 6.b.9.d.J 2.b.b.S.2.,.) c B k k V ) :.,.f.p.1.1.p.k.i.,.) V k k B k C ) >.c.n.n.9.J | g.x.f.d.S ( ( d...^ S . ",
"* S ^ d.o.K K ~ d.7.x.g.5._ 2.z.c.c.4.>.C V x k j k B V ) :.) L L L ) ) ) j k j k k V V >.$.x.q.z.3.P 2.7.x.f.6.' S K ' d.} S , ",
"1 ! o.d.S J 1 5.6.g.x.7.X._ 2.3.4.4.0.&.V x B l k l l l L l G g i j j L j j l k j B B k _ 4.0.0.4.2._ _ 5.x.g.6.d.S J S ..d.( 2 ",
"^ d.7.K A S G | 7.g.9.4.P _ E &.4.&.4.&.:.x B k k k c c l j g s g g j j l L l k k B B ) E 4.&.&.3.P 2.P 3.9.g.f.| / S G G 5.d.[ ",
"| 5.J F / ~ K | 5.5.7.5.P 2._ 2.&.&.&.&.P x B x l l j j j j j s k j j j j j x c l B j ) E &.&.&.3.2.5.P >.8.5.8.7./ K ~ J D 2...",
"_ J F f.^ K ` 5.2.3.>.2.&._ 5.P 4.E E &.3.c x h h l l j j l l h l k h h j l l h s x x >.E &.I 4.&.3.3.E E _ 2.2.| X.K ( i.P D K ",
"A | f.^ ' X.` K J E J 5.P 2.4.P &.E E &.&.) x x k j g h j k l >.>.L k l j h g j x v x 2.&.E E &.P P 8.P X.5.F J K / X.P Q f.7.J ",
"uXpX>X6.X.f.S A A A X.5.E f.X.&.4.&.E &.4.$.v x k l l c l l L ,.1.V k k l k l k x h v 4.4.P &.4.&.P g.2.I f.A A A A 6.5.7.Z.pXpX",
"wX;Xf.X.j.d.A A D A z.X.2.x.2.4.0.&.E 4.q.L h h v k l x s a a V ) h a s k l v k x v c 8.4.&.&.4.4.4.9.9._ g.E A A : ' v.3.X.*X>X",
"wX3.o.b.b.5.A P E 5.x.X.0.4.0.8.0.4.$.4.x.:.h h k v c h s s a s k p s s h k v l h s v k.q.4.&.0.4.x.3.c.X.7.x.E _ A K b.b.d.X.*X",
"3.x.f.b.x.X.X.3.X.x.4.3.4.4.x.x.0.4.4.q.%X:.h g h k h s p p a s k p a p s h k h h s L c.c.4.4.4.x.0.0.3.4.3.b.2.5.X.P f.S.x.x.3.",
"m.9.q.9.9.7.7.g.z.x.8.0.z.c.x.0.4.4.0.c.*X:.s h h v h s p a a p s p a p a s k h h h v n.;X0.4.4.0.z.c.x.0.8.q.x.g.d.7.9.9.g.9.x.",
"&.3.3.b.;Xb.f.b.m.b.q.$Xm.x.0.0.0.4.4.>X%X:.u s h h h a p p a k k s p p s h v h s s v c.wX4.4.0.q.q.0.c.$Xx.x.S.m.f.b.S.G.4.3.X.",
"3.z.>XyX-Xb.m.S.;X8.c.tXc.x.m.x.0.&.4.>X1.L u u s h s s p p a u a p y y a s s s u u h 1.%Xn.&.4.0.&Xx.c.>X*X4.m.;Xb.m.S.tXtXx.4.",
"fXfXfXuXtXb.;X*X9.2.uX*Xm.c.m.c.0.$.$X1.$.s y y u y y p p ; 6 a C & 5 y p u u u u 5 u v $.;X&.q.q.m.c.m.$XuXg.4.m.:Xm.>XuXfXaXfX"
};
